<svg width="276" height="355" viewBox="0 0 276 355" fill="none" xmlns="http://www.w3.org/2000/svg">
<path d="M275.7 8.28625C276.039 7.23527 275.463 6.10775 274.412 5.76787L257.285 0.229066C256.234 -0.110822 255.107 0.465628 254.767 1.5166C254.427 2.56758 255.004 3.6951 256.055 4.03499L271.278 8.95836L266.355 24.182C266.015 25.233 266.591 26.3605 267.642 26.7004C268.693 27.0403 269.821 26.4639 270.161 25.4129L275.7 8.28625ZM132.118 269.266L132.389 267.285L132.118 269.266ZM185.341 70.4866L183.835 69.1711L185.341 70.4866ZM50.5208 250.167L48.9497 248.93L50.5208 250.167ZM205.726 157.397L204.011 158.425L205.726 157.397ZM273.797 7.67083C272.886 5.89006 272.886 5.89007 272.886 5.89008C272.886 5.89009 272.886 5.8901 272.886 5.89011C272.886 5.89014 272.886 5.89017 272.886 5.8902C272.886 5.89026 272.886 5.89035 272.885 5.89045C272.885 5.89065 272.884 5.89093 272.884 5.89128C272.882 5.89199 272.88 5.89299 272.878 5.89429C272.873 5.89689 272.865 5.90068 272.856 5.90566C272.836 5.9156 272.808 5.93028 272.77 5.94962C272.695 5.98831 272.584 6.04568 272.438 6.12127C272.147 6.27244 271.717 6.4965 271.161 6.78972L273.025 10.3286C273.574 10.0395 273.996 9.81938 274.28 9.67197C274.422 9.59826 274.53 9.54274 274.601 9.50585C274.637 9.48741 274.664 9.47363 274.682 9.46456C274.691 9.46003 274.697 9.45668 274.701 9.45452C274.703 9.45343 274.705 9.45265 274.706 9.45216C274.706 9.45192 274.707 9.45175 274.707 9.45165C274.707 9.4516 274.707 9.45158 274.707 9.45156C274.707 9.45156 274.707 9.45156 274.707 9.45156C274.707 9.45157 274.707 9.45157 274.707 9.45157C274.707 9.45158 274.707 9.45159 273.797 7.67083ZM267.717 8.62926C266.7 9.17908 265.55 9.80626 264.283 10.5058L266.216 14.0078C267.473 13.3141 268.613 12.6924 269.62 12.1478L267.717 8.62926ZM260.854 12.416C259.777 13.022 258.641 13.6655 257.455 14.3444L259.441 17.8163C260.619 17.1425 261.745 16.504 262.815 15.9027L260.854 12.416ZM254.077 16.2933C252.986 16.9284 251.861 17.5881 250.707 18.2712L252.745 21.7134C253.89 21.0355 255.006 20.3808 256.089 19.7505L254.077 16.2933ZM247.35 20.275C246.256 20.9335 245.141 21.6103 244.008 22.3043L246.097 25.7155C247.221 25.0269 248.328 24.3554 249.413 23.702L247.35 20.275ZM240.681 24.3595C239.59 25.0395 238.486 25.7337 237.37 26.4416L239.513 29.819C240.619 29.1172 241.715 28.4286 242.797 27.7542L240.681 24.3595ZM234.076 28.5515C232.99 29.253 231.897 29.9662 230.798 30.6904L232.999 34.0305C234.088 33.3129 235.171 32.6061 236.247 31.9108L234.076 28.5515ZM227.539 32.8594C226.463 33.5832 225.382 34.3169 224.3 35.0597L226.564 38.3573C227.635 37.6221 228.705 36.8958 229.771 36.179L227.539 32.8594ZM221.087 37.2903C220.022 38.0375 218.958 38.7931 217.895 39.5564L220.229 42.805C221.279 42.0506 222.332 41.3035 223.385 40.5644L221.087 37.2903ZM214.727 41.8603C213.675 42.6347 212.627 43.4161 211.585 44.2041L213.997 47.395C215.026 46.6175 216.06 45.8461 217.099 45.0814L214.727 41.8603ZM208.473 46.5899C207.438 47.3942 206.411 48.2045 205.394 49.0204L207.896 52.1414C208.897 51.3384 209.909 50.5402 210.928 49.7476L208.473 46.5899ZM202.352 51.4985C201.339 52.3378 200.337 53.1822 199.349 54.0311L201.954 57.0657C202.924 56.2328 203.908 55.4036 204.904 54.5788L202.352 51.4985ZM196.388 56.6236C195.401 57.5049 194.431 58.3905 193.478 59.2798L196.208 62.2037C197.138 61.3353 198.087 60.4694 199.053 59.6065L196.388 56.6236ZM190.627 62.0059C189.677 62.9374 188.749 63.8723 187.845 64.8099L190.724 67.5869C191.601 66.6775 192.503 65.7689 193.428 64.862L190.627 62.0059ZM185.142 67.7012C184.699 68.1906 184.263 68.6806 183.835 69.1711L186.848 71.8021C187.26 71.3298 187.68 70.8574 188.108 70.3849L185.142 67.7012ZM183.835 69.1711C183.4 69.6686 182.964 70.1707 182.525 70.6772L185.55 73.2947C185.985 72.7927 186.417 72.2951 186.848 71.8021L183.835 69.1711ZM179.873 73.769C179.007 74.7882 178.134 75.8234 177.256 76.874L180.324 79.4399C181.196 78.3976 182.061 77.3708 182.921 76.36L179.873 73.769ZM174.654 80.0109C173.802 81.046 172.946 82.0945 172.086 83.1558L175.194 85.6738C176.048 84.6203 176.897 83.5797 177.742 82.5524L174.654 80.0109ZM169.535 86.3282C168.697 87.3792 167.855 88.4415 167.012 89.5145L170.156 91.9868C170.994 90.9213 171.829 89.8666 172.662 88.8232L169.535 86.3282ZM164.511 92.7177C163.685 93.7841 162.857 94.8602 162.029 95.9454L165.208 98.3731C166.031 97.2954 166.853 96.2267 167.673 95.1677L164.511 92.7177ZM159.578 99.1778C158.764 100.259 157.95 101.348 157.136 102.445L160.348 104.829C161.157 103.739 161.965 102.657 162.774 101.583L159.578 99.1778ZM154.733 105.707C153.933 106.802 153.133 107.903 152.335 109.011L155.58 111.35C156.373 110.249 157.167 109.155 157.962 108.068L154.733 105.707ZM149.979 112.306C149.195 113.41 148.413 114.519 147.634 115.634L150.912 117.927C151.686 116.819 152.462 115.717 153.241 114.621L149.979 112.306ZM145.318 118.972C144.55 120.086 143.786 121.206 143.024 122.329L146.335 124.573C147.091 123.458 147.85 122.347 148.612 121.24L145.318 118.972ZM140.754 125.706C140.003 126.832 139.256 127.962 138.512 129.096L141.857 131.289C142.595 130.164 143.337 129.043 144.082 127.925L140.754 125.706ZM136.295 132.507C135.56 133.647 134.83 134.79 134.105 135.935L137.484 138.075C138.204 136.938 138.928 135.805 139.657 134.674L136.295 132.507ZM131.945 139.378C131.228 140.533 130.516 141.69 129.81 142.848L133.226 144.929C133.926 143.781 134.631 142.634 135.343 141.489L131.945 139.378ZM127.711 146.33C127.013 147.498 126.323 148.667 125.64 149.836L129.094 151.854C129.77 150.695 130.454 149.537 131.145 148.38L127.711 146.33ZM123.603 153.362C122.929 154.543 122.263 155.723 121.605 156.904L125.099 158.851C125.75 157.683 126.409 156.514 127.077 155.346L123.603 153.362ZM119.637 160.48C118.989 161.673 118.351 162.864 117.721 164.055L121.258 165.924C121.88 164.747 122.511 163.569 123.152 162.389L119.637 160.48ZM115.83 167.688C115.209 168.897 114.599 170.104 114.001 171.31L117.583 173.089C118.174 171.9 118.776 170.708 119.389 169.513L115.83 167.688ZM112.202 174.992C111.612 176.221 111.035 177.447 110.47 178.67L114.101 180.347C114.658 179.143 115.227 177.935 115.808 176.723L112.202 174.992ZM108.781 182.403C108.227 183.654 107.687 184.9 107.162 186.141L110.847 187.699C111.362 186.479 111.893 185.254 112.438 184.023L108.781 182.403ZM105.6 189.931C105.09 191.205 104.595 192.472 104.119 193.733L107.86 195.148C108.327 193.913 108.812 192.67 109.313 191.421L105.6 189.931ZM102.708 197.59C102.25 198.887 101.811 200.176 101.393 201.456L105.196 202.698C105.604 201.449 106.032 200.19 106.479 198.922L102.708 197.59ZM100.166 205.393C99.7742 206.713 99.4057 208.022 99.0616 209.321L102.928 210.346C103.262 209.087 103.62 207.815 104.001 206.531L100.166 205.393ZM98.0651 213.35C97.7564 214.698 97.476 216.032 97.2251 217.352L101.155 218.099C101.396 216.83 101.666 215.545 101.964 214.244L98.0651 213.35ZM96.5343 221.464C96.3325 222.853 96.1665 224.225 96.0379 225.578L100.02 225.956C100.142 224.672 100.3 223.366 100.493 222.039L96.5343 221.464ZM95.7611 229.711C95.7073 231.139 95.6997 232.543 95.7406 233.924L99.7388 233.805C99.7007 232.52 99.7076 231.205 99.7583 229.862L95.7611 229.711ZM96.0239 238.108C96.1767 239.524 96.3876 240.91 96.6594 242.264L100.581 241.477C100.334 240.248 100.141 238.982 100.001 237.679L96.0239 238.108ZM97.7193 246.414C98.1517 247.79 98.6579 249.126 99.2416 250.419L102.887 248.772C102.372 247.632 101.922 246.446 101.535 245.215L97.7193 246.414ZM101.262 254.213C102.021 255.435 102.863 256.606 103.791 257.721L106.866 255.162C106.057 254.191 105.323 253.17 104.66 252.102L101.262 254.213ZM106.774 260.839C107.811 261.786 108.925 262.677 110.117 263.511L112.411 260.235C111.357 259.496 110.377 258.712 109.469 257.884L106.774 260.839ZM113.762 265.753C114.99 266.415 116.284 267.027 117.645 267.588L119.17 263.89C117.931 263.379 116.761 262.825 115.659 262.231L113.762 265.753ZM121.552 269C122.86 269.411 124.22 269.782 125.633 270.112L126.542 266.217C125.222 265.909 123.959 265.564 122.753 265.184L121.552 269ZM129.705 270.923C130.407 271.04 131.121 271.149 131.847 271.248L132.389 267.285C131.701 267.191 131.027 267.088 130.364 266.978L129.705 270.923ZM131.847 271.248C132.534 271.342 133.217 271.428 133.897 271.506L134.355 267.532C133.703 267.457 133.048 267.375 132.389 267.285L131.847 271.248ZM137.932 271.884C139.312 271.984 140.676 272.05 142.025 272.086L142.13 268.087C140.843 268.053 139.539 267.99 138.219 267.895L137.932 271.884ZM146.092 272.096C147.469 272.066 148.829 272.003 150.171 271.907L149.886 267.918C148.611 268.009 147.317 268.069 146.006 268.097L146.092 272.096ZM154.252 271.509C155.617 271.34 156.963 271.136 158.289 270.898L157.583 266.961C156.329 267.186 155.054 267.379 153.759 267.54L154.252 271.509ZM162.294 270.065C163.64 269.745 164.963 269.39 166.265 269.001L165.118 265.169C163.891 265.536 162.641 265.871 161.37 266.173L162.294 270.065ZM170.157 267.712C171.45 267.241 172.719 266.735 173.963 266.196L172.373 262.526C171.201 263.033 170.006 263.509 168.788 263.953L170.157 267.712ZM177.681 264.45C178.91 263.827 180.113 263.17 181.289 262.481L179.268 259.03C178.161 259.678 177.029 260.296 175.872 260.882L177.681 264.45ZM184.767 260.301C185.908 259.536 187.021 258.741 188.105 257.915L185.683 254.732C184.662 255.509 183.615 256.258 182.541 256.977L184.767 260.301ZM191.295 255.335C192.336 254.441 193.347 253.518 194.328 252.569L191.548 249.693C190.622 250.589 189.668 251.459 188.688 252.301L191.295 255.335ZM197.193 249.633C198.119 248.627 199.016 247.596 199.882 246.541L196.792 244.002C195.973 244.999 195.126 245.973 194.25 246.923L197.193 249.633ZM202.393 243.305C203.201 242.203 203.977 241.08 204.722 239.937L201.372 237.752C200.665 238.835 199.93 239.899 199.167 240.941L202.393 243.305ZM206.865 236.451C207.548 235.271 208.2 234.073 208.82 232.859L205.259 231.038C204.67 232.191 204.051 233.328 203.403 234.447L206.865 236.451ZM210.587 229.171C211.144 227.928 211.669 226.67 212.163 225.4L208.434 223.951C207.965 225.159 207.466 226.355 206.936 227.536L210.587 229.171ZM213.547 221.557C213.977 220.265 214.375 218.962 214.74 217.65L210.887 216.577C210.539 217.826 210.16 219.065 209.752 220.295L213.547 221.557ZM215.74 213.691C216.04 212.363 216.309 211.028 216.545 209.688L212.605 208.994C212.381 210.271 212.125 211.542 211.838 212.807L215.74 213.691ZM217.155 205.65C217.325 204.299 217.463 202.945 217.568 201.588L213.579 201.28C213.48 202.572 213.349 203.863 213.186 205.149L217.155 205.65ZM217.782 197.509C217.819 196.147 217.824 194.785 217.794 193.424L213.795 193.51C213.823 194.805 213.819 196.101 213.783 197.397L217.782 197.509ZM217.604 189.342C217.506 187.983 217.374 186.626 217.207 185.274L213.237 185.764C213.396 187.048 213.521 188.337 213.614 189.629L217.604 189.342ZM216.602 181.229C216.365 179.885 216.093 178.548 215.786 177.22L211.889 178.121C212.18 179.381 212.438 180.649 212.663 181.924L216.602 181.229ZM214.756 173.258C214.377 171.946 213.961 170.645 213.51 169.356L209.735 170.677C210.161 171.896 210.554 173.127 210.913 174.369L214.756 173.258ZM212.048 165.526C211.524 164.265 210.964 163.017 210.368 161.785L206.768 163.529C207.33 164.691 207.859 165.868 208.353 167.059L212.048 165.526ZM208.472 158.147C208.138 157.55 207.795 156.957 207.442 156.369L204.011 158.425C204.343 158.979 204.666 159.537 204.981 160.1L208.472 158.147ZM207.442 156.369C207.074 155.754 206.698 155.157 206.316 154.577L202.976 156.777C203.326 157.308 203.671 157.858 204.011 158.425L207.442 156.369ZM203.92 151.275C203.025 150.158 202.097 149.123 201.139 148.167L198.314 150.999C199.163 151.846 199.992 152.77 200.799 153.777L203.92 151.275ZM197.983 145.393C196.848 144.52 195.677 143.745 194.473 143.065L192.507 146.549C193.543 147.133 194.556 147.804 195.544 148.564L197.983 145.393ZM190.652 141.269C189.333 140.765 187.984 140.364 186.61 140.059L185.745 143.965C186.933 144.228 188.094 144.574 189.226 145.006L190.652 141.269ZM182.451 139.437C181.075 139.325 179.68 139.3 178.268 139.356L178.426 143.353C179.686 143.303 180.92 143.326 182.126 143.424L182.451 139.437ZM174.136 139.74C172.808 139.932 171.467 140.188 170.115 140.505L171.028 144.4C172.275 144.107 173.501 143.873 174.707 143.699L174.136 139.74ZM166.186 141.585C164.914 141.983 163.633 142.431 162.343 142.926L163.776 146.661C164.992 146.194 166.195 145.774 167.383 145.401L166.186 141.585ZM158.584 144.487C157.386 145.022 156.182 145.593 154.971 146.2L156.764 149.776C157.924 149.194 159.074 148.649 160.213 148.14L158.584 144.487ZM151.416 148.073C150.255 148.713 149.088 149.384 147.918 150.084L149.97 153.517C151.103 152.84 152.229 152.192 153.348 151.575L151.416 148.073ZM144.542 152.172C143.431 152.882 142.316 153.617 141.198 154.375L143.442 157.686C144.532 156.947 145.617 156.232 146.697 155.542L144.542 152.172ZM137.926 156.651C136.859 157.413 135.788 158.194 134.716 158.994L137.109 162.2C138.159 161.416 139.206 160.652 140.249 159.907L137.926 156.651ZM131.536 161.418C130.504 162.22 129.471 163.039 128.437 163.872L130.947 166.986C131.964 166.167 132.978 165.363 133.991 164.576L131.536 161.418ZM125.35 166.403C124.345 167.241 123.34 168.092 122.334 168.956L124.941 171.99C125.932 171.138 126.922 170.3 127.911 169.476L125.35 166.403ZM119.335 171.569C118.352 172.437 117.369 173.316 116.387 174.206L119.073 177.17C120.043 176.291 121.013 175.423 121.983 174.567L119.335 171.569ZM113.462 176.889C112.5 177.783 111.538 178.686 110.577 179.597L113.331 182.499C114.281 181.597 115.232 180.704 116.184 179.821L113.462 176.889ZM107.717 182.34C106.772 183.255 105.83 184.177 104.889 185.107L107.7 187.953C108.632 187.032 109.565 186.119 110.5 185.213L107.717 182.34ZM102.085 187.902C101.157 188.835 100.231 189.775 99.3083 190.719L102.169 193.515C103.085 192.578 104.002 191.647 104.921 190.722L102.085 187.902ZM96.5546 193.56C95.6421 194.51 94.7323 195.463 93.8255 196.421L96.7303 199.171C97.6301 198.221 98.5329 197.274 99.4381 196.333L96.5546 193.56ZM91.1171 199.303C90.2182 200.267 89.3228 201.233 88.4311 202.202L91.3747 204.911C92.2603 203.948 93.1495 202.988 94.0418 202.032L91.1171 199.303ZM85.7638 205.121C84.8774 206.097 83.9952 207.075 83.1173 208.054L86.0956 210.724C86.968 209.751 87.8446 208.779 88.7252 207.81L85.7638 205.121ZM80.4875 211.005C79.6127 211.993 78.7426 212.981 77.8777 213.969L80.8872 216.604C81.7472 215.622 82.6122 214.639 83.4818 213.658L80.4875 211.005ZM75.2821 216.95C74.418 217.948 73.5594 218.946 72.7067 219.941L75.7445 222.543C76.5927 221.553 77.4467 220.561 78.3061 219.569L75.2821 216.95ZM70.142 222.95C69.288 223.958 68.4405 224.962 67.5998 225.964L70.6634 228.536C71.5 227.539 72.3433 226.539 73.193 225.537L70.142 222.95ZM65.0625 229.001C64.2185 230.016 63.382 231.026 62.5534 232.032L65.6405 234.576C66.4654 233.575 67.298 232.568 68.1381 231.558L65.0625 229.001ZM60.0394 235.097C59.2058 236.118 58.3809 237.132 57.5652 238.139L60.6738 240.657C61.4861 239.654 62.3075 238.643 63.1375 237.627L60.0394 235.097ZM55.0701 241.234C54.2413 242.266 53.4229 243.289 52.6153 244.303L55.7438 246.795C56.5482 245.785 57.3634 244.766 58.1889 243.738L55.0701 241.234ZM50.1536 247.404C49.7493 247.916 49.348 248.424 48.9497 248.93L52.0919 251.405C52.4887 250.901 52.8885 250.395 53.2914 249.885L50.1536 247.404ZM48.9497 248.93C48.5162 249.48 48.0862 250.031 47.6599 250.582L50.8239 253.029C51.243 252.488 51.6656 251.946 52.0919 251.405L48.9497 248.93ZM45.1431 253.895C44.3055 255.018 43.4828 256.141 42.6746 257.264L45.9216 259.6C46.7165 258.496 47.5256 257.391 48.3491 256.287L45.1431 253.895ZM40.267 260.672C39.4707 261.82 38.6893 262.967 37.9226 264.113L41.2472 266.337C42.0015 265.21 42.7702 264.081 43.5535 262.952L40.267 260.672ZM35.6359 267.594C34.8759 268.772 34.1311 269.948 33.4014 271.122L36.7982 273.234C37.5164 272.079 38.2493 270.922 38.9973 269.762L35.6359 267.594ZM31.2291 274.68C30.5101 275.88 29.8068 277.076 29.1187 278.268L32.5826 280.268C33.26 279.095 33.9524 277.917 34.6601 276.736L31.2291 274.68ZM27.067 281.888C26.3841 283.115 25.7173 284.337 25.0664 285.553L28.5927 287.441C29.2337 286.244 29.8902 285.041 30.5626 283.832L27.067 281.888ZM23.1268 289.245C22.4839 290.493 21.8576 291.733 21.2477 292.964L24.8317 294.74C25.4325 293.527 26.0493 292.306 26.6825 291.077L23.1268 289.245ZM19.4286 296.707C18.8248 297.975 18.2385 299.232 17.6691 300.476L21.3066 302.14C21.8675 300.914 22.4451 299.676 23.0399 298.427L19.4286 296.707ZM15.9672 304.274C15.3998 305.567 14.851 306.845 14.3203 308.107L18.0074 309.657C18.5303 308.414 19.071 307.155 19.6299 305.882L15.9672 304.274ZM12.7336 311.962C12.205 313.275 11.6965 314.568 11.2074 315.84L14.9407 317.276C15.4225 316.023 15.9235 314.749 16.4443 313.456L12.7336 311.962ZM9.74229 319.739C9.2526 321.074 8.78525 322.381 8.33943 323.658L12.1159 324.976C12.5549 323.719 13.0152 322.431 13.4975 321.117L9.74229 319.739ZM6.99898 327.598C6.5453 328.967 6.11802 330.295 5.71596 331.579L9.5332 332.775C9.92884 331.511 10.3494 330.204 10.796 328.855L6.99898 327.598ZM4.50161 335.576C4.09006 336.973 3.71179 338.304 3.36487 339.564L7.22138 340.626C7.56216 339.388 7.93394 338.08 8.33864 336.706L4.50161 335.576ZM2.28915 343.623C1.90596 345.128 1.57832 346.487 1.30114 347.686L5.19833 348.587C5.46911 347.416 5.78984 346.086 6.16556 344.609L2.28915 343.623ZM0.411492 351.784C0.278036 352.448 0.181535 352.96 0.117962 353.308C0.0861753 353.481 0.062619 353.615 0.0467903 353.705C0.0388759 353.751 0.0328932 353.786 0.0287794 353.81C0.0267225 353.822 0.0251328 353.832 0.0240024 353.838C0.0234372 353.842 0.0229869 353.844 0.0226504 353.846C0.0224821 353.847 0.0223423 353.848 0.0222309 353.849C0.0221751 353.849 0.0221265 353.85 0.0220849 353.85C0.0220641 353.85 0.0220451 353.85 0.0220279 353.85C0.0220192 353.85 0.0220076 353.85 0.0220033 353.85C0.0219921 353.85 0.0219814 353.85 1.99509 354.177C3.96819 354.504 3.96818 354.504 3.96817 354.504C3.96817 354.504 3.96816 354.504 3.96816 354.504C3.96815 354.505 3.96814 354.505 3.96813 354.505C3.96812 354.505 3.96811 354.505 3.96811 354.505C3.96811 354.505 3.96814 354.505 3.9682 354.504C3.96831 354.503 3.96854 354.502 3.96888 354.5C3.96957 354.496 3.9707 354.489 3.9723 354.48C3.97551 354.461 3.98056 354.431 3.98752 354.391C4.00146 354.311 4.02305 354.189 4.05279 354.027C4.11228 353.701 4.20439 353.213 4.33311 352.572L0.411492 351.784Z" fill="white"/>
</svg>
