<svg width="181" height="181" viewBox="0 0 181 181" fill="none" xmlns="http://www.w3.org/2000/svg">
<g filter="url(#filter0_f_2459_3)">
<path d="M15.781 132.798C15.3386 132.03 14.9078 131.254 14.4887 130.471C15.2511 130.971 15.7598 131.825 15.781 132.798Z" fill="url(#paint0_linear_2459_3)"/>
<path d="M31.4163 152.548C30.085 151.297 28.7937 150.003 27.5446 148.67C28.0299 147.778 28.9771 147.173 30.0652 147.175C31.6454 147.177 32.9244 148.458 32.9219 150.036C32.9201 151.123 32.3113 152.067 31.4163 152.548Z" fill="url(#paint1_linear_2459_3)"/>
<path d="M49.5993 165.643C48.8166 165.223 48.0412 164.79 47.2734 164.346C48.2479 164.37 49.1012 164.881 49.5993 165.643Z" fill="url(#paint2_linear_2459_3)"/>
<path d="M132.975 164.482C132.205 164.924 131.429 165.354 130.645 165.772C131.145 165.011 132 164.503 132.975 164.482Z" fill="url(#paint3_linear_2459_3)"/>
<path d="M152.753 148.869C151.5 150.199 150.205 151.488 148.869 152.735C147.976 152.251 147.37 151.305 147.372 150.218C147.374 148.64 148.657 147.363 150.238 147.366C151.326 147.367 152.271 147.975 152.753 148.869Z" fill="url(#paint4_linear_2459_3)"/>
<path d="M165.867 130.712C165.446 131.494 165.012 132.268 164.568 133.035C164.592 132.062 165.103 131.21 165.867 130.712Z" fill="url(#paint5_linear_2459_3)"/>
<path d="M14.6179 49.5425C15.0394 48.7609 15.4727 47.9866 15.9176 47.2198C15.8933 48.193 15.3818 49.0451 14.6179 49.5425Z" fill="url(#paint6_linear_2459_3)"/>
<path d="M27.7318 31.3855C28.2142 32.2792 29.1594 32.8872 30.2475 32.889C31.8278 32.8915 33.1108 31.6143 33.1133 30.0364C33.1151 28.9498 32.5092 28.004 31.6158 27.5194C30.2805 28.7667 28.9851 30.0561 27.7318 31.3855Z" fill="url(#paint7_linear_2459_3)"/>
<path d="M47.5104 15.7727C48.4851 15.7516 49.34 15.2436 49.8405 14.4823C49.0565 14.9007 48.2797 15.3309 47.5104 15.7727Z" fill="url(#paint8_linear_2459_3)"/>
<path d="M130.886 14.6112C131.384 15.3741 132.237 15.8848 133.212 15.9091C132.444 15.4649 131.668 15.0321 130.886 14.6112Z" fill="url(#paint9_linear_2459_3)"/>
<path d="M149.069 27.7063C148.174 28.188 147.565 29.1319 147.563 30.2185C147.561 31.7964 148.84 33.0776 150.42 33.0802C151.508 33.0819 152.455 32.4769 152.94 31.5847C151.691 30.2514 150.4 28.9578 149.069 27.7063Z" fill="url(#paint10_linear_2459_3)"/>
<path d="M164.704 47.4566C164.725 48.4298 165.234 49.2835 165.996 49.7833C165.577 49.0004 165.147 48.2247 164.704 47.4566Z" fill="url(#paint11_linear_2459_3)"/>
<path d="M113.009 167.307C113.012 165.729 114.295 164.451 115.875 164.454C117.455 164.456 118.734 165.738 118.732 167.316C118.729 168.894 117.446 170.171 115.866 170.168C114.286 170.166 113.007 168.884 113.009 167.307Z" fill="url(#paint12_linear_2459_3)"/>
<path d="M95.842 167.279C95.8445 165.701 97.1276 164.424 98.7078 164.427C100.288 164.429 101.567 165.71 101.564 167.288C101.562 168.866 100.279 170.143 98.6987 170.141C97.1184 170.138 95.8394 168.857 95.842 167.279Z" fill="url(#paint13_linear_2459_3)"/>
<path d="M78.6745 167.252C78.677 165.674 79.9601 164.397 81.5403 164.399C83.1205 164.402 84.3995 165.683 84.397 167.261C84.3945 168.839 83.1114 170.116 81.5312 170.114C79.951 170.111 78.672 168.83 78.6745 167.252Z" fill="url(#paint14_linear_2459_3)"/>
<path d="M61.507 167.225C61.5095 165.647 62.7926 164.369 64.3728 164.372C65.953 164.375 67.232 165.656 67.2295 167.234C67.227 168.812 65.9439 170.089 64.3637 170.086C62.7835 170.084 61.5045 168.803 61.507 167.225Z" fill="url(#paint15_linear_2459_3)"/>
<path d="M130.204 150.191C130.207 148.613 131.49 147.336 133.07 147.338C134.65 147.341 135.929 148.622 135.927 150.2C135.924 151.778 134.641 153.055 133.061 153.053C131.481 153.05 130.202 151.769 130.204 150.191Z" fill="url(#paint16_linear_2459_3)"/>
<path d="M113.037 150.164C113.039 148.586 114.322 147.309 115.903 147.311C117.483 147.314 118.762 148.595 118.759 150.173C118.757 151.751 117.474 153.028 115.893 153.025C114.313 153.023 113.034 151.742 113.037 150.164Z" fill="url(#paint17_linear_2459_3)"/>
<path d="M95.8693 150.136C95.8718 148.558 97.1549 147.281 98.7351 147.284C100.315 147.286 101.594 148.568 101.592 150.145C101.589 151.723 100.306 153.001 98.726 152.998C97.1458 152.996 95.8668 151.714 95.8693 150.136Z" fill="url(#paint18_linear_2459_3)"/>
<path d="M78.7018 150.109C78.7044 148.531 79.9874 147.254 81.5676 147.256C83.1479 147.259 84.4268 148.54 84.4243 150.118C84.4218 151.696 83.1387 152.973 81.5585 152.971C79.9783 152.968 78.6993 151.687 78.7018 150.109Z" fill="url(#paint19_linear_2459_3)"/>
<path d="M61.5343 150.082C61.5369 148.504 62.8199 147.227 64.4001 147.229C65.9804 147.232 67.2594 148.513 67.2568 150.091C67.2543 151.669 65.9713 152.946 64.391 152.943C62.8108 152.941 61.5318 151.66 61.5343 150.082Z" fill="url(#paint20_linear_2459_3)"/>
<path d="M44.3669 150.054C44.3694 148.476 45.6524 147.199 47.2327 147.202C48.8129 147.204 50.0919 148.486 50.0894 150.064C50.0868 151.641 48.8038 152.919 47.2235 152.916C45.6433 152.914 44.3643 151.632 44.3669 150.054Z" fill="url(#paint21_linear_2459_3)"/>
<path d="M147.399 133.075C147.402 131.498 148.685 130.22 150.265 130.223C151.845 130.225 153.124 131.507 153.122 133.085C153.119 134.663 151.836 135.94 150.256 135.937C148.676 135.935 147.397 134.653 147.399 133.075Z" fill="url(#paint22_linear_2459_3)"/>
<path d="M130.232 133.048C130.234 131.47 131.517 130.193 133.097 130.196C134.678 130.198 135.957 131.479 135.954 133.057C135.952 134.635 134.669 135.912 133.088 135.91C131.508 135.907 130.229 134.626 130.232 133.048Z" fill="url(#paint23_linear_2459_3)"/>
<path d="M113.064 133.021C113.067 131.443 114.35 130.166 115.93 130.168C117.51 130.171 118.789 131.452 118.787 133.03C118.784 134.608 117.501 135.885 115.921 135.883C114.341 135.88 113.062 134.599 113.064 133.021Z" fill="url(#paint24_linear_2459_3)"/>
<path d="M95.8967 132.994C95.8992 131.416 97.1823 130.138 98.7625 130.141C100.343 130.143 101.622 131.425 101.619 133.003C101.617 134.581 100.334 135.858 98.7534 135.855C97.1731 135.853 95.8942 134.571 95.8967 132.994Z" fill="url(#paint25_linear_2459_3)"/>
<path d="M78.7292 132.966C78.7317 131.388 80.0148 130.111 81.595 130.114C83.1752 130.116 84.4542 131.397 84.4517 132.975C84.4492 134.553 83.1661 135.83 81.5859 135.828C80.0057 135.825 78.7267 134.544 78.7292 132.966Z" fill="url(#paint26_linear_2459_3)"/>
<path d="M61.5617 132.939C61.5642 131.361 62.8473 130.084 64.4275 130.086C66.0077 130.089 67.2867 131.37 67.2842 132.948C67.2817 134.526 65.9986 135.803 64.4184 135.801C62.8382 135.798 61.5592 134.517 61.5617 132.939Z" fill="url(#paint27_linear_2459_3)"/>
<path d="M44.3942 132.912C44.3967 131.334 45.6798 130.056 47.26 130.059C48.8402 130.062 50.1192 131.343 50.1167 132.921C50.1142 134.499 48.8311 135.776 47.2509 135.773C45.6707 135.771 44.3917 134.49 44.3942 132.912Z" fill="url(#paint28_linear_2459_3)"/>
<path d="M27.2267 132.884C27.2292 131.306 28.5123 130.029 30.0925 130.032C31.6728 130.034 32.9517 131.315 32.9492 132.893C32.9467 134.471 31.6636 135.748 30.0834 135.746C28.5032 135.743 27.2242 134.462 27.2267 132.884Z" fill="url(#paint29_linear_2459_3)"/>
<path d="M164.594 115.96C164.596 114.382 165.88 113.105 167.46 113.107C169.04 113.11 170.319 114.391 170.316 115.969C170.314 117.547 169.031 118.824 167.451 118.822C165.87 118.819 164.591 117.538 164.594 115.96Z" fill="url(#paint30_linear_2459_3)"/>
<path d="M147.426 115.933C147.429 114.355 148.712 113.078 150.292 113.08C151.873 113.083 153.152 114.364 153.149 115.942C153.146 117.52 151.863 118.797 150.283 118.794C148.703 118.792 147.424 117.511 147.426 115.933Z" fill="url(#paint31_linear_2459_3)"/>
<path d="M130.259 115.905C130.262 114.327 131.545 113.05 133.125 113.053C134.705 113.055 135.984 114.336 135.982 115.914C135.979 117.492 134.696 118.77 133.116 118.767C131.535 118.764 130.256 117.483 130.259 115.905Z" fill="url(#paint32_linear_2459_3)"/>
<path d="M113.092 115.878C113.094 114.3 114.377 113.023 115.957 113.025C117.538 113.028 118.817 114.309 118.814 115.887C118.811 117.465 117.528 118.742 115.948 118.74C114.368 118.737 113.089 117.456 113.092 115.878Z" fill="url(#paint33_linear_2459_3)"/>
<path d="M95.924 115.851C95.9265 114.273 97.2096 112.996 98.7898 112.998C100.37 113.001 101.649 114.282 101.647 115.86C101.644 117.438 100.361 118.715 98.7807 118.712C97.2005 118.71 95.9215 117.429 95.924 115.851Z" fill="url(#paint34_linear_2459_3)"/>
<path d="M78.7565 115.823C78.7591 114.245 80.0421 112.968 81.6224 112.971C83.2026 112.973 84.4815 114.255 84.479 115.832C84.4765 117.41 83.1935 118.688 81.6132 118.685C80.033 118.683 78.754 117.401 78.7565 115.823Z" fill="url(#paint35_linear_2459_3)"/>
<path d="M61.589 115.796C61.5916 114.218 62.8746 112.941 64.4549 112.943C66.0351 112.946 67.3141 114.227 67.3115 115.805C67.309 117.383 66.026 118.66 64.4457 118.658C62.8655 118.655 61.5865 117.374 61.589 115.796Z" fill="url(#paint36_linear_2459_3)"/>
<path d="M44.4216 115.769C44.4241 114.191 45.7071 112.914 47.2874 112.916C48.8676 112.919 50.1466 114.2 50.1441 115.778C50.1415 117.356 48.8585 118.633 47.2783 118.63C45.698 118.628 44.419 117.347 44.4216 115.769Z" fill="url(#paint37_linear_2459_3)"/>
<path d="M27.2541 115.741C27.2566 114.163 28.5397 112.886 30.1199 112.889C31.7001 112.891 32.9791 114.173 32.9766 115.751C32.9741 117.328 31.691 118.606 30.1108 118.603C28.5305 118.601 27.2516 117.319 27.2541 115.741Z" fill="url(#paint38_linear_2459_3)"/>
<path d="M10.0866 115.714C10.0891 114.136 11.3722 112.859 12.9524 112.862C14.5326 112.864 15.8116 114.145 15.8091 115.723C15.8066 117.301 14.5235 118.578 12.9433 118.576C11.3631 118.573 10.0841 117.292 10.0866 115.714Z" fill="url(#paint39_linear_2459_3)"/>
<path d="M164.621 98.8171C164.624 97.2392 165.907 95.962 167.487 95.9645C169.067 95.967 170.346 97.2483 170.344 98.8262C170.341 100.404 169.058 101.681 167.478 101.679C165.898 101.676 164.619 100.395 164.621 98.8171Z" fill="url(#paint40_linear_2459_3)"/>
<path d="M147.454 98.7898C147.456 97.2118 148.739 95.9347 150.32 95.9372C151.9 95.9397 153.179 97.2209 153.176 98.7989C153.174 100.377 151.891 101.654 150.311 101.651C148.73 101.649 147.451 100.368 147.454 98.7898Z" fill="url(#paint41_linear_2459_3)"/>
<path d="M130.286 98.7625C130.289 97.1845 131.572 95.9074 133.152 95.9099C134.732 95.9124 136.011 97.1936 136.009 98.7716C136.006 100.35 134.723 101.627 133.143 101.624C131.563 101.622 130.284 100.34 130.286 98.7625Z" fill="url(#paint42_linear_2459_3)"/>
<path d="M113.119 98.7352C113.121 97.1572 114.404 95.8801 115.985 95.8826C117.565 95.8851 118.844 97.1663 118.841 98.7443C118.839 100.322 117.556 101.599 115.976 101.597C114.395 101.594 113.116 100.313 113.119 98.7352Z" fill="url(#paint43_linear_2459_3)"/>
<path d="M95.9514 98.7079C95.9539 97.1299 97.237 95.8528 98.8172 95.8553C100.397 95.8578 101.676 97.139 101.674 98.717C101.671 100.295 100.388 101.572 98.8081 101.57C97.2278 101.567 95.9489 100.286 95.9514 98.7079Z" fill="url(#paint44_linear_2459_3)"/>
<path d="M78.7839 98.6805C78.7864 97.1026 80.0695 95.8254 81.6497 95.828C83.2299 95.8305 84.5089 97.1117 84.5064 98.6896C84.5039 100.268 83.2208 101.545 81.6406 101.542C80.0604 101.54 78.7814 100.258 78.7839 98.6805Z" fill="url(#paint45_linear_2459_3)"/>
<path d="M61.6164 98.6532C61.6189 97.0753 62.902 95.7981 64.4822 95.8006C66.0624 95.8032 67.3414 97.0844 67.3389 98.6623C67.3364 100.24 66.0533 101.517 64.4731 101.515C62.8929 101.512 61.6139 100.231 61.6164 98.6532Z" fill="url(#paint46_linear_2459_3)"/>
<path d="M44.4489 98.6259C44.4514 97.048 45.7345 95.7708 47.3147 95.7733C48.8949 95.7758 50.1739 97.0571 50.1714 98.635C50.1689 100.213 48.8858 101.49 47.3056 101.488C45.7254 101.485 44.4464 100.204 44.4489 98.6259Z" fill="url(#paint47_linear_2459_3)"/>
<path d="M27.2814 98.5986C27.2839 97.0207 28.567 95.7435 30.1472 95.746C31.7275 95.7485 33.0064 97.0298 33.0039 98.6077C33.0014 100.186 31.7183 101.463 30.1381 101.46C28.5579 101.458 27.2789 100.177 27.2814 98.5986Z" fill="url(#paint48_linear_2459_3)"/>
<path d="M10.1139 98.5713C10.1165 96.9933 11.3995 95.7162 12.9798 95.7187C14.56 95.7212 15.839 97.0024 15.8364 98.5804C15.8339 100.158 14.5509 101.436 12.9706 101.433C11.3904 101.43 10.1114 100.149 10.1139 98.5713Z" fill="url(#paint49_linear_2459_3)"/>
<path d="M164.649 81.6743C164.651 80.0963 165.934 78.8192 167.514 78.8217C169.095 78.8242 170.374 80.1054 170.371 81.6834C170.369 83.2613 169.086 84.5385 167.505 84.536C165.925 84.5334 164.646 83.2522 164.649 81.6743Z" fill="url(#paint50_linear_2459_3)"/>
<path d="M147.481 81.647C147.484 80.069 148.767 78.7919 150.347 78.7944C151.927 78.7969 153.206 80.0781 153.204 81.6561C153.201 83.234 151.918 84.5112 150.338 84.5086C148.758 84.5061 147.479 83.2249 147.481 81.647Z" fill="url(#paint51_linear_2459_3)"/>
<path d="M130.314 81.6197C130.316 80.0417 131.599 78.7645 133.18 78.7671C134.76 78.7696 136.039 80.0508 136.036 81.6288C136.034 83.2067 134.751 84.4838 133.17 84.4813C131.59 84.4788 130.311 83.1976 130.314 81.6197Z" fill="url(#paint52_linear_2459_3)"/>
<path d="M113.146 81.5923C113.149 80.0144 114.432 78.7372 116.012 78.7397C117.592 78.7423 118.871 80.0235 118.869 81.6014C118.866 83.1794 117.583 84.4565 116.003 84.454C114.423 84.4515 113.144 83.1703 113.146 81.5923Z" fill="url(#paint53_linear_2459_3)"/>
<path d="M95.9787 81.565C95.9812 79.9871 97.2643 78.7099 98.8445 78.7124C100.425 78.7149 101.704 79.9962 101.701 81.5741C101.699 83.1521 100.416 84.4292 98.8354 84.4267C97.2552 84.4242 95.9762 83.143 95.9787 81.565Z" fill="url(#paint54_linear_2459_3)"/>
<path d="M78.8112 81.5377C78.8138 79.9598 80.0968 78.6826 81.6771 78.6851C83.2573 78.6876 84.5363 79.9689 84.5337 81.5468C84.5312 83.1248 83.2482 84.4019 81.6679 84.3994C80.0877 84.3969 78.8087 83.1157 78.8112 81.5377Z" fill="url(#paint55_linear_2459_3)"/>
<path d="M61.6438 81.5104C61.6463 79.9324 62.9293 78.6553 64.5096 78.6578C66.0898 78.6603 67.3688 79.9416 67.3663 81.5195C67.3637 83.0975 66.0807 84.3746 64.5004 84.3721C62.9202 84.3696 61.6412 83.0884 61.6438 81.5104Z" fill="url(#paint56_linear_2459_3)"/>
<path d="M44.4763 81.4831C44.4788 79.9051 45.7619 78.628 47.3421 78.6305C48.9223 78.633 50.2013 79.9142 50.1988 81.4922C50.1962 83.0701 48.9132 84.3473 47.333 84.3448C45.7527 84.3423 44.4737 83.061 44.4763 81.4831Z" fill="url(#paint57_linear_2459_3)"/>
<path d="M27.3088 81.4558C27.3113 79.8778 28.5944 78.6007 30.1746 78.6032C31.7548 78.6057 33.0338 79.8869 33.0313 81.4649C33.0288 83.0428 31.7457 84.32 30.1655 84.3175C28.5853 84.3149 27.3063 83.0337 27.3088 81.4558Z" fill="url(#paint58_linear_2459_3)"/>
<path d="M10.1413 81.4285C10.1438 79.8505 11.4269 78.5734 13.0071 78.5759C14.5873 78.5784 15.8663 79.8596 15.8638 81.4376C15.8613 83.0155 14.5782 84.2927 12.998 84.2901C11.4178 84.2876 10.1388 83.0064 10.1413 81.4285Z" fill="url(#paint59_linear_2459_3)"/>
<path d="M164.676 64.5314C164.679 62.9535 165.962 61.6763 167.542 61.6788C169.122 61.6814 170.401 62.9626 170.399 64.5405C170.396 66.1185 169.113 67.3956 167.533 67.3931C165.953 67.3906 164.674 66.1094 164.676 64.5314Z" fill="url(#paint60_linear_2459_3)"/>
<path d="M147.509 64.5041C147.511 62.9262 148.794 61.649 150.374 61.6515C151.955 61.6541 153.234 62.9353 153.231 64.5132C153.229 66.0912 151.945 67.3683 150.365 67.3658C148.785 67.3633 147.506 66.0821 147.509 64.5041Z" fill="url(#paint61_linear_2459_3)"/>
<path d="M130.341 64.4768C130.344 62.8989 131.627 61.6217 133.207 61.6242C134.787 61.6267 136.066 62.908 136.064 64.4859C136.061 66.0639 134.778 67.341 133.198 67.3385C131.618 67.336 130.339 66.0548 130.341 64.4768Z" fill="url(#paint62_linear_2459_3)"/>
<path d="M113.174 64.4495C113.176 62.8715 114.459 61.5944 116.039 61.5969C117.62 61.5994 118.899 62.8806 118.896 64.4586C118.894 66.0366 117.61 67.3137 116.03 67.3112C114.45 67.3087 113.171 66.0274 113.174 64.4495Z" fill="url(#paint63_linear_2459_3)"/>
<path d="M96.0061 64.4222C96.0086 62.8442 97.2917 61.5671 98.8719 61.5696C100.452 61.5721 101.731 62.8533 101.729 64.4313C101.726 66.0092 100.443 67.2864 98.8628 67.2839C97.2826 67.2814 96.0036 66.0001 96.0061 64.4222Z" fill="url(#paint64_linear_2459_3)"/>
<path d="M78.8386 64.3949C78.8411 62.8169 80.1242 61.5398 81.7044 61.5423C83.2846 61.5448 84.5636 62.826 84.5611 64.404C84.5586 65.9819 83.2755 67.2591 81.6953 67.2566C80.1151 67.254 78.8361 65.9728 78.8386 64.3949Z" fill="url(#paint65_linear_2459_3)"/>
<path d="M61.6711 64.3676C61.6736 62.7896 62.9567 61.5125 64.5369 61.515C66.1171 61.5175 67.3961 62.7987 67.3936 64.3767C67.3911 65.9546 66.108 67.2318 64.5278 67.2293C62.9476 67.2267 61.6686 65.9455 61.6711 64.3676Z" fill="url(#paint66_linear_2459_3)"/>
<path d="M44.5036 64.3402C44.5061 62.7623 45.7892 61.4851 47.3694 61.4877C48.9496 61.4902 50.2286 62.7714 50.2261 64.3493C50.2236 65.9273 48.9405 67.2045 47.3603 67.2019C45.7801 67.1994 44.5011 65.9182 44.5036 64.3402Z" fill="url(#paint67_linear_2459_3)"/>
<path d="M27.3361 64.3129C27.3386 62.735 28.6217 61.4578 30.2019 61.4603C31.7822 61.4629 33.0612 62.7441 33.0586 64.322C33.0561 65.9 31.773 67.1771 30.1928 67.1746C28.6126 67.1721 27.3336 65.8909 27.3361 64.3129Z" fill="url(#paint68_linear_2459_3)"/>
<path d="M10.1686 64.2856C10.1712 62.7077 11.4542 61.4305 13.0345 61.433C14.6147 61.4355 15.8937 62.7168 15.8911 64.2947C15.8886 65.8727 14.6056 67.1498 13.0253 67.1473C11.4451 67.1448 10.1661 65.8636 10.1686 64.2856Z" fill="url(#paint69_linear_2459_3)"/>
<path d="M147.536 47.3613C147.538 45.7833 148.821 44.5062 150.402 44.5087C151.982 44.5112 153.261 45.7924 153.258 47.3704C153.256 48.9483 151.973 50.2255 150.393 50.223C148.812 50.2205 147.533 48.9392 147.536 47.3613Z" fill="url(#paint70_linear_2459_3)"/>
<path d="M130.368 47.334C130.371 45.756 131.654 44.4789 133.234 44.4814C134.814 44.4839 136.093 45.7651 136.091 47.3431C136.088 48.921 134.805 50.1982 133.225 50.1957C131.645 50.1932 130.366 48.9119 130.368 47.334Z" fill="url(#paint71_linear_2459_3)"/>
<path d="M113.201 47.3067C113.203 45.7287 114.487 44.4516 116.067 44.4541C117.647 44.4566 118.926 45.7378 118.923 47.3158C118.921 48.8937 117.638 50.1709 116.058 50.1684C114.477 50.1658 113.198 48.8846 113.201 47.3067Z" fill="url(#paint72_linear_2459_3)"/>
<path d="M96.0334 47.2793C96.0359 45.7014 97.319 44.4242 98.8992 44.4268C100.479 44.4293 101.758 45.7105 101.756 47.2885C101.753 48.8664 100.47 50.1436 98.8901 50.141C97.3099 50.1385 96.0309 48.8573 96.0334 47.2793Z" fill="url(#paint73_linear_2459_3)"/>
<path d="M78.8659 47.252C78.8685 45.6741 80.1515 44.3969 81.7318 44.3994C83.312 44.402 84.591 45.6832 84.5884 47.2611C84.5859 48.8391 83.3029 50.1162 81.7226 50.1137C80.1424 50.1112 78.8634 48.83 78.8659 47.252Z" fill="url(#paint74_linear_2459_3)"/>
<path d="M61.6985 47.2247C61.701 45.6468 62.984 44.3696 64.5643 44.3721C66.1445 44.3746 67.4235 45.6559 67.421 47.2338C67.4184 48.8118 66.1354 50.0889 64.5551 50.0864C62.9749 50.0839 61.6959 48.8027 61.6985 47.2247Z" fill="url(#paint75_linear_2459_3)"/>
<path d="M44.531 47.1974C44.5335 45.6195 45.8166 44.3423 47.3968 44.3448C48.977 44.3473 50.256 45.6286 50.2535 47.2065C50.251 48.7845 48.9679 50.0616 47.3877 50.0591C45.8074 50.0566 44.5284 48.7754 44.531 47.1974Z" fill="url(#paint76_linear_2459_3)"/>
<path d="M27.3635 47.1701C27.366 45.5921 28.6491 44.315 30.2293 44.3175C31.8095 44.32 33.0885 45.6012 33.086 47.1792C33.0835 48.7572 31.8004 50.0343 30.2202 50.0318C28.64 50.0293 27.361 48.748 27.3635 47.1701Z" fill="url(#paint77_linear_2459_3)"/>
<path d="M130.396 30.1911C130.398 28.6132 131.681 27.336 133.262 27.3386C134.842 27.3411 136.121 28.6223 136.118 30.2002C136.116 31.7782 134.833 33.0554 133.252 33.0528C131.672 33.0503 130.393 31.7691 130.396 30.1911Z" fill="url(#paint78_linear_2459_3)"/>
<path d="M113.228 30.1638C113.231 28.5859 114.514 27.3087 116.094 27.3112C117.674 27.3138 118.953 28.595 118.951 30.1729C118.948 31.7509 117.665 33.028 116.085 33.0255C114.505 33.023 113.226 31.7418 113.228 30.1638Z" fill="url(#paint79_linear_2459_3)"/>
<path d="M96.0608 30.1365C96.0633 28.5586 97.3464 27.2814 98.9266 27.2839C100.507 27.2864 101.786 28.5677 101.783 30.1456C101.781 31.7236 100.498 33.0007 98.9175 32.9982C97.3373 32.9957 96.0583 31.7145 96.0608 30.1365Z" fill="url(#paint80_linear_2459_3)"/>
<path d="M78.8933 30.1092C78.8958 28.5313 80.1789 27.2541 81.7591 27.2566C83.3393 27.2591 84.6183 28.5404 84.6158 30.1183C84.6133 31.6963 83.3302 32.9734 81.75 32.9709C80.1698 32.9684 78.8908 31.6872 78.8933 30.1092Z" fill="url(#paint81_linear_2459_3)"/>
<path d="M61.7258 30.0819C61.7283 28.5039 63.0114 27.2268 64.5916 27.2293C66.1718 27.2318 67.4508 28.513 67.4483 30.091C67.4458 31.6689 66.1627 32.9461 64.5825 32.9436C63.0023 32.9411 61.7233 31.6598 61.7258 30.0819Z" fill="url(#paint82_linear_2459_3)"/>
<path d="M44.5583 30.0546C44.5608 28.4766 45.8439 27.1995 47.4241 27.202C49.0044 27.2045 50.2833 28.4857 50.2808 30.0637C50.2783 31.6416 48.9952 32.9188 47.415 32.9163C45.8348 32.9138 44.5558 31.6325 44.5583 30.0546Z" fill="url(#paint83_linear_2459_3)"/>
<path d="M113.256 13.021C113.258 11.443 114.541 10.1659 116.121 10.1684C117.702 10.1709 118.981 11.4522 118.978 13.0301C118.976 14.6081 117.693 15.8852 116.112 15.8827C114.532 15.8802 113.253 14.599 113.256 13.021Z" fill="url(#paint84_linear_2459_3)"/>
<path d="M96.0881 12.9937C96.0907 11.4157 97.3737 10.1386 98.9539 10.1411C100.534 10.1436 101.813 11.4248 101.811 13.0028C101.808 14.5807 100.525 15.8579 98.9448 15.8554C97.3646 15.8529 96.0856 14.5716 96.0881 12.9937Z" fill="url(#paint85_linear_2459_3)"/>
<path d="M78.9207 12.9664C78.9232 11.3884 80.2062 10.1113 81.7865 10.1138C83.3667 10.1163 84.6457 11.3975 84.6431 12.9755C84.6406 14.5534 83.3576 15.8306 81.7773 15.8281C80.1971 15.8255 78.9181 14.5443 78.9207 12.9664Z" fill="url(#paint86_linear_2459_3)"/>
<path d="M61.7532 12.9391C61.7557 11.3611 63.0387 10.084 64.619 10.0865C66.1992 10.089 67.4782 11.3702 67.4757 12.9482C67.4731 14.5261 66.1901 15.8033 64.6098 15.8007C63.0296 15.7982 61.7506 14.517 61.7532 12.9391Z" fill="url(#paint87_linear_2459_3)"/>
</g>
<path d="M15.781 132.798C15.3386 132.03 14.9078 131.254 14.4887 130.471C15.2511 130.971 15.7598 131.825 15.781 132.798Z" fill="url(#paint88_linear_2459_3)"/>
<path d="M31.4163 152.548C30.085 151.297 28.7937 150.003 27.5446 148.67C28.0299 147.778 28.9771 147.173 30.0652 147.175C31.6454 147.177 32.9244 148.458 32.9219 150.036C32.9201 151.123 32.3113 152.067 31.4163 152.548Z" fill="url(#paint89_linear_2459_3)"/>
<path d="M49.5993 165.643C48.8166 165.223 48.0412 164.79 47.2734 164.346C48.2479 164.37 49.1012 164.881 49.5993 165.643Z" fill="url(#paint90_linear_2459_3)"/>
<path d="M132.975 164.482C132.205 164.924 131.429 165.354 130.645 165.772C131.145 165.011 132 164.503 132.975 164.482Z" fill="url(#paint91_linear_2459_3)"/>
<path d="M152.753 148.869C151.5 150.199 150.205 151.488 148.869 152.735C147.976 152.251 147.37 151.305 147.372 150.218C147.374 148.64 148.657 147.363 150.238 147.366C151.326 147.367 152.271 147.975 152.753 148.869Z" fill="url(#paint92_linear_2459_3)"/>
<path d="M165.867 130.712C165.446 131.494 165.012 132.268 164.568 133.035C164.592 132.062 165.103 131.21 165.867 130.712Z" fill="url(#paint93_linear_2459_3)"/>
<path d="M14.6179 49.5425C15.0394 48.7609 15.4727 47.9866 15.9176 47.2198C15.8933 48.193 15.3818 49.0451 14.6179 49.5425Z" fill="url(#paint94_linear_2459_3)"/>
<path d="M27.7318 31.3855C28.2142 32.2792 29.1594 32.8872 30.2475 32.889C31.8278 32.8915 33.1108 31.6143 33.1133 30.0364C33.1151 28.9498 32.5092 28.004 31.6158 27.5194C30.2805 28.7667 28.9851 30.0561 27.7318 31.3855Z" fill="url(#paint95_linear_2459_3)"/>
<path d="M47.5104 15.7727C48.4851 15.7516 49.34 15.2436 49.8405 14.4823C49.0565 14.9007 48.2797 15.3309 47.5104 15.7727Z" fill="url(#paint96_linear_2459_3)"/>
<path d="M130.886 14.6112C131.384 15.3741 132.237 15.8848 133.212 15.9091C132.444 15.4649 131.668 15.0321 130.886 14.6112Z" fill="url(#paint97_linear_2459_3)"/>
<path d="M149.069 27.7063C148.174 28.188 147.565 29.1319 147.563 30.2185C147.561 31.7964 148.84 33.0776 150.42 33.0802C151.508 33.0819 152.455 32.4769 152.94 31.5847C151.691 30.2514 150.4 28.9578 149.069 27.7063Z" fill="url(#paint98_linear_2459_3)"/>
<path d="M164.704 47.4566C164.725 48.4298 165.234 49.2835 165.996 49.7833C165.577 49.0004 165.147 48.2247 164.704 47.4566Z" fill="url(#paint99_linear_2459_3)"/>
<path d="M113.009 167.307C113.012 165.729 114.295 164.451 115.875 164.454C117.455 164.456 118.734 165.738 118.732 167.316C118.729 168.894 117.446 170.171 115.866 170.168C114.286 170.166 113.007 168.884 113.009 167.307Z" fill="url(#paint100_linear_2459_3)"/>
<path d="M95.842 167.279C95.8445 165.701 97.1276 164.424 98.7078 164.427C100.288 164.429 101.567 165.71 101.564 167.288C101.562 168.866 100.279 170.143 98.6987 170.141C97.1184 170.138 95.8394 168.857 95.842 167.279Z" fill="url(#paint101_linear_2459_3)"/>
<path d="M78.6745 167.252C78.677 165.674 79.9601 164.397 81.5403 164.399C83.1205 164.402 84.3995 165.683 84.397 167.261C84.3945 168.839 83.1114 170.116 81.5312 170.114C79.951 170.111 78.672 168.83 78.6745 167.252Z" fill="url(#paint102_linear_2459_3)"/>
<path d="M61.507 167.225C61.5095 165.647 62.7926 164.369 64.3728 164.372C65.953 164.375 67.232 165.656 67.2295 167.234C67.227 168.812 65.9439 170.089 64.3637 170.086C62.7835 170.084 61.5045 168.803 61.507 167.225Z" fill="url(#paint103_linear_2459_3)"/>
<path d="M130.204 150.191C130.207 148.613 131.49 147.336 133.07 147.338C134.65 147.341 135.929 148.622 135.927 150.2C135.924 151.778 134.641 153.055 133.061 153.053C131.481 153.05 130.202 151.769 130.204 150.191Z" fill="url(#paint104_linear_2459_3)"/>
<path d="M113.037 150.164C113.039 148.586 114.322 147.309 115.903 147.311C117.483 147.314 118.762 148.595 118.759 150.173C118.757 151.751 117.474 153.028 115.893 153.025C114.313 153.023 113.034 151.742 113.037 150.164Z" fill="url(#paint105_linear_2459_3)"/>
<path d="M95.8693 150.136C95.8718 148.558 97.1549 147.281 98.7351 147.284C100.315 147.286 101.594 148.568 101.592 150.145C101.589 151.723 100.306 153.001 98.726 152.998C97.1458 152.996 95.8668 151.714 95.8693 150.136Z" fill="url(#paint106_linear_2459_3)"/>
<path d="M78.7018 150.109C78.7044 148.531 79.9874 147.254 81.5676 147.256C83.1479 147.259 84.4268 148.54 84.4243 150.118C84.4218 151.696 83.1387 152.973 81.5585 152.971C79.9783 152.968 78.6993 151.687 78.7018 150.109Z" fill="url(#paint107_linear_2459_3)"/>
<path d="M61.5343 150.082C61.5369 148.504 62.8199 147.227 64.4001 147.229C65.9804 147.232 67.2594 148.513 67.2568 150.091C67.2543 151.669 65.9713 152.946 64.391 152.943C62.8108 152.941 61.5318 151.66 61.5343 150.082Z" fill="url(#paint108_linear_2459_3)"/>
<path d="M44.3669 150.054C44.3694 148.476 45.6524 147.199 47.2327 147.202C48.8129 147.204 50.0919 148.486 50.0894 150.064C50.0868 151.641 48.8038 152.919 47.2235 152.916C45.6433 152.914 44.3643 151.632 44.3669 150.054Z" fill="url(#paint109_linear_2459_3)"/>
<path d="M147.399 133.075C147.402 131.498 148.685 130.22 150.265 130.223C151.845 130.225 153.124 131.507 153.122 133.085C153.119 134.663 151.836 135.94 150.256 135.937C148.676 135.935 147.397 134.653 147.399 133.075Z" fill="url(#paint110_linear_2459_3)"/>
<path d="M130.232 133.048C130.234 131.47 131.517 130.193 133.097 130.196C134.678 130.198 135.957 131.479 135.954 133.057C135.952 134.635 134.669 135.912 133.088 135.91C131.508 135.907 130.229 134.626 130.232 133.048Z" fill="url(#paint111_linear_2459_3)"/>
<path d="M113.064 133.021C113.067 131.443 114.35 130.166 115.93 130.168C117.51 130.171 118.789 131.452 118.787 133.03C118.784 134.608 117.501 135.885 115.921 135.883C114.341 135.88 113.062 134.599 113.064 133.021Z" fill="url(#paint112_linear_2459_3)"/>
<path d="M95.8967 132.994C95.8992 131.416 97.1823 130.138 98.7625 130.141C100.343 130.143 101.622 131.425 101.619 133.003C101.617 134.581 100.334 135.858 98.7534 135.855C97.1731 135.853 95.8942 134.571 95.8967 132.994Z" fill="url(#paint113_linear_2459_3)"/>
<path d="M78.7292 132.966C78.7317 131.388 80.0148 130.111 81.595 130.114C83.1752 130.116 84.4542 131.397 84.4517 132.975C84.4492 134.553 83.1661 135.83 81.5859 135.828C80.0057 135.825 78.7267 134.544 78.7292 132.966Z" fill="url(#paint114_linear_2459_3)"/>
<path d="M61.5617 132.939C61.5642 131.361 62.8473 130.084 64.4275 130.086C66.0077 130.089 67.2867 131.37 67.2842 132.948C67.2817 134.526 65.9986 135.803 64.4184 135.801C62.8382 135.798 61.5592 134.517 61.5617 132.939Z" fill="url(#paint115_linear_2459_3)"/>
<path d="M44.3942 132.912C44.3967 131.334 45.6798 130.056 47.26 130.059C48.8402 130.062 50.1192 131.343 50.1167 132.921C50.1142 134.499 48.8311 135.776 47.2509 135.773C45.6707 135.771 44.3917 134.49 44.3942 132.912Z" fill="url(#paint116_linear_2459_3)"/>
<path d="M27.2267 132.884C27.2292 131.306 28.5123 130.029 30.0925 130.032C31.6728 130.034 32.9517 131.315 32.9492 132.893C32.9467 134.471 31.6636 135.748 30.0834 135.746C28.5032 135.743 27.2242 134.462 27.2267 132.884Z" fill="url(#paint117_linear_2459_3)"/>
<path d="M164.594 115.96C164.596 114.382 165.88 113.105 167.46 113.107C169.04 113.11 170.319 114.391 170.316 115.969C170.314 117.547 169.031 118.824 167.451 118.822C165.87 118.819 164.591 117.538 164.594 115.96Z" fill="url(#paint118_linear_2459_3)"/>
<path d="M147.426 115.933C147.429 114.355 148.712 113.078 150.292 113.08C151.873 113.083 153.152 114.364 153.149 115.942C153.146 117.52 151.863 118.797 150.283 118.794C148.703 118.792 147.424 117.511 147.426 115.933Z" fill="url(#paint119_linear_2459_3)"/>
<path d="M130.259 115.905C130.262 114.327 131.545 113.05 133.125 113.053C134.705 113.055 135.984 114.336 135.982 115.914C135.979 117.492 134.696 118.77 133.116 118.767C131.535 118.764 130.256 117.483 130.259 115.905Z" fill="url(#paint120_linear_2459_3)"/>
<path d="M113.092 115.878C113.094 114.3 114.377 113.023 115.957 113.025C117.538 113.028 118.817 114.309 118.814 115.887C118.811 117.465 117.528 118.742 115.948 118.74C114.368 118.737 113.089 117.456 113.092 115.878Z" fill="url(#paint121_linear_2459_3)"/>
<path d="M95.924 115.851C95.9265 114.273 97.2096 112.996 98.7898 112.998C100.37 113.001 101.649 114.282 101.647 115.86C101.644 117.438 100.361 118.715 98.7807 118.712C97.2005 118.71 95.9215 117.429 95.924 115.851Z" fill="url(#paint122_linear_2459_3)"/>
<path d="M78.7565 115.823C78.7591 114.245 80.0421 112.968 81.6224 112.971C83.2026 112.973 84.4815 114.255 84.479 115.832C84.4765 117.41 83.1935 118.688 81.6132 118.685C80.033 118.683 78.754 117.401 78.7565 115.823Z" fill="url(#paint123_linear_2459_3)"/>
<path d="M61.589 115.796C61.5916 114.218 62.8746 112.941 64.4549 112.943C66.0351 112.946 67.3141 114.227 67.3115 115.805C67.309 117.383 66.026 118.66 64.4457 118.658C62.8655 118.655 61.5865 117.374 61.589 115.796Z" fill="url(#paint124_linear_2459_3)"/>
<path d="M44.4216 115.769C44.4241 114.191 45.7071 112.914 47.2874 112.916C48.8676 112.919 50.1466 114.2 50.1441 115.778C50.1415 117.356 48.8585 118.633 47.2783 118.63C45.698 118.628 44.419 117.347 44.4216 115.769Z" fill="url(#paint125_linear_2459_3)"/>
<path d="M27.2541 115.741C27.2566 114.163 28.5397 112.886 30.1199 112.889C31.7001 112.891 32.9791 114.173 32.9766 115.751C32.9741 117.328 31.691 118.606 30.1108 118.603C28.5305 118.601 27.2516 117.319 27.2541 115.741Z" fill="url(#paint126_linear_2459_3)"/>
<path d="M10.0866 115.714C10.0891 114.136 11.3722 112.859 12.9524 112.862C14.5326 112.864 15.8116 114.145 15.8091 115.723C15.8066 117.301 14.5235 118.578 12.9433 118.576C11.3631 118.573 10.0841 117.292 10.0866 115.714Z" fill="url(#paint127_linear_2459_3)"/>
<path d="M164.621 98.8171C164.624 97.2392 165.907 95.962 167.487 95.9645C169.067 95.967 170.346 97.2483 170.344 98.8262C170.341 100.404 169.058 101.681 167.478 101.679C165.898 101.676 164.619 100.395 164.621 98.8171Z" fill="url(#paint128_linear_2459_3)"/>
<path d="M147.454 98.7898C147.456 97.2118 148.739 95.9347 150.32 95.9372C151.9 95.9397 153.179 97.2209 153.176 98.7989C153.174 100.377 151.891 101.654 150.311 101.651C148.73 101.649 147.451 100.368 147.454 98.7898Z" fill="url(#paint129_linear_2459_3)"/>
<path d="M130.286 98.7625C130.289 97.1845 131.572 95.9074 133.152 95.9099C134.732 95.9124 136.011 97.1936 136.009 98.7716C136.006 100.35 134.723 101.627 133.143 101.624C131.563 101.622 130.284 100.34 130.286 98.7625Z" fill="url(#paint130_linear_2459_3)"/>
<path d="M113.119 98.7352C113.121 97.1572 114.404 95.8801 115.985 95.8826C117.565 95.8851 118.844 97.1663 118.841 98.7443C118.839 100.322 117.556 101.599 115.976 101.597C114.395 101.594 113.116 100.313 113.119 98.7352Z" fill="url(#paint131_linear_2459_3)"/>
<path d="M95.9514 98.7079C95.9539 97.1299 97.237 95.8528 98.8172 95.8553C100.397 95.8578 101.676 97.139 101.674 98.717C101.671 100.295 100.388 101.572 98.8081 101.57C97.2278 101.567 95.9489 100.286 95.9514 98.7079Z" fill="url(#paint132_linear_2459_3)"/>
<path d="M78.7839 98.6805C78.7864 97.1026 80.0695 95.8254 81.6497 95.828C83.2299 95.8305 84.5089 97.1117 84.5064 98.6896C84.5039 100.268 83.2208 101.545 81.6406 101.542C80.0604 101.54 78.7814 100.258 78.7839 98.6805Z" fill="url(#paint133_linear_2459_3)"/>
<path d="M61.6164 98.6532C61.6189 97.0753 62.902 95.7981 64.4822 95.8006C66.0624 95.8032 67.3414 97.0844 67.3389 98.6623C67.3364 100.24 66.0533 101.517 64.4731 101.515C62.8929 101.512 61.6139 100.231 61.6164 98.6532Z" fill="url(#paint134_linear_2459_3)"/>
<path d="M44.4489 98.6259C44.4514 97.048 45.7345 95.7708 47.3147 95.7733C48.8949 95.7758 50.1739 97.0571 50.1714 98.635C50.1689 100.213 48.8858 101.49 47.3056 101.488C45.7254 101.485 44.4464 100.204 44.4489 98.6259Z" fill="url(#paint135_linear_2459_3)"/>
<path d="M27.2814 98.5986C27.2839 97.0207 28.567 95.7435 30.1472 95.746C31.7275 95.7485 33.0064 97.0298 33.0039 98.6077C33.0014 100.186 31.7183 101.463 30.1381 101.46C28.5579 101.458 27.2789 100.177 27.2814 98.5986Z" fill="url(#paint136_linear_2459_3)"/>
<path d="M10.1139 98.5713C10.1165 96.9933 11.3995 95.7162 12.9798 95.7187C14.56 95.7212 15.839 97.0024 15.8364 98.5804C15.8339 100.158 14.5509 101.436 12.9706 101.433C11.3904 101.43 10.1114 100.149 10.1139 98.5713Z" fill="url(#paint137_linear_2459_3)"/>
<path d="M164.649 81.6743C164.651 80.0963 165.934 78.8192 167.514 78.8217C169.095 78.8242 170.374 80.1054 170.371 81.6834C170.369 83.2613 169.086 84.5385 167.505 84.536C165.925 84.5334 164.646 83.2522 164.649 81.6743Z" fill="url(#paint138_linear_2459_3)"/>
<path d="M147.481 81.647C147.484 80.069 148.767 78.7919 150.347 78.7944C151.927 78.7969 153.206 80.0781 153.204 81.6561C153.201 83.234 151.918 84.5112 150.338 84.5086C148.758 84.5061 147.479 83.2249 147.481 81.647Z" fill="url(#paint139_linear_2459_3)"/>
<path d="M130.314 81.6197C130.316 80.0417 131.599 78.7645 133.18 78.7671C134.76 78.7696 136.039 80.0508 136.036 81.6288C136.034 83.2067 134.751 84.4838 133.17 84.4813C131.59 84.4788 130.311 83.1976 130.314 81.6197Z" fill="url(#paint140_linear_2459_3)"/>
<path d="M113.146 81.5923C113.149 80.0144 114.432 78.7372 116.012 78.7397C117.592 78.7423 118.871 80.0235 118.869 81.6014C118.866 83.1794 117.583 84.4565 116.003 84.454C114.423 84.4515 113.144 83.1703 113.146 81.5923Z" fill="url(#paint141_linear_2459_3)"/>
<path d="M95.9787 81.565C95.9812 79.9871 97.2643 78.7099 98.8445 78.7124C100.425 78.7149 101.704 79.9962 101.701 81.5741C101.699 83.1521 100.416 84.4292 98.8354 84.4267C97.2552 84.4242 95.9762 83.143 95.9787 81.565Z" fill="url(#paint142_linear_2459_3)"/>
<path d="M78.8112 81.5377C78.8138 79.9598 80.0968 78.6826 81.6771 78.6851C83.2573 78.6876 84.5363 79.9689 84.5337 81.5468C84.5312 83.1248 83.2482 84.4019 81.6679 84.3994C80.0877 84.3969 78.8087 83.1157 78.8112 81.5377Z" fill="url(#paint143_linear_2459_3)"/>
<path d="M61.6438 81.5104C61.6463 79.9324 62.9293 78.6553 64.5096 78.6578C66.0898 78.6603 67.3688 79.9416 67.3663 81.5195C67.3637 83.0975 66.0807 84.3746 64.5004 84.3721C62.9202 84.3696 61.6412 83.0884 61.6438 81.5104Z" fill="url(#paint144_linear_2459_3)"/>
<path d="M44.4763 81.4831C44.4788 79.9051 45.7619 78.628 47.3421 78.6305C48.9223 78.633 50.2013 79.9142 50.1988 81.4922C50.1962 83.0701 48.9132 84.3473 47.333 84.3448C45.7527 84.3423 44.4737 83.061 44.4763 81.4831Z" fill="url(#paint145_linear_2459_3)"/>
<path d="M27.3088 81.4558C27.3113 79.8778 28.5944 78.6007 30.1746 78.6032C31.7548 78.6057 33.0338 79.8869 33.0313 81.4649C33.0288 83.0428 31.7457 84.32 30.1655 84.3175C28.5853 84.3149 27.3063 83.0337 27.3088 81.4558Z" fill="url(#paint146_linear_2459_3)"/>
<path d="M10.1413 81.4285C10.1438 79.8505 11.4269 78.5734 13.0071 78.5759C14.5873 78.5784 15.8663 79.8596 15.8638 81.4376C15.8613 83.0155 14.5782 84.2927 12.998 84.2901C11.4178 84.2876 10.1388 83.0064 10.1413 81.4285Z" fill="url(#paint147_linear_2459_3)"/>
<path d="M164.676 64.5314C164.679 62.9535 165.962 61.6763 167.542 61.6788C169.122 61.6814 170.401 62.9626 170.399 64.5405C170.396 66.1185 169.113 67.3956 167.533 67.3931C165.953 67.3906 164.674 66.1094 164.676 64.5314Z" fill="url(#paint148_linear_2459_3)"/>
<path d="M147.509 64.5041C147.511 62.9262 148.794 61.649 150.374 61.6515C151.955 61.6541 153.234 62.9353 153.231 64.5132C153.229 66.0912 151.945 67.3683 150.365 67.3658C148.785 67.3633 147.506 66.0821 147.509 64.5041Z" fill="url(#paint149_linear_2459_3)"/>
<path d="M130.341 64.4768C130.344 62.8989 131.627 61.6217 133.207 61.6242C134.787 61.6267 136.066 62.908 136.064 64.4859C136.061 66.0639 134.778 67.341 133.198 67.3385C131.618 67.336 130.339 66.0548 130.341 64.4768Z" fill="url(#paint150_linear_2459_3)"/>
<path d="M113.174 64.4495C113.176 62.8715 114.459 61.5944 116.039 61.5969C117.62 61.5994 118.899 62.8806 118.896 64.4586C118.894 66.0366 117.61 67.3137 116.03 67.3112C114.45 67.3087 113.171 66.0274 113.174 64.4495Z" fill="url(#paint151_linear_2459_3)"/>
<path d="M96.0061 64.4222C96.0086 62.8442 97.2917 61.5671 98.8719 61.5696C100.452 61.5721 101.731 62.8533 101.729 64.4313C101.726 66.0092 100.443 67.2864 98.8628 67.2839C97.2826 67.2814 96.0036 66.0001 96.0061 64.4222Z" fill="url(#paint152_linear_2459_3)"/>
<path d="M78.8386 64.3949C78.8411 62.8169 80.1242 61.5398 81.7044 61.5423C83.2846 61.5448 84.5636 62.826 84.5611 64.404C84.5586 65.9819 83.2755 67.2591 81.6953 67.2566C80.1151 67.254 78.8361 65.9728 78.8386 64.3949Z" fill="url(#paint153_linear_2459_3)"/>
<path d="M61.6711 64.3676C61.6736 62.7896 62.9567 61.5125 64.5369 61.515C66.1171 61.5175 67.3961 62.7987 67.3936 64.3767C67.3911 65.9546 66.108 67.2318 64.5278 67.2293C62.9476 67.2267 61.6686 65.9455 61.6711 64.3676Z" fill="url(#paint154_linear_2459_3)"/>
<path d="M44.5036 64.3402C44.5061 62.7623 45.7892 61.4851 47.3694 61.4877C48.9496 61.4902 50.2286 62.7714 50.2261 64.3493C50.2236 65.9273 48.9405 67.2045 47.3603 67.2019C45.7801 67.1994 44.5011 65.9182 44.5036 64.3402Z" fill="url(#paint155_linear_2459_3)"/>
<path d="M27.3361 64.3129C27.3386 62.735 28.6217 61.4578 30.2019 61.4603C31.7822 61.4629 33.0612 62.7441 33.0586 64.322C33.0561 65.9 31.773 67.1771 30.1928 67.1746C28.6126 67.1721 27.3336 65.8909 27.3361 64.3129Z" fill="url(#paint156_linear_2459_3)"/>
<path d="M10.1686 64.2856C10.1712 62.7077 11.4542 61.4305 13.0345 61.433C14.6147 61.4355 15.8937 62.7168 15.8911 64.2947C15.8886 65.8727 14.6056 67.1498 13.0253 67.1473C11.4451 67.1448 10.1661 65.8636 10.1686 64.2856Z" fill="url(#paint157_linear_2459_3)"/>
<path d="M147.536 47.3613C147.538 45.7833 148.821 44.5062 150.402 44.5087C151.982 44.5112 153.261 45.7924 153.258 47.3704C153.256 48.9483 151.973 50.2255 150.393 50.223C148.812 50.2205 147.533 48.9392 147.536 47.3613Z" fill="url(#paint158_linear_2459_3)"/>
<path d="M130.368 47.334C130.371 45.756 131.654 44.4789 133.234 44.4814C134.814 44.4839 136.093 45.7651 136.091 47.3431C136.088 48.921 134.805 50.1982 133.225 50.1957C131.645 50.1932 130.366 48.9119 130.368 47.334Z" fill="url(#paint159_linear_2459_3)"/>
<path d="M113.201 47.3067C113.203 45.7287 114.487 44.4516 116.067 44.4541C117.647 44.4566 118.926 45.7378 118.923 47.3158C118.921 48.8937 117.638 50.1709 116.058 50.1684C114.477 50.1658 113.198 48.8846 113.201 47.3067Z" fill="url(#paint160_linear_2459_3)"/>
<path d="M96.0334 47.2793C96.0359 45.7014 97.319 44.4242 98.8992 44.4268C100.479 44.4293 101.758 45.7105 101.756 47.2885C101.753 48.8664 100.47 50.1436 98.8901 50.141C97.3099 50.1385 96.0309 48.8573 96.0334 47.2793Z" fill="url(#paint161_linear_2459_3)"/>
<path d="M78.8659 47.252C78.8685 45.6741 80.1515 44.3969 81.7318 44.3994C83.312 44.402 84.591 45.6832 84.5884 47.2611C84.5859 48.8391 83.3029 50.1162 81.7226 50.1137C80.1424 50.1112 78.8634 48.83 78.8659 47.252Z" fill="url(#paint162_linear_2459_3)"/>
<path d="M61.6985 47.2247C61.701 45.6468 62.984 44.3696 64.5643 44.3721C66.1445 44.3746 67.4235 45.6559 67.421 47.2338C67.4184 48.8118 66.1354 50.0889 64.5551 50.0864C62.9749 50.0839 61.6959 48.8027 61.6985 47.2247Z" fill="url(#paint163_linear_2459_3)"/>
<path d="M44.531 47.1974C44.5335 45.6195 45.8166 44.3423 47.3968 44.3448C48.977 44.3473 50.256 45.6286 50.2535 47.2065C50.251 48.7845 48.9679 50.0616 47.3877 50.0591C45.8074 50.0566 44.5284 48.7754 44.531 47.1974Z" fill="url(#paint164_linear_2459_3)"/>
<path d="M27.3635 47.1701C27.366 45.5921 28.6491 44.315 30.2293 44.3175C31.8095 44.32 33.0885 45.6012 33.086 47.1792C33.0835 48.7572 31.8004 50.0343 30.2202 50.0318C28.64 50.0293 27.361 48.748 27.3635 47.1701Z" fill="url(#paint165_linear_2459_3)"/>
<path d="M130.396 30.1911C130.398 28.6132 131.681 27.336 133.262 27.3386C134.842 27.3411 136.121 28.6223 136.118 30.2002C136.116 31.7782 134.833 33.0554 133.252 33.0528C131.672 33.0503 130.393 31.7691 130.396 30.1911Z" fill="url(#paint166_linear_2459_3)"/>
<path d="M113.228 30.1638C113.231 28.5859 114.514 27.3087 116.094 27.3112C117.674 27.3138 118.953 28.595 118.951 30.1729C118.948 31.7509 117.665 33.028 116.085 33.0255C114.505 33.023 113.226 31.7418 113.228 30.1638Z" fill="url(#paint167_linear_2459_3)"/>
<path d="M96.0608 30.1365C96.0633 28.5586 97.3464 27.2814 98.9266 27.2839C100.507 27.2864 101.786 28.5677 101.783 30.1456C101.781 31.7236 100.498 33.0007 98.9175 32.9982C97.3373 32.9957 96.0583 31.7145 96.0608 30.1365Z" fill="url(#paint168_linear_2459_3)"/>
<path d="M78.8933 30.1092C78.8958 28.5313 80.1789 27.2541 81.7591 27.2566C83.3393 27.2591 84.6183 28.5404 84.6158 30.1183C84.6133 31.6963 83.3302 32.9734 81.75 32.9709C80.1698 32.9684 78.8908 31.6872 78.8933 30.1092Z" fill="url(#paint169_linear_2459_3)"/>
<path d="M61.7258 30.0819C61.7283 28.5039 63.0114 27.2268 64.5916 27.2293C66.1718 27.2318 67.4508 28.513 67.4483 30.091C67.4458 31.6689 66.1627 32.9461 64.5825 32.9436C63.0023 32.9411 61.7233 31.6598 61.7258 30.0819Z" fill="url(#paint170_linear_2459_3)"/>
<path d="M44.5583 30.0546C44.5608 28.4766 45.8439 27.1995 47.4241 27.202C49.0044 27.2045 50.2833 28.4857 50.2808 30.0637C50.2783 31.6416 48.9952 32.9188 47.415 32.9163C45.8348 32.9138 44.5558 31.6325 44.5583 30.0546Z" fill="url(#paint171_linear_2459_3)"/>
<path d="M113.256 13.021C113.258 11.443 114.541 10.1659 116.121 10.1684C117.702 10.1709 118.981 11.4522 118.978 13.0301C118.976 14.6081 117.693 15.8852 116.112 15.8827C114.532 15.8802 113.253 14.599 113.256 13.021Z" fill="url(#paint172_linear_2459_3)"/>
<path d="M96.0881 12.9937C96.0907 11.4157 97.3737 10.1386 98.9539 10.1411C100.534 10.1436 101.813 11.4248 101.811 13.0028C101.808 14.5807 100.525 15.8579 98.9448 15.8554C97.3646 15.8529 96.0856 14.5716 96.0881 12.9937Z" fill="url(#paint173_linear_2459_3)"/>
<path d="M78.9207 12.9664C78.9232 11.3884 80.2062 10.1113 81.7865 10.1138C83.3667 10.1163 84.6457 11.3975 84.6431 12.9755C84.6406 14.5534 83.3576 15.8306 81.7773 15.8281C80.1971 15.8255 78.9181 14.5443 78.9207 12.9664Z" fill="url(#paint174_linear_2459_3)"/>
<path d="M61.7532 12.9391C61.7557 11.3611 63.0387 10.084 64.619 10.0865C66.1992 10.089 67.4782 11.3702 67.4757 12.9482C67.4731 14.5261 66.1901 15.8033 64.6098 15.8007C63.0296 15.7982 61.7506 14.517 61.7532 12.9391Z" fill="url(#paint175_linear_2459_3)"/>
<defs>
<filter id="filter0_f_2459_3" x="0.0865479" y="0.0864868" width="180.312" height="180.082" filterUnits="userSpaceOnUse" color-interpolation-filters="sRGB">
<feFlood flood-opacity="0" result="BackgroundImageFix"/>
<feBlend mode="normal" in="SourceGraphic" in2="BackgroundImageFix" result="shape"/>
<feGaussianBlur stdDeviation="5" result="effect1_foregroundBlur_2459_3"/>
</filter>
<linearGradient id="paint0_linear_2459_3" x1="71.7014" y1="-5.36894" x2="135.109" y2="157.194" gradientUnits="userSpaceOnUse">
<stop stop-color="white"/>
<stop offset="1" stop-color="white" stop-opacity="0"/>
</linearGradient>
<linearGradient id="paint1_linear_2459_3" x1="71.7014" y1="-5.36894" x2="135.109" y2="157.194" gradientUnits="userSpaceOnUse">
<stop stop-color="white"/>
<stop offset="1" stop-color="white" stop-opacity="0"/>
</linearGradient>
<linearGradient id="paint2_linear_2459_3" x1="71.7014" y1="-5.36894" x2="135.109" y2="157.194" gradientUnits="userSpaceOnUse">
<stop stop-color="white"/>
<stop offset="1" stop-color="white" stop-opacity="0"/>
</linearGradient>
<linearGradient id="paint3_linear_2459_3" x1="71.7014" y1="-5.36894" x2="135.109" y2="157.194" gradientUnits="userSpaceOnUse">
<stop stop-color="white"/>
<stop offset="1" stop-color="white" stop-opacity="0"/>
</linearGradient>
<linearGradient id="paint4_linear_2459_3" x1="71.7014" y1="-5.36894" x2="135.109" y2="157.194" gradientUnits="userSpaceOnUse">
<stop stop-color="white"/>
<stop offset="1" stop-color="white" stop-opacity="0"/>
</linearGradient>
<linearGradient id="paint5_linear_2459_3" x1="71.7014" y1="-5.36894" x2="135.109" y2="157.194" gradientUnits="userSpaceOnUse">
<stop stop-color="white"/>
<stop offset="1" stop-color="white" stop-opacity="0"/>
</linearGradient>
<linearGradient id="paint6_linear_2459_3" x1="71.7014" y1="-5.36894" x2="135.109" y2="157.194" gradientUnits="userSpaceOnUse">
<stop stop-color="white"/>
<stop offset="1" stop-color="white" stop-opacity="0"/>
</linearGradient>
<linearGradient id="paint7_linear_2459_3" x1="71.7014" y1="-5.36894" x2="135.109" y2="157.194" gradientUnits="userSpaceOnUse">
<stop stop-color="white"/>
<stop offset="1" stop-color="white" stop-opacity="0"/>
</linearGradient>
<linearGradient id="paint8_linear_2459_3" x1="71.7014" y1="-5.36894" x2="135.109" y2="157.194" gradientUnits="userSpaceOnUse">
<stop stop-color="white"/>
<stop offset="1" stop-color="white" stop-opacity="0"/>
</linearGradient>
<linearGradient id="paint9_linear_2459_3" x1="71.7014" y1="-5.36894" x2="135.109" y2="157.194" gradientUnits="userSpaceOnUse">
<stop stop-color="white"/>
<stop offset="1" stop-color="white" stop-opacity="0"/>
</linearGradient>
<linearGradient id="paint10_linear_2459_3" x1="71.7014" y1="-5.36894" x2="135.109" y2="157.194" gradientUnits="userSpaceOnUse">
<stop stop-color="white"/>
<stop offset="1" stop-color="white" stop-opacity="0"/>
</linearGradient>
<linearGradient id="paint11_linear_2459_3" x1="71.7014" y1="-5.36894" x2="135.109" y2="157.194" gradientUnits="userSpaceOnUse">
<stop stop-color="white"/>
<stop offset="1" stop-color="white" stop-opacity="0"/>
</linearGradient>
<linearGradient id="paint12_linear_2459_3" x1="71.7014" y1="-5.36894" x2="135.109" y2="157.194" gradientUnits="userSpaceOnUse">
<stop stop-color="white"/>
<stop offset="1" stop-color="white" stop-opacity="0"/>
</linearGradient>
<linearGradient id="paint13_linear_2459_3" x1="71.7014" y1="-5.36894" x2="135.109" y2="157.194" gradientUnits="userSpaceOnUse">
<stop stop-color="white"/>
<stop offset="1" stop-color="white" stop-opacity="0"/>
</linearGradient>
<linearGradient id="paint14_linear_2459_3" x1="71.7014" y1="-5.36894" x2="135.109" y2="157.194" gradientUnits="userSpaceOnUse">
<stop stop-color="white"/>
<stop offset="1" stop-color="white" stop-opacity="0"/>
</linearGradient>
<linearGradient id="paint15_linear_2459_3" x1="71.7014" y1="-5.36894" x2="135.109" y2="157.194" gradientUnits="userSpaceOnUse">
<stop stop-color="white"/>
<stop offset="1" stop-color="white" stop-opacity="0"/>
</linearGradient>
<linearGradient id="paint16_linear_2459_3" x1="71.7014" y1="-5.36894" x2="135.109" y2="157.194" gradientUnits="userSpaceOnUse">
<stop stop-color="white"/>
<stop offset="1" stop-color="white" stop-opacity="0"/>
</linearGradient>
<linearGradient id="paint17_linear_2459_3" x1="71.7014" y1="-5.36894" x2="135.109" y2="157.194" gradientUnits="userSpaceOnUse">
<stop stop-color="white"/>
<stop offset="1" stop-color="white" stop-opacity="0"/>
</linearGradient>
<linearGradient id="paint18_linear_2459_3" x1="71.7014" y1="-5.36894" x2="135.109" y2="157.194" gradientUnits="userSpaceOnUse">
<stop stop-color="white"/>
<stop offset="1" stop-color="white" stop-opacity="0"/>
</linearGradient>
<linearGradient id="paint19_linear_2459_3" x1="71.7014" y1="-5.36894" x2="135.109" y2="157.194" gradientUnits="userSpaceOnUse">
<stop stop-color="white"/>
<stop offset="1" stop-color="white" stop-opacity="0"/>
</linearGradient>
<linearGradient id="paint20_linear_2459_3" x1="71.7014" y1="-5.36894" x2="135.109" y2="157.194" gradientUnits="userSpaceOnUse">
<stop stop-color="white"/>
<stop offset="1" stop-color="white" stop-opacity="0"/>
</linearGradient>
<linearGradient id="paint21_linear_2459_3" x1="71.7014" y1="-5.36894" x2="135.109" y2="157.194" gradientUnits="userSpaceOnUse">
<stop stop-color="white"/>
<stop offset="1" stop-color="white" stop-opacity="0"/>
</linearGradient>
<linearGradient id="paint22_linear_2459_3" x1="71.7014" y1="-5.36894" x2="135.109" y2="157.194" gradientUnits="userSpaceOnUse">
<stop stop-color="white"/>
<stop offset="1" stop-color="white" stop-opacity="0"/>
</linearGradient>
<linearGradient id="paint23_linear_2459_3" x1="71.7014" y1="-5.36894" x2="135.109" y2="157.194" gradientUnits="userSpaceOnUse">
<stop stop-color="white"/>
<stop offset="1" stop-color="white" stop-opacity="0"/>
</linearGradient>
<linearGradient id="paint24_linear_2459_3" x1="71.7014" y1="-5.36894" x2="135.109" y2="157.194" gradientUnits="userSpaceOnUse">
<stop stop-color="white"/>
<stop offset="1" stop-color="white" stop-opacity="0"/>
</linearGradient>
<linearGradient id="paint25_linear_2459_3" x1="71.7014" y1="-5.36894" x2="135.109" y2="157.194" gradientUnits="userSpaceOnUse">
<stop stop-color="white"/>
<stop offset="1" stop-color="white" stop-opacity="0"/>
</linearGradient>
<linearGradient id="paint26_linear_2459_3" x1="71.7014" y1="-5.36894" x2="135.109" y2="157.194" gradientUnits="userSpaceOnUse">
<stop stop-color="white"/>
<stop offset="1" stop-color="white" stop-opacity="0"/>
</linearGradient>
<linearGradient id="paint27_linear_2459_3" x1="71.7014" y1="-5.36894" x2="135.109" y2="157.194" gradientUnits="userSpaceOnUse">
<stop stop-color="white"/>
<stop offset="1" stop-color="white" stop-opacity="0"/>
</linearGradient>
<linearGradient id="paint28_linear_2459_3" x1="71.7014" y1="-5.36894" x2="135.109" y2="157.194" gradientUnits="userSpaceOnUse">
<stop stop-color="white"/>
<stop offset="1" stop-color="white" stop-opacity="0"/>
</linearGradient>
<linearGradient id="paint29_linear_2459_3" x1="71.7014" y1="-5.36894" x2="135.109" y2="157.194" gradientUnits="userSpaceOnUse">
<stop stop-color="white"/>
<stop offset="1" stop-color="white" stop-opacity="0"/>
</linearGradient>
<linearGradient id="paint30_linear_2459_3" x1="71.7014" y1="-5.36894" x2="135.109" y2="157.194" gradientUnits="userSpaceOnUse">
<stop stop-color="white"/>
<stop offset="1" stop-color="white" stop-opacity="0"/>
</linearGradient>
<linearGradient id="paint31_linear_2459_3" x1="71.7014" y1="-5.36894" x2="135.109" y2="157.194" gradientUnits="userSpaceOnUse">
<stop stop-color="white"/>
<stop offset="1" stop-color="white" stop-opacity="0"/>
</linearGradient>
<linearGradient id="paint32_linear_2459_3" x1="71.7014" y1="-5.36894" x2="135.109" y2="157.194" gradientUnits="userSpaceOnUse">
<stop stop-color="white"/>
<stop offset="1" stop-color="white" stop-opacity="0"/>
</linearGradient>
<linearGradient id="paint33_linear_2459_3" x1="71.7014" y1="-5.36894" x2="135.109" y2="157.194" gradientUnits="userSpaceOnUse">
<stop stop-color="white"/>
<stop offset="1" stop-color="white" stop-opacity="0"/>
</linearGradient>
<linearGradient id="paint34_linear_2459_3" x1="71.7014" y1="-5.36894" x2="135.109" y2="157.194" gradientUnits="userSpaceOnUse">
<stop stop-color="white"/>
<stop offset="1" stop-color="white" stop-opacity="0"/>
</linearGradient>
<linearGradient id="paint35_linear_2459_3" x1="71.7014" y1="-5.36894" x2="135.109" y2="157.194" gradientUnits="userSpaceOnUse">
<stop stop-color="white"/>
<stop offset="1" stop-color="white" stop-opacity="0"/>
</linearGradient>
<linearGradient id="paint36_linear_2459_3" x1="71.7014" y1="-5.36894" x2="135.109" y2="157.194" gradientUnits="userSpaceOnUse">
<stop stop-color="white"/>
<stop offset="1" stop-color="white" stop-opacity="0"/>
</linearGradient>
<linearGradient id="paint37_linear_2459_3" x1="71.7014" y1="-5.36894" x2="135.109" y2="157.194" gradientUnits="userSpaceOnUse">
<stop stop-color="white"/>
<stop offset="1" stop-color="white" stop-opacity="0"/>
</linearGradient>
<linearGradient id="paint38_linear_2459_3" x1="71.7014" y1="-5.36894" x2="135.109" y2="157.194" gradientUnits="userSpaceOnUse">
<stop stop-color="white"/>
<stop offset="1" stop-color="white" stop-opacity="0"/>
</linearGradient>
<linearGradient id="paint39_linear_2459_3" x1="71.7014" y1="-5.36894" x2="135.109" y2="157.194" gradientUnits="userSpaceOnUse">
<stop stop-color="white"/>
<stop offset="1" stop-color="white" stop-opacity="0"/>
</linearGradient>
<linearGradient id="paint40_linear_2459_3" x1="71.7014" y1="-5.36894" x2="135.109" y2="157.194" gradientUnits="userSpaceOnUse">
<stop stop-color="white"/>
<stop offset="1" stop-color="white" stop-opacity="0"/>
</linearGradient>
<linearGradient id="paint41_linear_2459_3" x1="71.7014" y1="-5.36894" x2="135.109" y2="157.194" gradientUnits="userSpaceOnUse">
<stop stop-color="white"/>
<stop offset="1" stop-color="white" stop-opacity="0"/>
</linearGradient>
<linearGradient id="paint42_linear_2459_3" x1="71.7014" y1="-5.36894" x2="135.109" y2="157.194" gradientUnits="userSpaceOnUse">
<stop stop-color="white"/>
<stop offset="1" stop-color="white" stop-opacity="0"/>
</linearGradient>
<linearGradient id="paint43_linear_2459_3" x1="71.7014" y1="-5.36894" x2="135.109" y2="157.194" gradientUnits="userSpaceOnUse">
<stop stop-color="white"/>
<stop offset="1" stop-color="white" stop-opacity="0"/>
</linearGradient>
<linearGradient id="paint44_linear_2459_3" x1="71.7014" y1="-5.36894" x2="135.109" y2="157.194" gradientUnits="userSpaceOnUse">
<stop stop-color="white"/>
<stop offset="1" stop-color="white" stop-opacity="0"/>
</linearGradient>
<linearGradient id="paint45_linear_2459_3" x1="71.7014" y1="-5.36894" x2="135.109" y2="157.194" gradientUnits="userSpaceOnUse">
<stop stop-color="white"/>
<stop offset="1" stop-color="white" stop-opacity="0"/>
</linearGradient>
<linearGradient id="paint46_linear_2459_3" x1="71.7014" y1="-5.36894" x2="135.109" y2="157.194" gradientUnits="userSpaceOnUse">
<stop stop-color="white"/>
<stop offset="1" stop-color="white" stop-opacity="0"/>
</linearGradient>
<linearGradient id="paint47_linear_2459_3" x1="71.7014" y1="-5.36894" x2="135.109" y2="157.194" gradientUnits="userSpaceOnUse">
<stop stop-color="white"/>
<stop offset="1" stop-color="white" stop-opacity="0"/>
</linearGradient>
<linearGradient id="paint48_linear_2459_3" x1="71.7014" y1="-5.36894" x2="135.109" y2="157.194" gradientUnits="userSpaceOnUse">
<stop stop-color="white"/>
<stop offset="1" stop-color="white" stop-opacity="0"/>
</linearGradient>
<linearGradient id="paint49_linear_2459_3" x1="71.7014" y1="-5.36894" x2="135.109" y2="157.194" gradientUnits="userSpaceOnUse">
<stop stop-color="white"/>
<stop offset="1" stop-color="white" stop-opacity="0"/>
</linearGradient>
<linearGradient id="paint50_linear_2459_3" x1="71.7014" y1="-5.36894" x2="135.109" y2="157.194" gradientUnits="userSpaceOnUse">
<stop stop-color="white"/>
<stop offset="1" stop-color="white" stop-opacity="0"/>
</linearGradient>
<linearGradient id="paint51_linear_2459_3" x1="71.7014" y1="-5.36894" x2="135.109" y2="157.194" gradientUnits="userSpaceOnUse">
<stop stop-color="white"/>
<stop offset="1" stop-color="white" stop-opacity="0"/>
</linearGradient>
<linearGradient id="paint52_linear_2459_3" x1="71.7014" y1="-5.36894" x2="135.109" y2="157.194" gradientUnits="userSpaceOnUse">
<stop stop-color="white"/>
<stop offset="1" stop-color="white" stop-opacity="0"/>
</linearGradient>
<linearGradient id="paint53_linear_2459_3" x1="71.7014" y1="-5.36894" x2="135.109" y2="157.194" gradientUnits="userSpaceOnUse">
<stop stop-color="white"/>
<stop offset="1" stop-color="white" stop-opacity="0"/>
</linearGradient>
<linearGradient id="paint54_linear_2459_3" x1="71.7014" y1="-5.36894" x2="135.109" y2="157.194" gradientUnits="userSpaceOnUse">
<stop stop-color="white"/>
<stop offset="1" stop-color="white" stop-opacity="0"/>
</linearGradient>
<linearGradient id="paint55_linear_2459_3" x1="71.7014" y1="-5.36894" x2="135.109" y2="157.194" gradientUnits="userSpaceOnUse">
<stop stop-color="white"/>
<stop offset="1" stop-color="white" stop-opacity="0"/>
</linearGradient>
<linearGradient id="paint56_linear_2459_3" x1="71.7014" y1="-5.36894" x2="135.109" y2="157.194" gradientUnits="userSpaceOnUse">
<stop stop-color="white"/>
<stop offset="1" stop-color="white" stop-opacity="0"/>
</linearGradient>
<linearGradient id="paint57_linear_2459_3" x1="71.7014" y1="-5.36894" x2="135.109" y2="157.194" gradientUnits="userSpaceOnUse">
<stop stop-color="white"/>
<stop offset="1" stop-color="white" stop-opacity="0"/>
</linearGradient>
<linearGradient id="paint58_linear_2459_3" x1="71.7014" y1="-5.36894" x2="135.109" y2="157.194" gradientUnits="userSpaceOnUse">
<stop stop-color="white"/>
<stop offset="1" stop-color="white" stop-opacity="0"/>
</linearGradient>
<linearGradient id="paint59_linear_2459_3" x1="71.7014" y1="-5.36894" x2="135.109" y2="157.194" gradientUnits="userSpaceOnUse">
<stop stop-color="white"/>
<stop offset="1" stop-color="white" stop-opacity="0"/>
</linearGradient>
<linearGradient id="paint60_linear_2459_3" x1="71.7014" y1="-5.36894" x2="135.109" y2="157.194" gradientUnits="userSpaceOnUse">
<stop stop-color="white"/>
<stop offset="1" stop-color="white" stop-opacity="0"/>
</linearGradient>
<linearGradient id="paint61_linear_2459_3" x1="71.7014" y1="-5.36894" x2="135.109" y2="157.194" gradientUnits="userSpaceOnUse">
<stop stop-color="white"/>
<stop offset="1" stop-color="white" stop-opacity="0"/>
</linearGradient>
<linearGradient id="paint62_linear_2459_3" x1="71.7014" y1="-5.36894" x2="135.109" y2="157.194" gradientUnits="userSpaceOnUse">
<stop stop-color="white"/>
<stop offset="1" stop-color="white" stop-opacity="0"/>
</linearGradient>
<linearGradient id="paint63_linear_2459_3" x1="71.7014" y1="-5.36894" x2="135.109" y2="157.194" gradientUnits="userSpaceOnUse">
<stop stop-color="white"/>
<stop offset="1" stop-color="white" stop-opacity="0"/>
</linearGradient>
<linearGradient id="paint64_linear_2459_3" x1="71.7014" y1="-5.36894" x2="135.109" y2="157.194" gradientUnits="userSpaceOnUse">
<stop stop-color="white"/>
<stop offset="1" stop-color="white" stop-opacity="0"/>
</linearGradient>
<linearGradient id="paint65_linear_2459_3" x1="71.7014" y1="-5.36894" x2="135.109" y2="157.194" gradientUnits="userSpaceOnUse">
<stop stop-color="white"/>
<stop offset="1" stop-color="white" stop-opacity="0"/>
</linearGradient>
<linearGradient id="paint66_linear_2459_3" x1="71.7014" y1="-5.36894" x2="135.109" y2="157.194" gradientUnits="userSpaceOnUse">
<stop stop-color="white"/>
<stop offset="1" stop-color="white" stop-opacity="0"/>
</linearGradient>
<linearGradient id="paint67_linear_2459_3" x1="71.7014" y1="-5.36894" x2="135.109" y2="157.194" gradientUnits="userSpaceOnUse">
<stop stop-color="white"/>
<stop offset="1" stop-color="white" stop-opacity="0"/>
</linearGradient>
<linearGradient id="paint68_linear_2459_3" x1="71.7014" y1="-5.36894" x2="135.109" y2="157.194" gradientUnits="userSpaceOnUse">
<stop stop-color="white"/>
<stop offset="1" stop-color="white" stop-opacity="0"/>
</linearGradient>
<linearGradient id="paint69_linear_2459_3" x1="71.7014" y1="-5.36894" x2="135.109" y2="157.194" gradientUnits="userSpaceOnUse">
<stop stop-color="white"/>
<stop offset="1" stop-color="white" stop-opacity="0"/>
</linearGradient>
<linearGradient id="paint70_linear_2459_3" x1="71.7014" y1="-5.36894" x2="135.109" y2="157.194" gradientUnits="userSpaceOnUse">
<stop stop-color="white"/>
<stop offset="1" stop-color="white" stop-opacity="0"/>
</linearGradient>
<linearGradient id="paint71_linear_2459_3" x1="71.7014" y1="-5.36894" x2="135.109" y2="157.194" gradientUnits="userSpaceOnUse">
<stop stop-color="white"/>
<stop offset="1" stop-color="white" stop-opacity="0"/>
</linearGradient>
<linearGradient id="paint72_linear_2459_3" x1="71.7014" y1="-5.36894" x2="135.109" y2="157.194" gradientUnits="userSpaceOnUse">
<stop stop-color="white"/>
<stop offset="1" stop-color="white" stop-opacity="0"/>
</linearGradient>
<linearGradient id="paint73_linear_2459_3" x1="71.7014" y1="-5.36894" x2="135.109" y2="157.194" gradientUnits="userSpaceOnUse">
<stop stop-color="white"/>
<stop offset="1" stop-color="white" stop-opacity="0"/>
</linearGradient>
<linearGradient id="paint74_linear_2459_3" x1="71.7014" y1="-5.36894" x2="135.109" y2="157.194" gradientUnits="userSpaceOnUse">
<stop stop-color="white"/>
<stop offset="1" stop-color="white" stop-opacity="0"/>
</linearGradient>
<linearGradient id="paint75_linear_2459_3" x1="71.7014" y1="-5.36894" x2="135.109" y2="157.194" gradientUnits="userSpaceOnUse">
<stop stop-color="white"/>
<stop offset="1" stop-color="white" stop-opacity="0"/>
</linearGradient>
<linearGradient id="paint76_linear_2459_3" x1="71.7014" y1="-5.36894" x2="135.109" y2="157.194" gradientUnits="userSpaceOnUse">
<stop stop-color="white"/>
<stop offset="1" stop-color="white" stop-opacity="0"/>
</linearGradient>
<linearGradient id="paint77_linear_2459_3" x1="71.7014" y1="-5.36894" x2="135.109" y2="157.194" gradientUnits="userSpaceOnUse">
<stop stop-color="white"/>
<stop offset="1" stop-color="white" stop-opacity="0"/>
</linearGradient>
<linearGradient id="paint78_linear_2459_3" x1="71.7014" y1="-5.36894" x2="135.109" y2="157.194" gradientUnits="userSpaceOnUse">
<stop stop-color="white"/>
<stop offset="1" stop-color="white" stop-opacity="0"/>
</linearGradient>
<linearGradient id="paint79_linear_2459_3" x1="71.7014" y1="-5.36894" x2="135.109" y2="157.194" gradientUnits="userSpaceOnUse">
<stop stop-color="white"/>
<stop offset="1" stop-color="white" stop-opacity="0"/>
</linearGradient>
<linearGradient id="paint80_linear_2459_3" x1="71.7014" y1="-5.36894" x2="135.109" y2="157.194" gradientUnits="userSpaceOnUse">
<stop stop-color="white"/>
<stop offset="1" stop-color="white" stop-opacity="0"/>
</linearGradient>
<linearGradient id="paint81_linear_2459_3" x1="71.7014" y1="-5.36894" x2="135.109" y2="157.194" gradientUnits="userSpaceOnUse">
<stop stop-color="white"/>
<stop offset="1" stop-color="white" stop-opacity="0"/>
</linearGradient>
<linearGradient id="paint82_linear_2459_3" x1="71.7014" y1="-5.36894" x2="135.109" y2="157.194" gradientUnits="userSpaceOnUse">
<stop stop-color="white"/>
<stop offset="1" stop-color="white" stop-opacity="0"/>
</linearGradient>
<linearGradient id="paint83_linear_2459_3" x1="71.7014" y1="-5.36894" x2="135.109" y2="157.194" gradientUnits="userSpaceOnUse">
<stop stop-color="white"/>
<stop offset="1" stop-color="white" stop-opacity="0"/>
</linearGradient>
<linearGradient id="paint84_linear_2459_3" x1="71.7014" y1="-5.36894" x2="135.109" y2="157.194" gradientUnits="userSpaceOnUse">
<stop stop-color="white"/>
<stop offset="1" stop-color="white" stop-opacity="0"/>
</linearGradient>
<linearGradient id="paint85_linear_2459_3" x1="71.7014" y1="-5.36894" x2="135.109" y2="157.194" gradientUnits="userSpaceOnUse">
<stop stop-color="white"/>
<stop offset="1" stop-color="white" stop-opacity="0"/>
</linearGradient>
<linearGradient id="paint86_linear_2459_3" x1="71.7014" y1="-5.36894" x2="135.109" y2="157.194" gradientUnits="userSpaceOnUse">
<stop stop-color="white"/>
<stop offset="1" stop-color="white" stop-opacity="0"/>
</linearGradient>
<linearGradient id="paint87_linear_2459_3" x1="71.7014" y1="-5.36894" x2="135.109" y2="157.194" gradientUnits="userSpaceOnUse">
<stop stop-color="white"/>
<stop offset="1" stop-color="white" stop-opacity="0"/>
</linearGradient>
<linearGradient id="paint88_linear_2459_3" x1="71.7014" y1="-5.36894" x2="135.109" y2="157.194" gradientUnits="userSpaceOnUse">
<stop stop-color="white"/>
<stop offset="1" stop-color="white" stop-opacity="0"/>
</linearGradient>
<linearGradient id="paint89_linear_2459_3" x1="71.7014" y1="-5.36894" x2="135.109" y2="157.194" gradientUnits="userSpaceOnUse">
<stop stop-color="white"/>
<stop offset="1" stop-color="white" stop-opacity="0"/>
</linearGradient>
<linearGradient id="paint90_linear_2459_3" x1="71.7014" y1="-5.36894" x2="135.109" y2="157.194" gradientUnits="userSpaceOnUse">
<stop stop-color="white"/>
<stop offset="1" stop-color="white" stop-opacity="0"/>
</linearGradient>
<linearGradient id="paint91_linear_2459_3" x1="71.7014" y1="-5.36894" x2="135.109" y2="157.194" gradientUnits="userSpaceOnUse">
<stop stop-color="white"/>
<stop offset="1" stop-color="white" stop-opacity="0"/>
</linearGradient>
<linearGradient id="paint92_linear_2459_3" x1="71.7014" y1="-5.36894" x2="135.109" y2="157.194" gradientUnits="userSpaceOnUse">
<stop stop-color="white"/>
<stop offset="1" stop-color="white" stop-opacity="0"/>
</linearGradient>
<linearGradient id="paint93_linear_2459_3" x1="71.7014" y1="-5.36894" x2="135.109" y2="157.194" gradientUnits="userSpaceOnUse">
<stop stop-color="white"/>
<stop offset="1" stop-color="white" stop-opacity="0"/>
</linearGradient>
<linearGradient id="paint94_linear_2459_3" x1="71.7014" y1="-5.36894" x2="135.109" y2="157.194" gradientUnits="userSpaceOnUse">
<stop stop-color="white"/>
<stop offset="1" stop-color="white" stop-opacity="0"/>
</linearGradient>
<linearGradient id="paint95_linear_2459_3" x1="71.7014" y1="-5.36894" x2="135.109" y2="157.194" gradientUnits="userSpaceOnUse">
<stop stop-color="white"/>
<stop offset="1" stop-color="white" stop-opacity="0"/>
</linearGradient>
<linearGradient id="paint96_linear_2459_3" x1="71.7014" y1="-5.36894" x2="135.109" y2="157.194" gradientUnits="userSpaceOnUse">
<stop stop-color="white"/>
<stop offset="1" stop-color="white" stop-opacity="0"/>
</linearGradient>
<linearGradient id="paint97_linear_2459_3" x1="71.7014" y1="-5.36894" x2="135.109" y2="157.194" gradientUnits="userSpaceOnUse">
<stop stop-color="white"/>
<stop offset="1" stop-color="white" stop-opacity="0"/>
</linearGradient>
<linearGradient id="paint98_linear_2459_3" x1="71.7014" y1="-5.36894" x2="135.109" y2="157.194" gradientUnits="userSpaceOnUse">
<stop stop-color="white"/>
<stop offset="1" stop-color="white" stop-opacity="0"/>
</linearGradient>
<linearGradient id="paint99_linear_2459_3" x1="71.7014" y1="-5.36894" x2="135.109" y2="157.194" gradientUnits="userSpaceOnUse">
<stop stop-color="white"/>
<stop offset="1" stop-color="white" stop-opacity="0"/>
</linearGradient>
<linearGradient id="paint100_linear_2459_3" x1="71.7014" y1="-5.36894" x2="135.109" y2="157.194" gradientUnits="userSpaceOnUse">
<stop stop-color="white"/>
<stop offset="1" stop-color="white" stop-opacity="0"/>
</linearGradient>
<linearGradient id="paint101_linear_2459_3" x1="71.7014" y1="-5.36894" x2="135.109" y2="157.194" gradientUnits="userSpaceOnUse">
<stop stop-color="white"/>
<stop offset="1" stop-color="white" stop-opacity="0"/>
</linearGradient>
<linearGradient id="paint102_linear_2459_3" x1="71.7014" y1="-5.36894" x2="135.109" y2="157.194" gradientUnits="userSpaceOnUse">
<stop stop-color="white"/>
<stop offset="1" stop-color="white" stop-opacity="0"/>
</linearGradient>
<linearGradient id="paint103_linear_2459_3" x1="71.7014" y1="-5.36894" x2="135.109" y2="157.194" gradientUnits="userSpaceOnUse">
<stop stop-color="white"/>
<stop offset="1" stop-color="white" stop-opacity="0"/>
</linearGradient>
<linearGradient id="paint104_linear_2459_3" x1="71.7014" y1="-5.36894" x2="135.109" y2="157.194" gradientUnits="userSpaceOnUse">
<stop stop-color="white"/>
<stop offset="1" stop-color="white" stop-opacity="0"/>
</linearGradient>
<linearGradient id="paint105_linear_2459_3" x1="71.7014" y1="-5.36894" x2="135.109" y2="157.194" gradientUnits="userSpaceOnUse">
<stop stop-color="white"/>
<stop offset="1" stop-color="white" stop-opacity="0"/>
</linearGradient>
<linearGradient id="paint106_linear_2459_3" x1="71.7014" y1="-5.36894" x2="135.109" y2="157.194" gradientUnits="userSpaceOnUse">
<stop stop-color="white"/>
<stop offset="1" stop-color="white" stop-opacity="0"/>
</linearGradient>
<linearGradient id="paint107_linear_2459_3" x1="71.7014" y1="-5.36894" x2="135.109" y2="157.194" gradientUnits="userSpaceOnUse">
<stop stop-color="white"/>
<stop offset="1" stop-color="white" stop-opacity="0"/>
</linearGradient>
<linearGradient id="paint108_linear_2459_3" x1="71.7014" y1="-5.36894" x2="135.109" y2="157.194" gradientUnits="userSpaceOnUse">
<stop stop-color="white"/>
<stop offset="1" stop-color="white" stop-opacity="0"/>
</linearGradient>
<linearGradient id="paint109_linear_2459_3" x1="71.7014" y1="-5.36894" x2="135.109" y2="157.194" gradientUnits="userSpaceOnUse">
<stop stop-color="white"/>
<stop offset="1" stop-color="white" stop-opacity="0"/>
</linearGradient>
<linearGradient id="paint110_linear_2459_3" x1="71.7014" y1="-5.36894" x2="135.109" y2="157.194" gradientUnits="userSpaceOnUse">
<stop stop-color="white"/>
<stop offset="1" stop-color="white" stop-opacity="0"/>
</linearGradient>
<linearGradient id="paint111_linear_2459_3" x1="71.7014" y1="-5.36894" x2="135.109" y2="157.194" gradientUnits="userSpaceOnUse">
<stop stop-color="white"/>
<stop offset="1" stop-color="white" stop-opacity="0"/>
</linearGradient>
<linearGradient id="paint112_linear_2459_3" x1="71.7014" y1="-5.36894" x2="135.109" y2="157.194" gradientUnits="userSpaceOnUse">
<stop stop-color="white"/>
<stop offset="1" stop-color="white" stop-opacity="0"/>
</linearGradient>
<linearGradient id="paint113_linear_2459_3" x1="71.7014" y1="-5.36894" x2="135.109" y2="157.194" gradientUnits="userSpaceOnUse">
<stop stop-color="white"/>
<stop offset="1" stop-color="white" stop-opacity="0"/>
</linearGradient>
<linearGradient id="paint114_linear_2459_3" x1="71.7014" y1="-5.36894" x2="135.109" y2="157.194" gradientUnits="userSpaceOnUse">
<stop stop-color="white"/>
<stop offset="1" stop-color="white" stop-opacity="0"/>
</linearGradient>
<linearGradient id="paint115_linear_2459_3" x1="71.7014" y1="-5.36894" x2="135.109" y2="157.194" gradientUnits="userSpaceOnUse">
<stop stop-color="white"/>
<stop offset="1" stop-color="white" stop-opacity="0"/>
</linearGradient>
<linearGradient id="paint116_linear_2459_3" x1="71.7014" y1="-5.36894" x2="135.109" y2="157.194" gradientUnits="userSpaceOnUse">
<stop stop-color="white"/>
<stop offset="1" stop-color="white" stop-opacity="0"/>
</linearGradient>
<linearGradient id="paint117_linear_2459_3" x1="71.7014" y1="-5.36894" x2="135.109" y2="157.194" gradientUnits="userSpaceOnUse">
<stop stop-color="white"/>
<stop offset="1" stop-color="white" stop-opacity="0"/>
</linearGradient>
<linearGradient id="paint118_linear_2459_3" x1="71.7014" y1="-5.36894" x2="135.109" y2="157.194" gradientUnits="userSpaceOnUse">
<stop stop-color="white"/>
<stop offset="1" stop-color="white" stop-opacity="0"/>
</linearGradient>
<linearGradient id="paint119_linear_2459_3" x1="71.7014" y1="-5.36894" x2="135.109" y2="157.194" gradientUnits="userSpaceOnUse">
<stop stop-color="white"/>
<stop offset="1" stop-color="white" stop-opacity="0"/>
</linearGradient>
<linearGradient id="paint120_linear_2459_3" x1="71.7014" y1="-5.36894" x2="135.109" y2="157.194" gradientUnits="userSpaceOnUse">
<stop stop-color="white"/>
<stop offset="1" stop-color="white" stop-opacity="0"/>
</linearGradient>
<linearGradient id="paint121_linear_2459_3" x1="71.7014" y1="-5.36894" x2="135.109" y2="157.194" gradientUnits="userSpaceOnUse">
<stop stop-color="white"/>
<stop offset="1" stop-color="white" stop-opacity="0"/>
</linearGradient>
<linearGradient id="paint122_linear_2459_3" x1="71.7014" y1="-5.36894" x2="135.109" y2="157.194" gradientUnits="userSpaceOnUse">
<stop stop-color="white"/>
<stop offset="1" stop-color="white" stop-opacity="0"/>
</linearGradient>
<linearGradient id="paint123_linear_2459_3" x1="71.7014" y1="-5.36894" x2="135.109" y2="157.194" gradientUnits="userSpaceOnUse">
<stop stop-color="white"/>
<stop offset="1" stop-color="white" stop-opacity="0"/>
</linearGradient>
<linearGradient id="paint124_linear_2459_3" x1="71.7014" y1="-5.36894" x2="135.109" y2="157.194" gradientUnits="userSpaceOnUse">
<stop stop-color="white"/>
<stop offset="1" stop-color="white" stop-opacity="0"/>
</linearGradient>
<linearGradient id="paint125_linear_2459_3" x1="71.7014" y1="-5.36894" x2="135.109" y2="157.194" gradientUnits="userSpaceOnUse">
<stop stop-color="white"/>
<stop offset="1" stop-color="white" stop-opacity="0"/>
</linearGradient>
<linearGradient id="paint126_linear_2459_3" x1="71.7014" y1="-5.36894" x2="135.109" y2="157.194" gradientUnits="userSpaceOnUse">
<stop stop-color="white"/>
<stop offset="1" stop-color="white" stop-opacity="0"/>
</linearGradient>
<linearGradient id="paint127_linear_2459_3" x1="71.7014" y1="-5.36894" x2="135.109" y2="157.194" gradientUnits="userSpaceOnUse">
<stop stop-color="white"/>
<stop offset="1" stop-color="white" stop-opacity="0"/>
</linearGradient>
<linearGradient id="paint128_linear_2459_3" x1="71.7014" y1="-5.36894" x2="135.109" y2="157.194" gradientUnits="userSpaceOnUse">
<stop stop-color="white"/>
<stop offset="1" stop-color="white" stop-opacity="0"/>
</linearGradient>
<linearGradient id="paint129_linear_2459_3" x1="71.7014" y1="-5.36894" x2="135.109" y2="157.194" gradientUnits="userSpaceOnUse">
<stop stop-color="white"/>
<stop offset="1" stop-color="white" stop-opacity="0"/>
</linearGradient>
<linearGradient id="paint130_linear_2459_3" x1="71.7014" y1="-5.36894" x2="135.109" y2="157.194" gradientUnits="userSpaceOnUse">
<stop stop-color="white"/>
<stop offset="1" stop-color="white" stop-opacity="0"/>
</linearGradient>
<linearGradient id="paint131_linear_2459_3" x1="71.7014" y1="-5.36894" x2="135.109" y2="157.194" gradientUnits="userSpaceOnUse">
<stop stop-color="white"/>
<stop offset="1" stop-color="white" stop-opacity="0"/>
</linearGradient>
<linearGradient id="paint132_linear_2459_3" x1="71.7014" y1="-5.36894" x2="135.109" y2="157.194" gradientUnits="userSpaceOnUse">
<stop stop-color="white"/>
<stop offset="1" stop-color="white" stop-opacity="0"/>
</linearGradient>
<linearGradient id="paint133_linear_2459_3" x1="71.7014" y1="-5.36894" x2="135.109" y2="157.194" gradientUnits="userSpaceOnUse">
<stop stop-color="white"/>
<stop offset="1" stop-color="white" stop-opacity="0"/>
</linearGradient>
<linearGradient id="paint134_linear_2459_3" x1="71.7014" y1="-5.36894" x2="135.109" y2="157.194" gradientUnits="userSpaceOnUse">
<stop stop-color="white"/>
<stop offset="1" stop-color="white" stop-opacity="0"/>
</linearGradient>
<linearGradient id="paint135_linear_2459_3" x1="71.7014" y1="-5.36894" x2="135.109" y2="157.194" gradientUnits="userSpaceOnUse">
<stop stop-color="white"/>
<stop offset="1" stop-color="white" stop-opacity="0"/>
</linearGradient>
<linearGradient id="paint136_linear_2459_3" x1="71.7014" y1="-5.36894" x2="135.109" y2="157.194" gradientUnits="userSpaceOnUse">
<stop stop-color="white"/>
<stop offset="1" stop-color="white" stop-opacity="0"/>
</linearGradient>
<linearGradient id="paint137_linear_2459_3" x1="71.7014" y1="-5.36894" x2="135.109" y2="157.194" gradientUnits="userSpaceOnUse">
<stop stop-color="white"/>
<stop offset="1" stop-color="white" stop-opacity="0"/>
</linearGradient>
<linearGradient id="paint138_linear_2459_3" x1="71.7014" y1="-5.36894" x2="135.109" y2="157.194" gradientUnits="userSpaceOnUse">
<stop stop-color="white"/>
<stop offset="1" stop-color="white" stop-opacity="0"/>
</linearGradient>
<linearGradient id="paint139_linear_2459_3" x1="71.7014" y1="-5.36894" x2="135.109" y2="157.194" gradientUnits="userSpaceOnUse">
<stop stop-color="white"/>
<stop offset="1" stop-color="white" stop-opacity="0"/>
</linearGradient>
<linearGradient id="paint140_linear_2459_3" x1="71.7014" y1="-5.36894" x2="135.109" y2="157.194" gradientUnits="userSpaceOnUse">
<stop stop-color="white"/>
<stop offset="1" stop-color="white" stop-opacity="0"/>
</linearGradient>
<linearGradient id="paint141_linear_2459_3" x1="71.7014" y1="-5.36894" x2="135.109" y2="157.194" gradientUnits="userSpaceOnUse">
<stop stop-color="white"/>
<stop offset="1" stop-color="white" stop-opacity="0"/>
</linearGradient>
<linearGradient id="paint142_linear_2459_3" x1="71.7014" y1="-5.36894" x2="135.109" y2="157.194" gradientUnits="userSpaceOnUse">
<stop stop-color="white"/>
<stop offset="1" stop-color="white" stop-opacity="0"/>
</linearGradient>
<linearGradient id="paint143_linear_2459_3" x1="71.7014" y1="-5.36894" x2="135.109" y2="157.194" gradientUnits="userSpaceOnUse">
<stop stop-color="white"/>
<stop offset="1" stop-color="white" stop-opacity="0"/>
</linearGradient>
<linearGradient id="paint144_linear_2459_3" x1="71.7014" y1="-5.36894" x2="135.109" y2="157.194" gradientUnits="userSpaceOnUse">
<stop stop-color="white"/>
<stop offset="1" stop-color="white" stop-opacity="0"/>
</linearGradient>
<linearGradient id="paint145_linear_2459_3" x1="71.7014" y1="-5.36894" x2="135.109" y2="157.194" gradientUnits="userSpaceOnUse">
<stop stop-color="white"/>
<stop offset="1" stop-color="white" stop-opacity="0"/>
</linearGradient>
<linearGradient id="paint146_linear_2459_3" x1="71.7014" y1="-5.36894" x2="135.109" y2="157.194" gradientUnits="userSpaceOnUse">
<stop stop-color="white"/>
<stop offset="1" stop-color="white" stop-opacity="0"/>
</linearGradient>
<linearGradient id="paint147_linear_2459_3" x1="71.7014" y1="-5.36894" x2="135.109" y2="157.194" gradientUnits="userSpaceOnUse">
<stop stop-color="white"/>
<stop offset="1" stop-color="white" stop-opacity="0"/>
</linearGradient>
<linearGradient id="paint148_linear_2459_3" x1="71.7014" y1="-5.36894" x2="135.109" y2="157.194" gradientUnits="userSpaceOnUse">
<stop stop-color="white"/>
<stop offset="1" stop-color="white" stop-opacity="0"/>
</linearGradient>
<linearGradient id="paint149_linear_2459_3" x1="71.7014" y1="-5.36894" x2="135.109" y2="157.194" gradientUnits="userSpaceOnUse">
<stop stop-color="white"/>
<stop offset="1" stop-color="white" stop-opacity="0"/>
</linearGradient>
<linearGradient id="paint150_linear_2459_3" x1="71.7014" y1="-5.36894" x2="135.109" y2="157.194" gradientUnits="userSpaceOnUse">
<stop stop-color="white"/>
<stop offset="1" stop-color="white" stop-opacity="0"/>
</linearGradient>
<linearGradient id="paint151_linear_2459_3" x1="71.7014" y1="-5.36894" x2="135.109" y2="157.194" gradientUnits="userSpaceOnUse">
<stop stop-color="white"/>
<stop offset="1" stop-color="white" stop-opacity="0"/>
</linearGradient>
<linearGradient id="paint152_linear_2459_3" x1="71.7014" y1="-5.36894" x2="135.109" y2="157.194" gradientUnits="userSpaceOnUse">
<stop stop-color="white"/>
<stop offset="1" stop-color="white" stop-opacity="0"/>
</linearGradient>
<linearGradient id="paint153_linear_2459_3" x1="71.7014" y1="-5.36894" x2="135.109" y2="157.194" gradientUnits="userSpaceOnUse">
<stop stop-color="white"/>
<stop offset="1" stop-color="white" stop-opacity="0"/>
</linearGradient>
<linearGradient id="paint154_linear_2459_3" x1="71.7014" y1="-5.36894" x2="135.109" y2="157.194" gradientUnits="userSpaceOnUse">
<stop stop-color="white"/>
<stop offset="1" stop-color="white" stop-opacity="0"/>
</linearGradient>
<linearGradient id="paint155_linear_2459_3" x1="71.7014" y1="-5.36894" x2="135.109" y2="157.194" gradientUnits="userSpaceOnUse">
<stop stop-color="white"/>
<stop offset="1" stop-color="white" stop-opacity="0"/>
</linearGradient>
<linearGradient id="paint156_linear_2459_3" x1="71.7014" y1="-5.36894" x2="135.109" y2="157.194" gradientUnits="userSpaceOnUse">
<stop stop-color="white"/>
<stop offset="1" stop-color="white" stop-opacity="0"/>
</linearGradient>
<linearGradient id="paint157_linear_2459_3" x1="71.7014" y1="-5.36894" x2="135.109" y2="157.194" gradientUnits="userSpaceOnUse">
<stop stop-color="white"/>
<stop offset="1" stop-color="white" stop-opacity="0"/>
</linearGradient>
<linearGradient id="paint158_linear_2459_3" x1="71.7014" y1="-5.36894" x2="135.109" y2="157.194" gradientUnits="userSpaceOnUse">
<stop stop-color="white"/>
<stop offset="1" stop-color="white" stop-opacity="0"/>
</linearGradient>
<linearGradient id="paint159_linear_2459_3" x1="71.7014" y1="-5.36894" x2="135.109" y2="157.194" gradientUnits="userSpaceOnUse">
<stop stop-color="white"/>
<stop offset="1" stop-color="white" stop-opacity="0"/>
</linearGradient>
<linearGradient id="paint160_linear_2459_3" x1="71.7014" y1="-5.36894" x2="135.109" y2="157.194" gradientUnits="userSpaceOnUse">
<stop stop-color="white"/>
<stop offset="1" stop-color="white" stop-opacity="0"/>
</linearGradient>
<linearGradient id="paint161_linear_2459_3" x1="71.7014" y1="-5.36894" x2="135.109" y2="157.194" gradientUnits="userSpaceOnUse">
<stop stop-color="white"/>
<stop offset="1" stop-color="white" stop-opacity="0"/>
</linearGradient>
<linearGradient id="paint162_linear_2459_3" x1="71.7014" y1="-5.36894" x2="135.109" y2="157.194" gradientUnits="userSpaceOnUse">
<stop stop-color="white"/>
<stop offset="1" stop-color="white" stop-opacity="0"/>
</linearGradient>
<linearGradient id="paint163_linear_2459_3" x1="71.7014" y1="-5.36894" x2="135.109" y2="157.194" gradientUnits="userSpaceOnUse">
<stop stop-color="white"/>
<stop offset="1" stop-color="white" stop-opacity="0"/>
</linearGradient>
<linearGradient id="paint164_linear_2459_3" x1="71.7014" y1="-5.36894" x2="135.109" y2="157.194" gradientUnits="userSpaceOnUse">
<stop stop-color="white"/>
<stop offset="1" stop-color="white" stop-opacity="0"/>
</linearGradient>
<linearGradient id="paint165_linear_2459_3" x1="71.7014" y1="-5.36894" x2="135.109" y2="157.194" gradientUnits="userSpaceOnUse">
<stop stop-color="white"/>
<stop offset="1" stop-color="white" stop-opacity="0"/>
</linearGradient>
<linearGradient id="paint166_linear_2459_3" x1="71.7014" y1="-5.36894" x2="135.109" y2="157.194" gradientUnits="userSpaceOnUse">
<stop stop-color="white"/>
<stop offset="1" stop-color="white" stop-opacity="0"/>
</linearGradient>
<linearGradient id="paint167_linear_2459_3" x1="71.7014" y1="-5.36894" x2="135.109" y2="157.194" gradientUnits="userSpaceOnUse">
<stop stop-color="white"/>
<stop offset="1" stop-color="white" stop-opacity="0"/>
</linearGradient>
<linearGradient id="paint168_linear_2459_3" x1="71.7014" y1="-5.36894" x2="135.109" y2="157.194" gradientUnits="userSpaceOnUse">
<stop stop-color="white"/>
<stop offset="1" stop-color="white" stop-opacity="0"/>
</linearGradient>
<linearGradient id="paint169_linear_2459_3" x1="71.7014" y1="-5.36894" x2="135.109" y2="157.194" gradientUnits="userSpaceOnUse">
<stop stop-color="white"/>
<stop offset="1" stop-color="white" stop-opacity="0"/>
</linearGradient>
<linearGradient id="paint170_linear_2459_3" x1="71.7014" y1="-5.36894" x2="135.109" y2="157.194" gradientUnits="userSpaceOnUse">
<stop stop-color="white"/>
<stop offset="1" stop-color="white" stop-opacity="0"/>
</linearGradient>
<linearGradient id="paint171_linear_2459_3" x1="71.7014" y1="-5.36894" x2="135.109" y2="157.194" gradientUnits="userSpaceOnUse">
<stop stop-color="white"/>
<stop offset="1" stop-color="white" stop-opacity="0"/>
</linearGradient>
<linearGradient id="paint172_linear_2459_3" x1="71.7014" y1="-5.36894" x2="135.109" y2="157.194" gradientUnits="userSpaceOnUse">
<stop stop-color="white"/>
<stop offset="1" stop-color="white" stop-opacity="0"/>
</linearGradient>
<linearGradient id="paint173_linear_2459_3" x1="71.7014" y1="-5.36894" x2="135.109" y2="157.194" gradientUnits="userSpaceOnUse">
<stop stop-color="white"/>
<stop offset="1" stop-color="white" stop-opacity="0"/>
</linearGradient>
<linearGradient id="paint174_linear_2459_3" x1="71.7014" y1="-5.36894" x2="135.109" y2="157.194" gradientUnits="userSpaceOnUse">
<stop stop-color="white"/>
<stop offset="1" stop-color="white" stop-opacity="0"/>
</linearGradient>
<linearGradient id="paint175_linear_2459_3" x1="71.7014" y1="-5.36894" x2="135.109" y2="157.194" gradientUnits="userSpaceOnUse">
<stop stop-color="white"/>
<stop offset="1" stop-color="white" stop-opacity="0"/>
</linearGradient>
</defs>
</svg>
