<svg width="1568" height="970" viewBox="0 0 1568 970" fill="none" xmlns="http://www.w3.org/2000/svg">
<g opacity="0.3">
<path d="M1325.11 858.924C1325.5 858.924 1325.89 858.765 1326.17 858.484C1326.45 858.203 1326.61 857.821 1326.61 857.424C1326.61 857.026 1326.45 856.644 1326.17 856.363C1325.89 856.082 1325.5 855.924 1325.11 855.924C1324.71 855.924 1324.33 856.082 1324.05 856.363C1323.76 856.644 1323.61 857.026 1323.61 857.424C1323.61 857.821 1323.76 858.203 1324.05 858.484C1324.33 858.765 1324.71 858.924 1325.11 858.924V858.924Z" fill="#fff"/>
<path d="M1505.48 858.924C1505.87 858.924 1506.26 858.765 1506.54 858.484C1506.82 858.203 1506.98 857.821 1506.98 857.424C1506.98 857.026 1506.82 856.644 1506.54 856.363C1506.26 856.082 1505.87 855.924 1505.48 855.924C1505.08 855.924 1504.7 856.082 1504.42 856.363C1504.13 856.644 1503.98 857.026 1503.98 857.424C1503.98 857.821 1504.13 858.203 1504.42 858.484C1504.7 858.765 1505.08 858.924 1505.48 858.924V858.924Z" fill="#fff"/>
<path d="M603.631 858.924C604.029 858.924 604.41 858.765 604.692 858.484C604.973 858.203 605.131 857.821 605.131 857.424C605.131 857.026 604.973 856.644 604.692 856.363C604.41 856.082 604.029 855.924 603.631 855.924C603.233 855.924 602.852 856.082 602.57 856.363C602.289 856.644 602.131 857.026 602.131 857.424C602.131 857.821 602.289 858.203 602.57 858.484C602.852 858.765 603.233 858.924 603.631 858.924V858.924Z" fill="#fff"/>
<path d="M1325.11 402.924C1325.5 402.924 1325.89 402.765 1326.17 402.484C1326.45 402.203 1326.61 401.821 1326.61 401.424C1326.61 401.026 1326.45 400.644 1326.17 400.363C1325.89 400.082 1325.5 399.924 1325.11 399.924C1324.71 399.924 1324.33 400.082 1324.05 400.363C1323.76 400.644 1323.61 401.026 1323.61 401.424C1323.61 401.821 1323.76 402.203 1324.05 402.484C1324.33 402.765 1324.71 402.924 1325.11 402.924V402.924Z" fill="#fff"/>
<path d="M1505.48 402.924C1505.87 402.924 1506.26 402.765 1506.54 402.484C1506.82 402.203 1506.98 401.821 1506.98 401.424C1506.98 401.026 1506.82 400.644 1506.54 400.363C1506.26 400.082 1505.87 399.924 1505.48 399.924C1505.08 399.924 1504.7 400.082 1504.42 400.363C1504.13 400.644 1503.98 401.026 1503.98 401.424C1503.98 401.821 1504.13 402.203 1504.42 402.484C1504.7 402.765 1505.08 402.924 1505.48 402.924V402.924Z" fill="#ff"/>
<path d="M603.631 402.924C604.029 402.924 604.41 402.765 604.692 402.484C604.973 402.203 605.131 401.821 605.131 401.424C605.131 401.026 604.973 400.644 604.692 400.363C604.41 400.082 604.029 399.924 603.631 399.924C603.233 399.924 602.852 400.082 602.57 400.363C602.289 400.644 602.131 401.026 602.131 401.424C602.131 401.821 602.289 402.203 602.57 402.484C602.852 402.765 603.233 402.924 603.631 402.924V402.924Z" fill="#fff"/>
<path d="M964.369 858.924C964.767 858.924 965.148 858.765 965.43 858.484C965.711 858.203 965.869 857.821 965.869 857.424C965.869 857.026 965.711 856.644 965.43 856.363C965.148 856.082 964.767 855.924 964.369 855.924C963.971 855.924 963.59 856.082 963.308 856.363C963.027 856.644 962.869 857.026 962.869 857.424C962.869 857.821 963.027 858.203 963.308 858.484C963.59 858.765 963.971 858.924 964.369 858.924V858.924Z" fill="#fff"/>
<path d="M242.893 858.924C243.291 858.924 243.672 858.765 243.954 858.484C244.235 858.203 244.393 857.821 244.393 857.424C244.393 857.026 244.235 856.644 243.954 856.363C243.672 856.082 243.291 855.924 242.893 855.924C242.495 855.924 242.114 856.082 241.832 856.363C241.551 856.644 241.393 857.026 241.393 857.424C241.393 857.821 241.551 858.203 241.832 858.484C242.114 858.765 242.495 858.924 242.893 858.924V858.924Z" fill="#fff"/>
<path d="M964.369 402.924C964.767 402.924 965.148 402.765 965.43 402.484C965.711 402.203 965.869 401.821 965.869 401.424C965.869 401.026 965.711 400.644 965.43 400.363C965.148 400.082 964.767 399.924 964.369 399.924C963.971 399.924 963.59 400.082 963.308 400.363C963.027 400.644 962.869 401.026 962.869 401.424C962.869 401.821 963.027 402.203 963.308 402.484C963.59 402.765 963.971 402.924 964.369 402.924V402.924Z" fill="#fff"/>
<path d="M242.893 402.924C243.291 402.924 243.672 402.765 243.954 402.484C244.235 402.203 244.393 401.821 244.393 401.424C244.393 401.026 244.235 400.644 243.954 400.363C243.672 400.082 243.291 399.924 242.893 399.924C242.495 399.924 242.114 400.082 241.832 400.363C241.551 400.644 241.393 401.026 241.393 401.424C241.393 401.821 241.551 402.203 241.832 402.484C242.114 402.765 242.495 402.924 242.893 402.924V402.924Z" fill="#fff"/>

<path d="M1565.6 402.924C1566 402.924 1566.38 402.765 1566.66 402.484C1566.94 402.203 1567.1 401.821 1567.1 401.424C1567.1 401.026 1566.94 400.644 1566.66 400.363C1566.38 400.082 1566 399.924 1565.6 399.924C1565.2 399.924 1564.82 400.082 1564.54 400.363C1564.26 400.644 1564.1 401.026 1564.1 401.424C1564.1 401.821 1564.26 402.203 1564.54 402.484C1564.82 402.765 1565.2 402.924 1565.6 402.924V402.924Z" fill="#fff"/>
<path d="M663.754 402.924C664.152 402.924 664.533 402.765 664.815 402.484C665.096 402.203 665.254 401.821 665.254 401.424C665.254 401.026 665.096 400.644 664.815 400.363C664.533 400.082 664.152 399.924 663.754 399.924C663.356 399.924 662.975 400.082 662.693 400.363C662.412 400.644 662.254 401.026 662.254 401.424C662.254 401.821 662.412 402.203 662.693 402.484C662.975 402.765 663.356 402.924 663.754 402.924V402.924Z" fill="#fff"/>
<path d="M1024.49 858.924C1024.89 858.924 1025.27 858.765 1025.55 858.484C1025.83 858.203 1025.99 857.821 1025.99 857.424C1025.99 857.026 1025.83 856.644 1025.55 856.363C1025.27 856.082 1024.89 855.924 1024.49 855.924C1024.09 855.924 1023.71 856.082 1023.43 856.363C1023.15 856.644 1022.99 857.026 1022.99 857.424C1022.99 857.821 1023.15 858.203 1023.43 858.484C1023.71 858.765 1024.09 858.924 1024.49 858.924V858.924Z" fill="#fff"/>
<path d="M303.016 858.924C303.414 858.924 303.795 858.765 304.077 858.484C304.358 858.203 304.516 857.821 304.516 857.424C304.516 857.026 304.358 856.644 304.077 856.363C303.795 856.082 303.414 855.924 303.016 855.924C302.618 855.924 302.237 856.082 301.955 856.363C301.674 856.644 301.516 857.026 301.516 857.424C301.516 857.821 301.674 858.203 301.955 858.484C302.237 858.765 302.618 858.924 303.016 858.924V858.924Z" fill="#fff"/>
<path d="M1024.49 402.924C1024.89 402.924 1025.27 402.765 1025.55 402.484C1025.83 402.203 1025.99 401.821 1025.99 401.424C1025.99 401.026 1025.83 400.644 1025.55 400.363C1025.27 400.082 1024.89 399.924 1024.49 399.924C1024.09 399.924 1023.71 400.082 1023.43 400.363C1023.15 400.644 1022.99 401.026 1022.99 401.424C1022.99 401.821 1023.15 402.203 1023.43 402.484C1023.71 402.765 1024.09 402.924 1024.49 402.924V402.924Z" fill="#fff"/>
<path d="M303.016 402.924C303.414 402.924 303.795 402.765 304.077 402.484C304.358 402.203 304.516 401.821 304.516 401.424C304.516 401.026 304.358 400.644 304.077 400.363C303.795 400.082 303.414 399.924 303.016 399.924C302.618 399.924 302.237 400.082 301.955 400.363C301.674 400.644 301.516 401.026 301.516 401.424C301.516 401.821 301.674 402.203 301.955 402.484C302.237 402.765 302.618 402.924 303.016 402.924V402.924Z" fill="#fff"/>
<path d="M1204.86 174.924C1205.26 174.924 1205.64 174.765 1205.92 174.484C1206.2 174.203 1206.36 173.821 1206.36 173.424C1206.36 173.026 1206.2 172.644 1205.92 172.363C1205.64 172.082 1205.26 171.924 1204.86 171.924C1204.46 171.924 1204.08 172.082 1203.8 172.363C1203.52 172.644 1203.36 173.026 1203.36 173.424C1203.36 173.821 1203.52 174.203 1203.8 174.484C1204.08 174.765 1204.46 174.924 1204.86 174.924V174.924Z" fill="#fff"/>
<path d="M483.385 174.924C483.783 174.924 484.164 174.765 484.446 174.484C484.727 174.203 484.885 173.821 484.885 173.424C484.885 173.026 484.727 172.644 484.446 172.363C484.164 172.082 483.783 171.924 483.385 171.924C482.987 171.924 482.606 172.082 482.324 172.363C482.043 172.644 481.885 173.026 481.885 173.424C481.885 173.821 482.043 174.203 482.324 174.484C482.606 174.765 482.987 174.924 483.385 174.924V174.924Z" fill="#fff"/>
<path d="M844.123 630.924C844.521 630.924 844.902 630.765 845.184 630.484C845.465 630.203 845.623 629.821 845.623 629.424C845.623 629.026 845.465 628.644 845.184 628.363C844.902 628.082 844.521 627.924 844.123 627.924C843.725 627.924 843.344 628.082 843.062 628.363C842.781 628.644 842.623 629.026 842.623 629.424C842.623 629.821 842.781 630.203 843.062 630.484C843.344 630.765 843.725 630.924 844.123 630.924V630.924Z" fill="#fff"/>
<path d="M122.647 630.924C123.045 630.924 123.426 630.765 123.708 630.484C123.989 630.203 124.147 629.821 124.147 629.424C124.147 629.026 123.989 628.644 123.708 628.363C123.426 628.082 123.045 627.924 122.647 627.924C122.249 627.924 121.868 628.082 121.586 628.363C121.305 628.644 121.147 629.026 121.147 629.424C121.147 629.821 121.305 630.203 121.586 630.484C121.868 630.765 122.249 630.924 122.647 630.924V630.924Z" fill="#FFF"/>
<path d="M844.123 174.924C844.521 174.924 844.902 174.765 845.184 174.484C845.465 174.203 845.623 173.821 845.623 173.424C845.623 173.026 845.465 172.644 845.184 172.363C844.902 172.082 844.521 171.924 844.123 171.924C843.725 171.924 843.344 172.082 843.062 172.363C842.781 172.644 842.623 173.026 842.623 173.424C842.623 173.821 842.781 174.203 843.062 174.484C843.344 174.765 843.725 174.924 844.123 174.924V174.924Z" fill="#FFF"/>
<path d="M122.647 174.924C123.045 174.924 123.426 174.765 123.708 174.484C123.989 174.203 124.147 173.821 124.147 173.424C124.147 173.026 123.989 172.644 123.708 172.363C123.426 172.082 123.045 171.924 122.647 171.924C122.249 171.924 121.868 172.082 121.586 172.363C121.305 172.644 121.147 173.026 121.147 173.424C121.147 173.821 121.305 174.203 121.586 174.484C121.868 174.765 122.249 174.924 122.647 174.924V174.924Z" fill="#FFF"/>
<path d="M1264.98 858.924C1265.38 858.924 1265.76 858.765 1266.04 858.484C1266.33 858.203 1266.48 857.821 1266.48 857.424C1266.48 857.026 1266.33 856.644 1266.04 856.363C1265.76 856.082 1265.38 855.924 1264.98 855.924C1264.59 855.924 1264.2 856.082 1263.92 856.363C1263.64 856.644 1263.48 857.026 1263.48 857.424C1263.48 857.821 1263.64 858.203 1263.92 858.484C1264.2 858.765 1264.59 858.924 1264.98 858.924V858.924Z" fill="#FFF"/>
<path d="M1445.35 858.924C1445.75 858.924 1446.13 858.765 1446.41 858.484C1446.69 858.203 1446.85 857.821 1446.85 857.424C1446.85 857.026 1446.69 856.644 1446.41 856.363C1446.13 856.082 1445.75 855.924 1445.35 855.924C1444.95 855.924 1444.57 856.082 1444.29 856.363C1444.01 856.644 1443.85 857.026 1443.85 857.424C1443.85 857.821 1444.01 858.203 1444.29 858.484C1444.57 858.765 1444.95 858.924 1445.35 858.924V858.924Z" fill="#FFF"/>
<path d="M543.508 858.924C543.906 858.924 544.287 858.765 544.569 858.484C544.85 858.203 545.008 857.821 545.008 857.424C545.008 857.026 544.85 856.644 544.569 856.363C544.287 856.082 543.906 855.924 543.508 855.924C543.11 855.924 542.729 856.082 542.447 856.363C542.166 856.644 542.008 857.026 542.008 857.424C542.008 857.821 542.166 858.203 542.447 858.484C542.729 858.765 543.11 858.924 543.508 858.924V858.924Z" fill="#FFF"/>
<path d="M904.246 174.924C904.644 174.924 905.025 174.765 905.307 174.484C905.588 174.203 905.746 173.821 905.746 173.424C905.746 173.026 905.588 172.644 905.307 172.363C905.025 172.082 904.644 171.924 904.246 171.924C903.848 171.924 903.466 172.082 903.185 172.363C902.904 172.644 902.746 173.026 902.746 173.424C902.746 173.821 902.904 174.203 903.185 174.484C903.466 174.765 903.848 174.924 904.246 174.924V174.924Z" fill="#FFF"/>
<path d="M182.77 174.924C183.168 174.924 183.549 174.765 183.831 174.484C184.112 174.203 184.27 173.821 184.27 173.424C184.27 173.026 184.112 172.644 183.831 172.363C183.549 172.082 183.168 171.924 182.77 171.924C182.372 171.924 181.991 172.082 181.709 172.363C181.428 172.644 181.27 173.026 181.27 173.424C181.27 173.821 181.428 174.203 181.709 174.484C181.991 174.765 182.372 174.924 182.77 174.924V174.924Z" fill="#FFF"/>
<path d="M1084.61 858.924C1085.01 858.924 1085.39 858.765 1085.68 858.484C1085.96 858.203 1086.11 857.821 1086.11 857.424C1086.11 857.026 1085.96 856.644 1085.68 856.363C1085.39 856.082 1085.01 855.924 1084.61 855.924C1084.22 855.924 1083.84 856.082 1083.55 856.363C1083.27 856.644 1083.11 857.026 1083.11 857.424C1083.11 857.821 1083.27 858.203 1083.55 858.484C1083.84 858.765 1084.22 858.924 1084.61 858.924V858.924Z" fill="#FFF"/>
<path d="M363.139 858.924C363.537 858.924 363.918 858.765 364.2 858.484C364.481 858.203 364.639 857.821 364.639 857.424C364.639 857.026 364.481 856.644 364.2 856.363C363.918 856.082 363.537 855.924 363.139 855.924C362.741 855.924 362.36 856.082 362.078 856.363C361.797 856.644 361.639 857.026 361.639 857.424C361.639 857.821 361.797 858.203 362.078 858.484C362.36 858.765 362.741 858.924 363.139 858.924V858.924Z" fill="#FFF"/>
<path d="M1084.61 402.924C1085.01 402.924 1085.39 402.765 1085.68 402.484C1085.96 402.203 1086.11 401.821 1086.11 401.424C1086.11 401.026 1085.96 400.644 1085.68 400.363C1085.39 400.082 1085.01 399.924 1084.61 399.924C1084.22 399.924 1083.84 400.082 1083.55 400.363C1083.27 400.644 1083.11 401.026 1083.11 401.424C1083.11 401.821 1083.27 402.203 1083.55 402.484C1083.84 402.765 1084.22 402.924 1084.61 402.924V402.924Z" fill="#FFF"/>
<path d="M363.139 402.924C363.537 402.924 363.918 402.765 364.2 402.484C364.481 402.203 364.639 401.821 364.639 401.424C364.639 401.026 364.481 400.644 364.2 400.363C363.918 400.082 363.537 399.924 363.139 399.924C362.741 399.924 362.36 400.082 362.078 400.363C361.797 400.644 361.639 401.026 361.639 401.424C361.639 401.821 361.797 402.203 362.078 402.484C362.36 402.765 362.741 402.924 363.139 402.924V402.924Z" fill="#FFF"/>
<path d="M723.877 858.924C724.275 858.924 724.656 858.765 724.938 858.484C725.219 858.203 725.377 857.821 725.377 857.424C725.377 857.026 725.219 856.644 724.938 856.363C724.656 856.082 724.275 855.924 723.877 855.924C723.479 855.924 723.098 856.082 722.816 856.363C722.535 856.644 722.377 857.026 722.377 857.424C722.377 857.821 722.535 858.203 722.816 858.484C723.098 858.765 723.479 858.924 723.877 858.924V858.924Z" fill="#FFF"/>
<path d="M2.40112 858.924C2.79895 858.924 3.18048 858.765 3.46178 858.484C3.74309 858.203 3.90112 857.821 3.90112 857.424C3.90112 857.026 3.74309 856.644 3.46178 856.363C3.18048 856.082 2.79895 855.924 2.40112 855.924C2.0033 855.924 1.62177 856.082 1.34046 856.363C1.05916 856.644 0.901123 857.026 0.901123 857.424C0.901123 857.821 1.05916 858.203 1.34046 858.484C1.62177 858.765 2.0033 858.924 2.40112 858.924V858.924Z" fill="#FFF"/>
<path d="M723.877 402.924C724.275 402.924 724.656 402.765 724.938 402.484C725.219 402.203 725.377 401.821 725.377 401.424C725.377 401.026 725.219 400.644 724.938 400.363C724.656 400.082 724.275 399.924 723.877 399.924C723.479 399.924 723.098 400.082 722.816 400.363C722.535 400.644 722.377 401.026 722.377 401.424C722.377 401.821 722.535 402.203 722.816 402.484C723.098 402.765 723.479 402.924 723.877 402.924V402.924Z" fill="#FFF"/>
<path d="M2.40112 402.924C2.79895 402.924 3.18048 402.765 3.46178 402.484C3.74309 402.203 3.90112 401.821 3.90112 401.424C3.90112 401.026 3.74309 400.644 3.46178 400.363C3.18048 400.082 2.79895 399.924 2.40112 399.924C2.0033 399.924 1.62177 400.082 1.34046 400.363C1.05916 400.644 0.901123 401.026 0.901123 401.424C0.901123 401.821 1.05916 402.203 1.34046 402.484C1.62177 402.765 2.0033 402.924 2.40112 402.924V402.924Z" fill="#FFF"/>
<path d="M1084.61 630.924C1085.01 630.924 1085.39 630.765 1085.68 630.484C1085.96 630.203 1086.11 629.821 1086.11 629.424C1086.11 629.026 1085.96 628.644 1085.68 628.363C1085.39 628.082 1085.01 627.924 1084.61 627.924C1084.22 627.924 1083.84 628.082 1083.55 628.363C1083.27 628.644 1083.11 629.026 1083.11 629.424C1083.11 629.821 1083.27 630.203 1083.55 630.484C1083.84 630.765 1084.22 630.924 1084.61 630.924V630.924Z" fill="#FFF"/>
<path d="M363.139 630.924C363.537 630.924 363.918 630.765 364.2 630.484C364.481 630.203 364.639 629.821 364.639 629.424C364.639 629.026 364.481 628.644 364.2 628.363C363.918 628.082 363.537 627.924 363.139 627.924C362.741 627.924 362.36 628.082 362.078 628.363C361.797 628.644 361.639 629.026 361.639 629.424C361.639 629.821 361.797 630.203 362.078 630.484C362.36 630.765 362.741 630.924 363.139 630.924V630.924Z" fill="#FFF"/>
<path d="M1084.61 174.924C1085.01 174.924 1085.39 174.765 1085.68 174.484C1085.96 174.203 1086.11 173.821 1086.11 173.424C1086.11 173.026 1085.96 172.644 1085.68 172.363C1085.39 172.082 1085.01 171.924 1084.61 171.924C1084.22 171.924 1083.84 172.082 1083.55 172.363C1083.27 172.644 1083.11 173.026 1083.11 173.424C1083.11 173.821 1083.27 174.203 1083.55 174.484C1083.84 174.765 1084.22 174.924 1084.61 174.924V174.924Z" fill="#FFF"/>
<path d="M363.139 174.924C363.537 174.924 363.918 174.765 364.2 174.484C364.481 174.203 364.639 173.821 364.639 173.424C364.639 173.026 364.481 172.644 364.2 172.363C363.918 172.082 363.537 171.924 363.139 171.924C362.741 171.924 362.36 172.082 362.078 172.363C361.797 172.644 361.639 173.026 361.639 173.424C361.639 173.821 361.797 174.203 362.078 174.484C362.36 174.765 362.741 174.924 363.139 174.924V174.924Z" fill="#FFF"/>
<path d="M723.877 630.924C724.275 630.924 724.656 630.765 724.938 630.484C725.219 630.203 725.377 629.821 725.377 629.424C725.377 629.026 725.219 628.644 724.938 628.363C724.656 628.082 724.275 627.924 723.877 627.924C723.479 627.924 723.098 628.082 722.816 628.363C722.535 628.644 722.377 629.026 722.377 629.424C722.377 629.821 722.535 630.203 722.816 630.484C723.098 630.765 723.479 630.924 723.877 630.924V630.924Z" fill="#FFF"/>
<path d="M2.40112 630.924C2.79895 630.924 3.18048 630.765 3.46178 630.484C3.74309 630.203 3.90112 629.821 3.90112 629.424C3.90112 629.026 3.74309 628.644 3.46178 628.363C3.18048 628.082 2.79895 627.924 2.40112 627.924C2.0033 627.924 1.62177 628.082 1.34046 628.363C1.05916 628.644 0.901123 629.026 0.901123 629.424C0.901123 629.821 1.05916 630.203 1.34046 630.484C1.62177 630.765 2.0033 630.924 2.40112 630.924V630.924Z" fill="#FFF"/>
<path d="M723.877 174.924C724.275 174.924 724.656 174.765 724.938 174.484C725.219 174.203 725.377 173.821 725.377 173.424C725.377 173.026 725.219 172.644 724.938 172.363C724.656 172.082 724.275 171.924 723.877 171.924C723.479 171.924 723.098 172.082 722.816 172.363C722.535 172.644 722.377 173.026 722.377 173.424C722.377 173.821 722.535 174.203 722.816 174.484C723.098 174.765 723.479 174.924 723.877 174.924V174.924Z" fill="#FFF"/>
<path d="M2.40112 174.924C2.79895 174.924 3.18048 174.765 3.46178 174.484C3.74309 174.203 3.90112 173.821 3.90112 173.424C3.90112 173.026 3.74309 172.644 3.46178 172.363C3.18048 172.082 2.79895 171.924 2.40112 171.924C2.0033 171.924 1.62177 172.082 1.34046 172.363C1.05916 172.644 0.901123 173.026 0.901123 173.424C0.901123 173.821 1.05916 174.203 1.34046 174.484C1.62177 174.765 2.0033 174.924 2.40112 174.924V174.924Z" fill="#FFF"/>
<path d="M1325.11 801.924C1325.5 801.924 1325.89 801.765 1326.17 801.484C1326.45 801.203 1326.61 800.821 1326.61 800.424C1326.61 800.026 1326.45 799.644 1326.17 799.363C1325.89 799.082 1325.5 798.924 1325.11 798.924C1324.71 798.924 1324.33 799.082 1324.05 799.363C1323.76 799.644 1323.61 800.026 1323.61 800.424C1323.61 800.821 1323.76 801.203 1324.05 801.484C1324.33 801.765 1324.71 801.924 1325.11 801.924V801.924Z" fill="#FFF"/>
<path d="M1325.11 969.076C1325.5 969.076 1325.89 968.918 1326.17 968.637C1326.45 968.356 1326.61 967.974 1326.61 967.576C1326.61 967.179 1326.45 966.797 1326.17 966.516C1325.89 966.234 1325.5 966.076 1325.11 966.076C1324.71 966.076 1324.33 966.234 1324.05 966.516C1323.76 966.797 1323.61 967.179 1323.61 967.576C1323.61 967.974 1323.76 968.356 1324.05 968.637C1324.33 968.918 1324.71 969.076 1325.11 969.076V969.076Z" fill="#FFF"/>
<path d="M1505.48 801.924C1505.87 801.924 1506.26 801.765 1506.54 801.484C1506.82 801.203 1506.98 800.821 1506.98 800.424C1506.98 800.026 1506.82 799.644 1506.54 799.363C1506.26 799.082 1505.87 798.924 1505.48 798.924C1505.08 798.924 1504.7 799.082 1504.42 799.363C1504.13 799.644 1503.98 800.026 1503.98 800.424C1503.98 800.821 1504.13 801.203 1504.42 801.484C1504.7 801.765 1505.08 801.924 1505.48 801.924V801.924Z" fill="#FFF"/>
<path d="M1505.48 969.076C1505.87 969.076 1506.26 968.918 1506.54 968.637C1506.82 968.356 1506.98 967.974 1506.98 967.576C1506.98 967.179 1506.82 966.797 1506.54 966.516C1506.26 966.234 1505.87 966.076 1505.48 966.076C1505.08 966.076 1504.7 966.234 1504.42 966.516C1504.13 966.797 1503.98 967.179 1503.98 967.576C1503.98 967.974 1504.13 968.356 1504.42 968.637C1504.7 968.918 1505.08 969.076 1505.48 969.076V969.076Z" fill="#FFF"/>
<path d="M1325.11 573.924C1325.5 573.924 1325.89 573.765 1326.17 573.484C1326.45 573.203 1326.61 572.821 1326.61 572.424C1326.61 572.026 1326.45 571.644 1326.17 571.363C1325.89 571.082 1325.5 570.924 1325.11 570.924C1324.71 570.924 1324.33 571.082 1324.05 571.363C1323.76 571.644 1323.61 572.026 1323.61 572.424C1323.61 572.821 1323.76 573.203 1324.05 573.484C1324.33 573.765 1324.71 573.924 1325.11 573.924V573.924Z" fill="#FFF"/>
<path d="M1505.48 573.924C1505.87 573.924 1506.26 573.765 1506.54 573.484C1506.82 573.203 1506.98 572.821 1506.98 572.424C1506.98 572.026 1506.82 571.644 1506.54 571.363C1506.26 571.082 1505.87 570.924 1505.48 570.924C1505.08 570.924 1504.7 571.082 1504.42 571.363C1504.13 571.644 1503.98 572.026 1503.98 572.424C1503.98 572.821 1504.13 573.203 1504.42 573.484C1504.7 573.765 1505.08 573.924 1505.48 573.924V573.924Z" fill="#FFF"/>
<path d="M603.631 573.924C604.029 573.924 604.41 573.765 604.692 573.484C604.973 573.203 605.131 572.821 605.131 572.424C605.131 572.026 604.973 571.644 604.692 571.363C604.41 571.082 604.029 570.924 603.631 570.924C603.233 570.924 602.852 571.082 602.57 571.363C602.289 571.644 602.131 572.026 602.131 572.424C602.131 572.821 602.289 573.203 602.57 573.484C602.852 573.765 603.233 573.924 603.631 573.924V573.924Z" fill="#FFF"/>
<path d="M1325.11 117.924C1325.5 117.924 1325.89 117.765 1326.17 117.484C1326.45 117.203 1326.61 116.821 1326.61 116.424C1326.61 116.026 1326.45 115.644 1326.17 115.363C1325.89 115.082 1325.5 114.924 1325.11 114.924C1324.71 114.924 1324.33 115.082 1324.05 115.363C1323.76 115.644 1323.61 116.026 1323.61 116.424C1323.61 116.821 1323.76 117.203 1324.05 117.484C1324.33 117.765 1324.71 117.924 1325.11 117.924V117.924Z" fill="#FFF"/>
<path d="M1505.48 117.924C1505.87 117.924 1506.26 117.765 1506.54 117.484C1506.82 117.203 1506.98 116.821 1506.98 116.424C1506.98 116.026 1506.82 115.644 1506.54 115.363C1506.26 115.082 1505.87 114.924 1505.48 114.924C1505.08 114.924 1504.7 115.082 1504.42 115.363C1504.13 115.644 1503.98 116.026 1503.98 116.424C1503.98 116.821 1504.13 117.203 1504.42 117.484C1504.7 117.765 1505.08 117.924 1505.48 117.924V117.924Z" fill="#FFF"/>
<path d="M603.631 117.924C604.029 117.924 604.41 117.765 604.692 117.484C604.973 117.203 605.131 116.821 605.131 116.424C605.131 116.026 604.973 115.644 604.692 115.363C604.41 115.082 604.029 114.924 603.631 114.924C603.233 114.924 602.852 115.082 602.57 115.363C602.289 115.644 602.131 116.026 602.131 116.424C602.131 116.821 602.289 117.203 602.57 117.484C602.852 117.765 603.233 117.924 603.631 117.924V117.924Z" fill="#FFF"/>
<path d="M964.369 573.924C964.767 573.924 965.148 573.765 965.43 573.484C965.711 573.203 965.869 572.821 965.869 572.424C965.869 572.026 965.711 571.644 965.43 571.363C965.148 571.082 964.767 570.924 964.369 570.924C963.971 570.924 963.59 571.082 963.308 571.363C963.027 571.644 962.869 572.026 962.869 572.424C962.869 572.821 963.027 573.203 963.308 573.484C963.59 573.765 963.971 573.924 964.369 573.924V573.924Z" fill="#FFF"/>
<path d="M242.893 573.924C243.291 573.924 243.672 573.765 243.954 573.484C244.235 573.203 244.393 572.821 244.393 572.424C244.393 572.026 244.235 571.644 243.954 571.363C243.672 571.082 243.291 570.924 242.893 570.924C242.495 570.924 242.114 571.082 241.832 571.363C241.551 571.644 241.393 572.026 241.393 572.424C241.393 572.821 241.551 573.203 241.832 573.484C242.114 573.765 242.495 573.924 242.893 573.924V573.924Z" fill="#FFF"/>
<path d="M964.369 117.924C964.767 117.924 965.148 117.765 965.43 117.484C965.711 117.203 965.869 116.821 965.869 116.424C965.869 116.026 965.711 115.644 965.43 115.363C965.148 115.082 964.767 114.924 964.369 114.924C963.971 114.924 963.59 115.082 963.308 115.363C963.027 115.644 962.869 116.026 962.869 116.424C962.869 116.821 963.027 117.203 963.308 117.484C963.59 117.765 963.971 117.924 964.369 117.924V117.924Z" fill="#FFF"/>
<path d="M242.893 117.924C243.291 117.924 243.672 117.765 243.954 117.484C244.235 117.203 244.393 116.821 244.393 116.424C244.393 116.026 244.235 115.644 243.954 115.363C243.672 115.082 243.291 114.924 242.893 114.924C242.495 114.924 242.114 115.082 241.832 115.363C241.551 115.644 241.393 116.026 241.393 116.424C241.393 116.821 241.551 117.203 241.832 117.484C242.114 117.765 242.495 117.924 242.893 117.924V117.924Z" fill="#FFF"/>
<path d="M1144.74 801.924C1145.14 801.924 1145.52 801.765 1145.8 801.484C1146.08 801.203 1146.24 800.821 1146.24 800.424C1146.24 800.026 1146.08 799.644 1145.8 799.363C1145.52 799.082 1145.14 798.924 1144.74 798.924C1144.34 798.924 1143.96 799.082 1143.68 799.363C1143.4 799.644 1143.24 800.026 1143.24 800.424C1143.24 800.821 1143.4 801.203 1143.68 801.484C1143.96 801.765 1144.34 801.924 1144.74 801.924V801.924Z" fill="#FFF"/>
<path d="M1144.74 969.076C1145.14 969.076 1145.52 968.918 1145.8 968.637C1146.08 968.356 1146.24 967.974 1146.24 967.576C1146.24 967.179 1146.08 966.797 1145.8 966.516C1145.52 966.234 1145.14 966.076 1144.74 966.076C1144.34 966.076 1143.96 966.234 1143.68 966.516C1143.4 966.797 1143.24 967.179 1143.24 967.576C1143.24 967.974 1143.4 968.356 1143.68 968.637C1143.96 968.918 1144.34 969.076 1144.74 969.076V969.076Z" fill="#FFF"/>
<path d="M423.262 801.924C423.66 801.924 424.041 801.765 424.323 801.484C424.604 801.203 424.762 800.821 424.762 800.424C424.762 800.026 424.604 799.644 424.323 799.363C424.041 799.082 423.66 798.924 423.262 798.924C422.864 798.924 422.483 799.082 422.201 799.363C421.92 799.644 421.762 800.026 421.762 800.424C421.762 800.821 421.92 801.203 422.201 801.484C422.483 801.765 422.864 801.924 423.262 801.924V801.924Z" fill="#FFF"/>
<path d="M423.262 969.076C423.66 969.076 424.041 968.918 424.323 968.637C424.604 968.356 424.762 967.974 424.762 967.576C424.762 967.179 424.604 966.797 424.323 966.516C424.041 966.234 423.66 966.076 423.262 966.076C422.864 966.076 422.483 966.234 422.201 966.516C421.92 966.797 421.762 967.179 421.762 967.576C421.762 967.974 421.92 968.356 422.201 968.637C422.483 968.918 422.864 969.076 423.262 969.076V969.076Z" fill="#FFF"/>
<path d="M663.754 117.924C664.152 117.924 664.533 117.765 664.815 117.484C665.096 117.203 665.254 116.821 665.254 116.424C665.254 116.026 665.096 115.644 664.815 115.363C664.533 115.082 664.152 114.924 663.754 114.924C663.356 114.924 662.975 115.082 662.693 115.363C662.412 115.644 662.254 116.026 662.254 116.424C662.254 116.821 662.412 117.203 662.693 117.484C662.975 117.765 663.356 117.924 663.754 117.924V117.924Z" fill="#FFF"/>
<path d="M1024.49 573.924C1024.89 573.924 1025.27 573.765 1025.55 573.484C1025.83 573.203 1025.99 572.821 1025.99 572.424C1025.99 572.026 1025.83 571.644 1025.55 571.363C1025.27 571.082 1024.89 570.924 1024.49 570.924C1024.09 570.924 1023.71 571.082 1023.43 571.363C1023.15 571.644 1022.99 572.026 1022.99 572.424C1022.99 572.821 1023.15 573.203 1023.43 573.484C1023.71 573.765 1024.09 573.924 1024.49 573.924V573.924Z" fill="#FFF"/>
<path d="M303.016 573.924C303.414 573.924 303.795 573.765 304.077 573.484C304.358 573.203 304.516 572.821 304.516 572.424C304.516 572.026 304.358 571.644 304.077 571.363C303.795 571.082 303.414 570.924 303.016 570.924C302.618 570.924 302.237 571.082 301.955 571.363C301.674 571.644 301.516 572.026 301.516 572.424C301.516 572.821 301.674 573.203 301.955 573.484C302.237 573.765 302.618 573.924 303.016 573.924V573.924Z" fill="#FFF"/>
<path d="M1024.49 117.924C1024.89 117.924 1025.27 117.765 1025.55 117.484C1025.83 117.203 1025.99 116.821 1025.99 116.424C1025.99 116.026 1025.83 115.644 1025.55 115.363C1025.27 115.082 1024.89 114.924 1024.49 114.924C1024.09 114.924 1023.71 115.082 1023.43 115.363C1023.15 115.644 1022.99 116.026 1022.99 116.424C1022.99 116.821 1023.15 117.203 1023.43 117.484C1023.71 117.765 1024.09 117.924 1024.49 117.924V117.924Z" fill="#FFF"/>
<path d="M303.016 117.924C303.414 117.924 303.795 117.765 304.077 117.484C304.358 117.203 304.516 116.821 304.516 116.424C304.516 116.026 304.358 115.644 304.077 115.363C303.795 115.082 303.414 114.924 303.016 114.924C302.618 114.924 302.237 115.082 301.955 115.363C301.674 115.644 301.516 116.026 301.516 116.424C301.516 116.821 301.674 117.203 301.955 117.484C302.237 117.765 302.618 117.924 303.016 117.924V117.924Z" fill="#FFF"/>
<path d="M1204.86 801.924C1205.26 801.924 1205.64 801.765 1205.92 801.484C1206.2 801.203 1206.36 800.821 1206.36 800.424C1206.36 800.026 1206.2 799.644 1205.92 799.363C1205.64 799.082 1205.26 798.924 1204.86 798.924C1204.46 798.924 1204.08 799.082 1203.8 799.363C1203.52 799.644 1203.36 800.026 1203.36 800.424C1203.36 800.821 1203.52 801.203 1203.8 801.484C1204.08 801.765 1204.46 801.924 1204.86 801.924V801.924Z" fill="#FFF"/>
<path d="M1204.86 969.076C1205.26 969.076 1205.64 968.918 1205.92 968.637C1206.2 968.356 1206.36 967.974 1206.36 967.576C1206.36 967.179 1206.2 966.797 1205.92 966.516C1205.64 966.234 1205.26 966.076 1204.86 966.076C1204.46 966.076 1204.08 966.234 1203.8 966.516C1203.52 966.797 1203.36 967.179 1203.36 967.576C1203.36 967.974 1203.52 968.356 1203.8 968.637C1204.08 968.918 1204.46 969.076 1204.86 969.076V969.076Z" fill="#FFF"/>
<path d="M483.385 801.924C483.783 801.924 484.164 801.765 484.446 801.484C484.727 801.203 484.885 800.821 484.885 800.424C484.885 800.026 484.727 799.644 484.446 799.363C484.164 799.082 483.783 798.924 483.385 798.924C482.987 798.924 482.606 799.082 482.324 799.363C482.043 799.644 481.885 800.026 481.885 800.424C481.885 800.821 482.043 801.203 482.324 801.484C482.606 801.765 482.987 801.924 483.385 801.924V801.924Z" fill="#FFF"/>
<path d="M483.385 969.076C483.783 969.076 484.164 968.918 484.446 968.637C484.727 968.356 484.885 967.974 484.885 967.576C484.885 967.179 484.727 966.797 484.446 966.516C484.164 966.234 483.783 966.076 483.385 966.076C482.987 966.076 482.606 966.234 482.324 966.516C482.043 966.797 481.885 967.179 481.885 967.576C481.885 967.974 482.043 968.356 482.324 968.637C482.606 968.918 482.987 969.076 483.385 969.076V969.076Z" fill="#FFF"/>
<path d="M1204.86 345.924C1205.26 345.924 1205.64 345.765 1205.92 345.484C1206.2 345.203 1206.36 344.821 1206.36 344.424C1206.36 344.026 1206.2 343.644 1205.92 343.363C1205.64 343.082 1205.26 342.924 1204.86 342.924C1204.46 342.924 1204.08 343.082 1203.8 343.363C1203.52 343.644 1203.36 344.026 1203.36 344.424C1203.36 344.821 1203.52 345.203 1203.8 345.484C1204.08 345.765 1204.46 345.924 1204.86 345.924V345.924Z" fill="#FFF"/>
<path d="M483.385 345.924C483.783 345.924 484.164 345.765 484.446 345.484C484.727 345.203 484.885 344.821 484.885 344.424C484.885 344.026 484.727 343.644 484.446 343.363C484.164 343.082 483.783 342.924 483.385 342.924C482.987 342.924 482.606 343.082 482.324 343.363C482.043 343.644 481.885 344.026 481.885 344.424C481.885 344.821 482.043 345.203 482.324 345.484C482.606 345.765 482.987 345.924 483.385 345.924V345.924Z" fill="#FFF"/>
<path d="M844.123 801.924C844.521 801.924 844.902 801.765 845.184 801.484C845.465 801.203 845.623 800.821 845.623 800.424C845.623 800.026 845.465 799.644 845.184 799.363C844.902 799.082 844.521 798.924 844.123 798.924C843.725 798.924 843.344 799.082 843.062 799.363C842.781 799.644 842.623 800.026 842.623 800.424C842.623 800.821 842.781 801.203 843.062 801.484C843.344 801.765 843.725 801.924 844.123 801.924V801.924Z" fill="#FFF"/>
<path d="M844.123 969.076C844.521 969.076 844.902 968.918 845.184 968.637C845.465 968.356 845.623 967.974 845.623 967.576C845.623 967.179 845.465 966.797 845.184 966.516C844.902 966.234 844.521 966.076 844.123 966.076C843.725 966.076 843.344 966.234 843.062 966.516C842.781 966.797 842.623 967.179 842.623 967.576C842.623 967.974 842.781 968.356 843.062 968.637C843.344 968.918 843.725 969.076 844.123 969.076V969.076Z" fill="#FFF"/>
<path d="M182.77 969.076C183.168 969.076 183.549 968.918 183.831 968.637C184.112 968.356 184.27 967.974 184.27 967.576C184.27 967.179 184.112 966.797 183.831 966.516C183.549 966.234 183.168 966.076 182.77 966.076C182.372 966.076 181.991 966.234 181.709 966.516C181.428 966.797 181.27 967.179 181.27 967.576C181.27 967.974 181.428 968.356 181.709 968.637C181.991 968.918 182.372 969.076 182.77 969.076V969.076Z" fill="#FFF"/>
<path d="M904.246 345.924C904.644 345.924 905.025 345.765 905.307 345.484C905.588 345.203 905.746 344.821 905.746 344.424C905.746 344.026 905.588 343.644 905.307 343.363C905.025 343.082 904.644 342.924 904.246 342.924C903.848 342.924 903.466 343.082 903.185 343.363C902.904 343.644 902.746 344.026 902.746 344.424C902.746 344.821 902.904 345.203 903.185 345.484C903.466 345.765 903.848 345.924 904.246 345.924V345.924Z" fill="#FFF"/>
<path d="M423.262 60.9235C423.66 60.9235 424.041 60.7655 424.323 60.4842C424.604 60.2029 424.762 59.8213 424.762 59.4235C424.762 59.0257 424.604 58.6442 424.323 58.3629C424.041 58.0816 423.66 57.9235 423.262 57.9235C422.864 57.9235 422.483 58.0816 422.201 58.3629C421.92 58.6442 421.762 59.0257 421.762 59.4235C421.762 59.8213 421.92 60.2029 422.201 60.4842C422.483 60.7655 422.864 60.9235 423.262 60.9235V60.9235Z" fill="#FFF"/>
<path d="M784 516.924C784.398 516.924 784.779 516.765 785.061 516.484C785.342 516.203 785.5 515.821 785.5 515.424C785.5 515.026 785.342 514.644 785.061 514.363C784.779 514.082 784.398 513.924 784 513.924C783.602 513.924 783.221 514.082 782.939 514.363C782.658 514.644 782.5 515.026 782.5 515.424C782.5 515.821 782.658 516.203 782.939 516.484C783.221 516.765 783.602 516.924 784 516.924V516.924Z" fill="#FFF"/>
<path d="M62.524 516.924C62.9219 516.924 63.3034 516.765 63.5847 516.484C63.866 516.203 64.024 515.821 64.024 515.424C64.024 515.026 63.866 514.644 63.5847 514.363C63.3034 514.082 62.9219 513.924 62.524 513.924C62.1262 513.924 61.7447 514.082 61.4634 514.363C61.1821 514.644 61.024 515.026 61.024 515.424C61.024 515.821 61.1821 516.203 61.4634 516.484C61.7447 516.765 62.1262 516.924 62.524 516.924V516.924Z" fill="#FFF"/>
<path d="M784 60.9235C784.398 60.9235 784.779 60.7655 785.061 60.4842C785.342 60.2029 785.5 59.8213 785.5 59.4235C785.5 59.0257 785.342 58.6442 785.061 58.3629C784.779 58.0816 784.398 57.9235 784 57.9235C783.602 57.9235 783.221 58.0816 782.939 58.3629C782.658 58.6442 782.5 59.0257 782.5 59.4235C782.5 59.8213 782.658 60.2029 782.939 60.4842C783.221 60.7655 783.602 60.9235 784 60.9235V60.9235Z" fill="#FFF"/>
<path d="M62.524 60.9235C62.9219 60.9235 63.3034 60.7655 63.5847 60.4842C63.866 60.2029 64.024 59.8213 64.024 59.4235C64.024 59.0257 63.866 58.6442 63.5847 58.3629C63.3034 58.0816 62.9219 57.9235 62.524 57.9235C62.1262 57.9235 61.7447 58.0816 61.4634 58.3629C61.1821 58.6442 61.024 59.0257 61.024 59.4235C61.024 59.8213 61.1821 60.2029 61.4634 60.4842C61.7447 60.7655 62.1262 60.9235 62.524 60.9235V60.9235Z" fill="#FFF"/>
<path d="M1385.23 744.924C1385.63 744.924 1386.01 744.765 1386.29 744.484C1386.57 744.203 1386.73 743.821 1386.73 743.424C1386.73 743.026 1386.57 742.644 1386.29 742.363C1386.01 742.082 1385.63 741.924 1385.23 741.924C1384.83 741.924 1384.45 742.082 1384.17 742.363C1383.89 742.644 1383.73 743.026 1383.73 743.424C1383.73 743.821 1383.89 744.203 1384.17 744.484C1384.45 744.765 1384.83 744.924 1385.23 744.924V744.924Z" fill="#FFF"/>
<path d="M1385.23 912.076C1385.63 912.076 1386.01 911.918 1386.29 911.637C1386.57 911.356 1386.73 910.974 1386.73 910.576C1386.73 910.179 1386.57 909.797 1386.29 909.516C1386.01 909.234 1385.63 909.076 1385.23 909.076C1384.83 909.076 1384.45 909.234 1384.17 909.516C1383.89 909.797 1383.73 910.179 1383.73 910.576C1383.73 910.974 1383.89 911.356 1384.17 911.637C1384.45 911.918 1384.83 912.076 1385.23 912.076V912.076Z" fill="#FFF"/>
<path d="M1565.6 744.924C1566 744.924 1566.38 744.765 1566.66 744.484C1566.94 744.203 1567.1 743.821 1567.1 743.424C1567.1 743.026 1566.94 742.644 1566.66 742.363C1566.38 742.082 1566 741.924 1565.6 741.924C1565.2 741.924 1564.82 742.082 1564.54 742.363C1564.26 742.644 1564.1 743.026 1564.1 743.424C1564.1 743.821 1564.26 744.203 1564.54 744.484C1564.82 744.765 1565.2 744.924 1565.6 744.924V744.924Z" fill="#FFF"/>
<path d="M1565.6 912.076C1566 912.076 1566.38 911.918 1566.66 911.637C1566.94 911.356 1567.1 910.974 1567.1 910.576C1567.1 910.179 1566.94 909.797 1566.66 909.516C1566.38 909.234 1566 909.076 1565.6 909.076C1565.2 909.076 1564.82 909.234 1564.54 909.516C1564.26 909.797 1564.1 910.179 1564.1 910.576C1564.1 910.974 1564.26 911.356 1564.54 911.637C1564.82 911.918 1565.2 912.076 1565.6 912.076V912.076Z" fill="#FFF"/>
<path d="M663.754 744.924C664.152 744.924 664.533 744.765 664.815 744.484C665.096 744.203 665.254 743.821 665.254 743.424C665.254 743.026 665.096 742.644 664.815 742.363C664.533 742.082 664.152 741.924 663.754 741.924C663.356 741.924 662.975 742.082 662.693 742.363C662.412 742.644 662.254 743.026 662.254 743.424C662.254 743.821 662.412 744.203 662.693 744.484C662.975 744.765 663.356 744.924 663.754 744.924V744.924Z" fill="#FFF"/>
<path d="M663.754 912.076C664.152 912.076 664.533 911.918 664.815 911.637C665.096 911.356 665.254 910.974 665.254 910.576C665.254 910.179 665.096 909.797 664.815 909.516C664.533 909.234 664.152 909.076 663.754 909.076C663.356 909.076 662.975 909.234 662.693 909.516C662.412 909.797 662.254 910.179 662.254 910.576C662.254 910.974 662.412 911.356 662.693 911.637C662.975 911.918 663.356 912.076 663.754 912.076V912.076Z" fill="#FFF"/>
<path d="M1385.23 288.924C1385.63 288.924 1386.01 288.765 1386.29 288.484C1386.57 288.203 1386.73 287.821 1386.73 287.424C1386.73 287.026 1386.57 286.644 1386.29 286.363C1386.01 286.082 1385.63 285.924 1385.23 285.924C1384.83 285.924 1384.45 286.082 1384.17 286.363C1383.89 286.644 1383.73 287.026 1383.73 287.424C1383.73 287.821 1383.89 288.203 1384.17 288.484C1384.45 288.765 1384.83 288.924 1385.23 288.924V288.924Z" fill="#FFF"/>
<path d="M1565.6 288.924C1566 288.924 1566.38 288.765 1566.66 288.484C1566.94 288.203 1567.1 287.821 1567.1 287.424C1567.1 287.026 1566.94 286.644 1566.66 286.363C1566.38 286.082 1566 285.924 1565.6 285.924C1565.2 285.924 1564.82 286.082 1564.54 286.363C1564.26 286.644 1564.1 287.026 1564.1 287.424C1564.1 287.821 1564.26 288.203 1564.54 288.484C1564.82 288.765 1565.2 288.924 1565.6 288.924V288.924Z" fill="#FFF"/>
<path d="M663.754 288.924C664.152 288.924 664.533 288.765 664.815 288.484C665.096 288.203 665.254 287.821 665.254 287.424C665.254 287.026 665.096 286.644 664.815 286.363C664.533 286.082 664.152 285.924 663.754 285.924C663.356 285.924 662.975 286.082 662.693 286.363C662.412 286.644 662.254 287.026 662.254 287.424C662.254 287.821 662.412 288.203 662.693 288.484C662.975 288.765 663.356 288.924 663.754 288.924V288.924Z" fill="#FFF"/>
<path d="M1024.49 744.924C1024.89 744.924 1025.27 744.765 1025.55 744.484C1025.83 744.203 1025.99 743.821 1025.99 743.424C1025.99 743.026 1025.83 742.644 1025.55 742.363C1025.27 742.082 1024.89 741.924 1024.49 741.924C1024.09 741.924 1023.71 742.082 1023.43 742.363C1023.15 742.644 1022.99 743.026 1022.99 743.424C1022.99 743.821 1023.15 744.203 1023.43 744.484C1023.71 744.765 1024.09 744.924 1024.49 744.924V744.924Z" fill="#FFF"/>
<path d="M1024.49 912.076C1024.89 912.076 1025.27 911.918 1025.55 911.637C1025.83 911.356 1025.99 910.974 1025.99 910.576C1025.99 910.179 1025.83 909.797 1025.55 909.516C1025.27 909.234 1024.89 909.076 1024.49 909.076C1024.09 909.076 1023.71 909.234 1023.43 909.516C1023.15 909.797 1022.99 910.179 1022.99 910.576C1022.99 910.974 1023.15 911.356 1023.43 911.637C1023.71 911.918 1024.09 912.076 1024.49 912.076V912.076Z" fill="#FFF"/>
<path d="M303.016 744.924C303.414 744.924 303.795 744.765 304.077 744.484C304.358 744.203 304.516 743.821 304.516 743.424C304.516 743.026 304.358 742.644 304.077 742.363C303.795 742.082 303.414 741.924 303.016 741.924C302.618 741.924 302.237 742.082 301.955 742.363C301.674 742.644 301.516 743.026 301.516 743.424C301.516 743.821 301.674 744.203 301.955 744.484C302.237 744.765 302.618 744.924 303.016 744.924V744.924Z" fill="#FFF"/>
<path d="M303.016 912.076C303.414 912.076 303.795 911.918 304.077 911.637C304.358 911.356 304.516 910.974 304.516 910.576C304.516 910.179 304.358 909.797 304.077 909.516C303.795 909.234 303.414 909.076 303.016 909.076C302.618 909.076 302.237 909.234 301.955 909.516C301.674 909.797 301.516 910.179 301.516 910.576C301.516 910.974 301.674 911.356 301.955 911.637C302.237 911.918 302.618 912.076 303.016 912.076V912.076Z" fill="#FFF"/>
<path d="M1024.49 288.924C1024.89 288.924 1025.27 288.765 1025.55 288.484C1025.83 288.203 1025.99 287.821 1025.99 287.424C1025.99 287.026 1025.83 286.644 1025.55 286.363C1025.27 286.082 1024.89 285.924 1024.49 285.924C1024.09 285.924 1023.71 286.082 1023.43 286.363C1023.15 286.644 1022.99 287.026 1022.99 287.424C1022.99 287.821 1023.15 288.203 1023.43 288.484C1023.71 288.765 1024.09 288.924 1024.49 288.924V288.924Z" fill="#FFF"/>
<path d="M303.016 288.924C303.414 288.924 303.795 288.765 304.077 288.484C304.358 288.203 304.516 287.821 304.516 287.424C304.516 287.026 304.358 286.644 304.077 286.363C303.795 286.082 303.414 285.924 303.016 285.924C302.618 285.924 302.237 286.082 301.955 286.363C301.674 286.644 301.516 287.026 301.516 287.424C301.516 287.821 301.674 288.203 301.955 288.484C302.237 288.765 302.618 288.924 303.016 288.924V288.924Z" fill="#FFF"/>
<path d="M1385.23 516.924C1385.63 516.924 1386.01 516.765 1386.29 516.484C1386.57 516.203 1386.73 515.821 1386.73 515.424C1386.73 515.026 1386.57 514.644 1386.29 514.363C1386.01 514.082 1385.63 513.924 1385.23 513.924C1384.83 513.924 1384.45 514.082 1384.17 514.363C1383.89 514.644 1383.73 515.026 1383.73 515.424C1383.73 515.821 1383.89 516.203 1384.17 516.484C1384.45 516.765 1384.83 516.924 1385.23 516.924V516.924Z" fill="#FFF"/>
<path d="M1565.6 516.924C1566 516.924 1566.38 516.765 1566.66 516.484C1566.94 516.203 1567.1 515.821 1567.1 515.424C1567.1 515.026 1566.94 514.644 1566.66 514.363C1566.38 514.082 1566 513.924 1565.6 513.924C1565.2 513.924 1564.82 514.082 1564.54 514.363C1564.26 514.644 1564.1 515.026 1564.1 515.424C1564.1 515.821 1564.26 516.203 1564.54 516.484C1564.82 516.765 1565.2 516.924 1565.6 516.924V516.924Z" fill="#FFF"/>
<path d="M663.754 516.924C664.152 516.924 664.533 516.765 664.815 516.484C665.096 516.203 665.254 515.821 665.254 515.424C665.254 515.026 665.096 514.644 664.815 514.363C664.533 514.082 664.152 513.924 663.754 513.924C663.356 513.924 662.975 514.082 662.693 514.363C662.412 514.644 662.254 515.026 662.254 515.424C662.254 515.821 662.412 516.203 662.693 516.484C662.975 516.765 663.356 516.924 663.754 516.924V516.924Z" fill="#FFF"/>
<path d="M1445.35 912.076C1445.75 912.076 1446.13 911.918 1446.41 911.637C1446.69 911.356 1446.85 910.974 1446.85 910.576C1446.85 910.179 1446.69 909.797 1446.41 909.516C1446.13 909.234 1445.75 909.076 1445.35 909.076C1444.95 909.076 1444.57 909.234 1444.29 909.516C1444.01 909.797 1443.85 910.179 1443.85 910.576C1443.85 910.974 1444.01 911.356 1444.29 911.637C1444.57 911.918 1444.95 912.076 1445.35 912.076V912.076Z" fill="#FFF"/>
<path d="M543.508 744.924C543.906 744.924 544.287 744.765 544.569 744.484C544.85 744.203 545.008 743.821 545.008 743.424C545.008 743.026 544.85 742.644 544.569 742.363C544.287 742.082 543.906 741.924 543.508 741.924C543.11 741.924 542.729 742.082 542.447 742.363C542.166 742.644 542.008 743.026 542.008 743.424C542.008 743.821 542.166 744.203 542.447 744.484C542.729 744.765 543.11 744.924 543.508 744.924V744.924Z" fill="#FFF"/>
<path d="M543.508 912.076C543.906 912.076 544.287 911.918 544.569 911.637C544.85 911.356 545.008 910.974 545.008 910.576C545.008 910.179 544.85 909.797 544.569 909.516C544.287 909.234 543.906 909.076 543.508 909.076C543.11 909.076 542.729 909.234 542.447 909.516C542.166 909.797 542.008 910.179 542.008 910.576C542.008 910.974 542.166 911.356 542.447 911.637C542.729 911.918 543.11 912.076 543.508 912.076V912.076Z" fill="#FFF"/>
<path d="M1264.98 288.924C1265.38 288.924 1265.76 288.765 1266.04 288.484C1266.33 288.203 1266.48 287.821 1266.48 287.424C1266.48 287.026 1266.33 286.644 1266.04 286.363C1265.76 286.082 1265.38 285.924 1264.98 285.924C1264.59 285.924 1264.2 286.082 1263.92 286.363C1263.64 286.644 1263.48 287.026 1263.48 287.424C1263.48 287.821 1263.64 288.203 1263.92 288.484C1264.2 288.765 1264.59 288.924 1264.98 288.924V288.924Z" fill="#FFF"/>
<path d="M1445.35 288.924C1445.75 288.924 1446.13 288.765 1446.41 288.484C1446.69 288.203 1446.85 287.821 1446.85 287.424C1446.85 287.026 1446.69 286.644 1446.41 286.363C1446.13 286.082 1445.75 285.924 1445.35 285.924C1444.95 285.924 1444.57 286.082 1444.29 286.363C1444.01 286.644 1443.85 287.026 1443.85 287.424C1443.85 287.821 1444.01 288.203 1444.29 288.484C1444.57 288.765 1444.95 288.924 1445.35 288.924V288.924Z" fill="#FFF"/>
<path d="M543.508 288.924C543.906 288.924 544.287 288.765 544.569 288.484C544.85 288.203 545.008 287.821 545.008 287.424C545.008 287.026 544.85 286.644 544.569 286.363C544.287 286.082 543.906 285.924 543.508 285.924C543.11 285.924 542.729 286.082 542.447 286.363C542.166 286.644 542.008 287.026 542.008 287.424C542.008 287.821 542.166 288.203 542.447 288.484C542.729 288.765 543.11 288.924 543.508 288.924V288.924Z" fill="#FFF"/>
<path d="M904.246 744.924C904.644 744.924 905.025 744.765 905.307 744.484C905.588 744.203 905.746 743.821 905.746 743.424C905.746 743.026 905.588 742.644 905.307 742.363C905.025 742.082 904.644 741.924 904.246 741.924C903.848 741.924 903.466 742.082 903.185 742.363C902.904 742.644 902.746 743.026 902.746 743.424C902.746 743.821 902.904 744.203 903.185 744.484C903.466 744.765 903.848 744.924 904.246 744.924V744.924Z" fill="#FFF"/>
<path d="M904.246 912.076C904.644 912.076 905.025 911.918 905.307 911.637C905.588 911.356 905.746 910.974 905.746 910.576C905.746 910.179 905.588 909.797 905.307 909.516C905.025 909.234 904.644 909.076 904.246 909.076C903.848 909.076 903.466 909.234 903.185 909.516C902.904 909.797 902.746 910.179 902.746 910.576C902.746 910.974 902.904 911.356 903.185 911.637C903.466 911.918 903.848 912.076 904.246 912.076V912.076Z" fill="#FFF"/>
<path d="M182.77 744.924C183.168 744.924 183.549 744.765 183.831 744.484C184.112 744.203 184.27 743.821 184.27 743.424C184.27 743.026 184.112 742.644 183.831 742.363C183.549 742.082 183.168 741.924 182.77 741.924C182.372 741.924 181.991 742.082 181.709 742.363C181.428 742.644 181.27 743.026 181.27 743.424C181.27 743.821 181.428 744.203 181.709 744.484C181.991 744.765 182.372 744.924 182.77 744.924V744.924Z" fill="#FFF"/>
<path d="M182.77 912.076C183.168 912.076 183.549 911.918 183.831 911.637C184.112 911.356 184.27 910.974 184.27 910.576C184.27 910.179 184.112 909.797 183.831 909.516C183.549 909.234 183.168 909.076 182.77 909.076C182.372 909.076 181.991 909.234 181.709 909.516C181.428 909.797 181.27 910.179 181.27 910.576C181.27 910.974 181.428 911.356 181.709 911.637C181.991 911.918 182.372 912.076 182.77 912.076V912.076Z" fill="#FFF"/>
<path d="M904.246 288.924C904.644 288.924 905.025 288.765 905.307 288.484C905.588 288.203 905.746 287.821 905.746 287.424C905.746 287.026 905.588 286.644 905.307 286.363C905.025 286.082 904.644 285.924 904.246 285.924C903.848 285.924 903.466 286.082 903.185 286.363C902.904 286.644 902.746 287.026 902.746 287.424C902.746 287.821 902.904 288.203 903.185 288.484C903.466 288.765 903.848 288.924 904.246 288.924V288.924Z" fill="#FFF"/>
<path d="M182.77 288.924C183.168 288.924 183.549 288.765 183.831 288.484C184.112 288.203 184.27 287.821 184.27 287.424C184.27 287.026 184.112 286.644 183.831 286.363C183.549 286.082 183.168 285.924 182.77 285.924C182.372 285.924 181.991 286.082 181.709 286.363C181.428 286.644 181.27 287.026 181.27 287.424C181.27 287.821 181.428 288.203 181.709 288.484C181.991 288.765 182.372 288.924 182.77 288.924V288.924Z" fill="#FFF"/>
<path d="M1264.98 516.924C1265.38 516.924 1265.76 516.765 1266.04 516.484C1266.33 516.203 1266.48 515.821 1266.48 515.424C1266.48 515.026 1266.33 514.644 1266.04 514.363C1265.76 514.082 1265.38 513.924 1264.98 513.924C1264.59 513.924 1264.2 514.082 1263.92 514.363C1263.64 514.644 1263.48 515.026 1263.48 515.424C1263.48 515.821 1263.64 516.203 1263.92 516.484C1264.2 516.765 1264.59 516.924 1264.98 516.924V516.924Z" fill="#FFF"/>
<path d="M1445.35 516.924C1445.75 516.924 1446.13 516.765 1446.41 516.484C1446.69 516.203 1446.85 515.821 1446.85 515.424C1446.85 515.026 1446.69 514.644 1446.41 514.363C1446.13 514.082 1445.75 513.924 1445.35 513.924C1444.95 513.924 1444.57 514.082 1444.29 514.363C1444.01 514.644 1443.85 515.026 1443.85 515.424C1443.85 515.821 1444.01 516.203 1444.29 516.484C1444.57 516.765 1444.95 516.924 1445.35 516.924V516.924Z" fill="#FFF"/>
<path d="M543.508 516.924C543.906 516.924 544.287 516.765 544.569 516.484C544.85 516.203 545.008 515.821 545.008 515.424C545.008 515.026 544.85 514.644 544.569 514.363C544.287 514.082 543.906 513.924 543.508 513.924C543.11 513.924 542.729 514.082 542.447 514.363C542.166 514.644 542.008 515.026 542.008 515.424C542.008 515.821 542.166 516.203 542.447 516.484C542.729 516.765 543.11 516.924 543.508 516.924V516.924Z" fill="#FFF"/>
<path d="M1264.98 60.9235C1265.38 60.9235 1265.76 60.7655 1266.04 60.4842C1266.33 60.2029 1266.48 59.8213 1266.48 59.4235C1266.48 59.0257 1266.33 58.6442 1266.04 58.3629C1265.76 58.0816 1265.38 57.9235 1264.98 57.9235C1264.59 57.9235 1264.2 58.0816 1263.92 58.3629C1263.64 58.6442 1263.48 59.0257 1263.48 59.4235C1263.48 59.8213 1263.64 60.2029 1263.92 60.4842C1264.2 60.7655 1264.59 60.9235 1264.98 60.9235V60.9235Z" fill="#FFF"/>
<path d="M1445.35 60.9235C1445.75 60.9235 1446.13 60.7655 1446.41 60.4842C1446.69 60.2029 1446.85 59.8213 1446.85 59.4235C1446.85 59.0257 1446.69 58.6442 1446.41 58.3629C1446.13 58.0816 1445.75 57.9235 1445.35 57.9235C1444.95 57.9235 1444.57 58.0816 1444.29 58.3629C1444.01 58.6442 1443.85 59.0257 1443.85 59.4235C1443.85 59.8213 1444.01 60.2029 1444.29 60.4842C1444.57 60.7655 1444.95 60.9235 1445.35 60.9235V60.9235Z" fill="#FFF"/>
<path d="M543.508 60.9235C543.906 60.9235 544.287 60.7655 544.569 60.4842C544.85 60.2029 545.008 59.8213 545.008 59.4235C545.008 59.0257 544.85 58.6442 544.569 58.3629C544.287 58.0816 543.906 57.9235 543.508 57.9235C543.11 57.9235 542.729 58.0816 542.447 58.3629C542.166 58.6442 542.008 59.0257 542.008 59.4235C542.008 59.8213 542.166 60.2029 542.447 60.4842C542.729 60.7655 543.11 60.9235 543.508 60.9235V60.9235Z" fill="#FFF"/>
<path d="M904.246 516.924C904.644 516.924 905.025 516.765 905.307 516.484C905.588 516.203 905.746 515.821 905.746 515.424C905.746 515.026 905.588 514.644 905.307 514.363C905.025 514.082 904.644 513.924 904.246 513.924C903.848 513.924 903.466 514.082 903.185 514.363C902.904 514.644 902.746 515.026 902.746 515.424C902.746 515.821 902.904 516.203 903.185 516.484C903.466 516.765 903.848 516.924 904.246 516.924V516.924Z" fill="#FFF"/>
<path d="M182.77 516.924C183.168 516.924 183.549 516.765 183.831 516.484C184.112 516.203 184.27 515.821 184.27 515.424C184.27 515.026 184.112 514.644 183.831 514.363C183.549 514.082 183.168 513.924 182.77 513.924C182.372 513.924 181.991 514.082 181.709 514.363C181.428 514.644 181.27 515.026 181.27 515.424C181.27 515.821 181.428 516.203 181.709 516.484C181.991 516.765 182.372 516.924 182.77 516.924V516.924Z" fill="#FFF"/>
<path d="M904.246 60.9235C904.644 60.9235 905.025 60.7655 905.307 60.4842C905.588 60.2029 905.746 59.8213 905.746 59.4235C905.746 59.0257 905.588 58.6442 905.307 58.3629C905.025 58.0816 904.644 57.9235 904.246 57.9235C903.848 57.9235 903.466 58.0816 903.185 58.3629C902.904 58.6442 902.746 59.0257 902.746 59.4235C902.746 59.8213 902.904 60.2029 903.185 60.4842C903.466 60.7655 903.848 60.9235 904.246 60.9235V60.9235Z" fill="#FFF"/>
<path d="M182.77 60.9235C183.168 60.9235 183.549 60.7655 183.831 60.4842C184.112 60.2029 184.27 59.8213 184.27 59.4235C184.27 59.0257 184.112 58.6442 183.831 58.3629C183.549 58.0816 183.168 57.9235 182.77 57.9235C182.372 57.9235 181.991 58.0816 181.709 58.3629C181.428 58.6442 181.27 59.0257 181.27 59.4235C181.27 59.8213 181.428 60.2029 181.709 60.4842C181.991 60.7655 182.372 60.9235 182.77 60.9235V60.9235Z" fill="#FFF"/>
<path d="M1084.61 744.924C1085.01 744.924 1085.39 744.765 1085.68 744.484C1085.96 744.203 1086.11 743.821 1086.11 743.424C1086.11 743.026 1085.96 742.644 1085.68 742.363C1085.39 742.082 1085.01 741.924 1084.61 741.924C1084.22 741.924 1083.84 742.082 1083.55 742.363C1083.27 742.644 1083.11 743.026 1083.11 743.424C1083.11 743.821 1083.27 744.203 1083.55 744.484C1083.84 744.765 1084.22 744.924 1084.61 744.924V744.924Z" fill="#FFF"/>
<path d="M1084.61 912.076C1085.01 912.076 1085.39 911.918 1085.68 911.637C1085.96 911.356 1086.11 910.974 1086.11 910.576C1086.11 910.179 1085.96 909.797 1085.68 909.516C1085.39 909.234 1085.01 909.076 1084.61 909.076C1084.22 909.076 1083.84 909.234 1083.55 909.516C1083.27 909.797 1083.11 910.179 1083.11 910.576C1083.11 910.974 1083.27 911.356 1083.55 911.637C1083.84 911.918 1084.22 912.076 1084.61 912.076V912.076Z" fill="#FFF"/>
<path d="M363.139 744.924C363.537 744.924 363.918 744.765 364.2 744.484C364.481 744.203 364.639 743.821 364.639 743.424C364.639 743.026 364.481 742.644 364.2 742.363C363.918 742.082 363.537 741.924 363.139 741.924C362.741 741.924 362.36 742.082 362.078 742.363C361.797 742.644 361.639 743.026 361.639 743.424C361.639 743.821 361.797 744.203 362.078 744.484C362.36 744.765 362.741 744.924 363.139 744.924V744.924Z" fill="#FFF"/>
<path d="M363.139 912.076C363.537 912.076 363.918 911.918 364.2 911.637C364.481 911.356 364.639 910.974 364.639 910.576C364.639 910.179 364.481 909.797 364.2 909.516C363.918 909.234 363.537 909.076 363.139 909.076C362.741 909.076 362.36 909.234 362.078 909.516C361.797 909.797 361.639 910.179 361.639 910.576C361.639 910.974 361.797 911.356 362.078 911.637C362.36 911.918 362.741 912.076 363.139 912.076V912.076Z" fill="#FFF"/>
<path d="M1084.61 288.924C1085.01 288.924 1085.39 288.765 1085.68 288.484C1085.96 288.203 1086.11 287.821 1086.11 287.424C1086.11 287.026 1085.96 286.644 1085.68 286.363C1085.39 286.082 1085.01 285.924 1084.61 285.924C1084.22 285.924 1083.84 286.082 1083.55 286.363C1083.27 286.644 1083.11 287.026 1083.11 287.424C1083.11 287.821 1083.27 288.203 1083.55 288.484C1083.84 288.765 1084.22 288.924 1084.61 288.924V288.924Z" fill="#FFF"/>
<path d="M363.139 288.924C363.537 288.924 363.918 288.765 364.2 288.484C364.481 288.203 364.639 287.821 364.639 287.424C364.639 287.026 364.481 286.644 364.2 286.363C363.918 286.082 363.537 285.924 363.139 285.924C362.741 285.924 362.36 286.082 362.078 286.363C361.797 286.644 361.639 287.026 361.639 287.424C361.639 287.821 361.797 288.203 362.078 288.484C362.36 288.765 362.741 288.924 363.139 288.924V288.924Z" fill="#FFF"/>
<path d="M723.877 744.924C724.275 744.924 724.656 744.765 724.938 744.484C725.219 744.203 725.377 743.821 725.377 743.424C725.377 743.026 725.219 742.644 724.938 742.363C724.656 742.082 724.275 741.924 723.877 741.924C723.479 741.924 723.098 742.082 722.816 742.363C722.535 742.644 722.377 743.026 722.377 743.424C722.377 743.821 722.535 744.203 722.816 744.484C723.098 744.765 723.479 744.924 723.877 744.924V744.924Z" fill="#FFF"/>
<path d="M1325.11 459.924C1325.5 459.924 1325.89 459.765 1326.17 459.484C1326.45 459.203 1326.61 458.821 1326.61 458.424C1326.61 458.026 1326.45 457.644 1326.17 457.363C1325.89 457.082 1325.5 456.924 1325.11 456.924C1324.71 456.924 1324.33 457.082 1324.05 457.363C1323.76 457.644 1323.61 458.026 1323.61 458.424C1323.61 458.821 1323.76 459.203 1324.05 459.484C1324.33 459.765 1324.71 459.924 1325.11 459.924V459.924Z" fill="#FFF"/>
<path d="M1505.48 459.924C1505.87 459.924 1506.26 459.765 1506.54 459.484C1506.82 459.203 1506.98 458.821 1506.98 458.424C1506.98 458.026 1506.82 457.644 1506.54 457.363C1506.26 457.082 1505.87 456.924 1505.48 456.924C1505.08 456.924 1504.7 457.082 1504.42 457.363C1504.13 457.644 1503.98 458.026 1503.98 458.424C1503.98 458.821 1504.13 459.203 1504.42 459.484C1504.7 459.765 1505.08 459.924 1505.48 459.924V459.924Z" fill="#FFF"/>
<path d="M603.631 459.924C604.029 459.924 604.41 459.765 604.692 459.484C604.973 459.203 605.131 458.821 605.131 458.424C605.131 458.026 604.973 457.644 604.692 457.363C604.41 457.082 604.029 456.924 603.631 456.924C603.233 456.924 602.852 457.082 602.57 457.363C602.289 457.644 602.131 458.026 602.131 458.424C602.131 458.821 602.289 459.203 602.57 459.484C602.852 459.765 603.233 459.924 603.631 459.924V459.924Z" fill="#FFF"/>
<path d="M1325.11 3.92365C1325.5 3.92365 1325.89 3.76561 1326.17 3.48431C1326.45 3.203 1326.61 2.82147 1326.61 2.42365C1326.61 2.02582 1326.45 1.64429 1326.17 1.36298C1325.89 1.08168 1325.5 0.923645 1325.11 0.923645C1324.71 0.923645 1324.33 1.08168 1324.05 1.36298C1323.76 1.64429 1323.61 2.02582 1323.61 2.42365C1323.61 2.82147 1323.76 3.203 1324.05 3.48431C1324.33 3.76561 1324.71 3.92365 1325.11 3.92365V3.92365Z" fill="#FFF"/>
<path d="M1505.48 3.92365C1505.87 3.92365 1506.26 3.76561 1506.54 3.48431C1506.82 3.203 1506.98 2.82147 1506.98 2.42365C1506.98 2.02582 1506.82 1.64429 1506.54 1.36298C1506.26 1.08168 1505.87 0.923645 1505.48 0.923645C1505.08 0.923645 1504.7 1.08168 1504.42 1.36298C1504.13 1.64429 1503.98 2.02582 1503.98 2.42365C1503.98 2.82147 1504.13 3.203 1504.42 3.48431C1504.7 3.76561 1505.08 3.92365 1505.48 3.92365V3.92365Z" fill="#FFF"/>
<path d="M603.631 3.92365C604.029 3.92365 604.41 3.76561 604.692 3.48431C604.973 3.203 605.131 2.82147 605.131 2.42365C605.131 2.02582 604.973 1.64429 604.692 1.36298C604.41 1.08168 604.029 0.923645 603.631 0.923645C603.233 0.923645 602.852 1.08168 602.57 1.36298C602.289 1.64429 602.131 2.02582 602.131 2.42365C602.131 2.82147 602.289 3.203 602.57 3.48431C602.852 3.76561 603.233 3.92365 603.631 3.92365V3.92365Z" fill="#FFF"/>
<path d="M964.369 459.924C964.767 459.924 965.148 459.765 965.43 459.484C965.711 459.203 965.869 458.821 965.869 458.424C965.869 458.026 965.711 457.644 965.43 457.363C965.148 457.082 964.767 456.924 964.369 456.924C963.971 456.924 963.59 457.082 963.308 457.363C963.027 457.644 962.869 458.026 962.869 458.424C962.869 458.821 963.027 459.203 963.308 459.484C963.59 459.765 963.971 459.924 964.369 459.924V459.924Z" fill="#FFF"/>
<path d="M242.893 459.924C243.291 459.924 243.672 459.765 243.954 459.484C244.235 459.203 244.393 458.821 244.393 458.424C244.393 458.026 244.235 457.644 243.954 457.363C243.672 457.082 243.291 456.924 242.893 456.924C242.495 456.924 242.114 457.082 241.832 457.363C241.551 457.644 241.393 458.026 241.393 458.424C241.393 458.821 241.551 459.203 241.832 459.484C242.114 459.765 242.495 459.924 242.893 459.924V459.924Z" fill="#FFF"/>
<path d="M964.369 3.92365C964.767 3.92365 965.148 3.76561 965.43 3.48431C965.711 3.203 965.869 2.82147 965.869 2.42365C965.869 2.02582 965.711 1.64429 965.43 1.36298C965.148 1.08168 964.767 0.923645 964.369 0.923645C963.971 0.923645 963.59 1.08168 963.308 1.36298C963.027 1.64429 962.869 2.02582 962.869 2.42365C962.869 2.82147 963.027 3.203 963.308 3.48431C963.59 3.76561 963.971 3.92365 964.369 3.92365V3.92365Z" fill="#FFF"/>
<path d="M1385.23 687.924C1385.63 687.924 1386.01 687.765 1386.29 687.484C1386.57 687.203 1386.73 686.821 1386.73 686.424C1386.73 686.026 1386.57 685.644 1386.29 685.363C1386.01 685.082 1385.63 684.924 1385.23 684.924C1384.83 684.924 1384.45 685.082 1384.17 685.363C1383.89 685.644 1383.73 686.026 1383.73 686.424C1383.73 686.821 1383.89 687.203 1384.17 687.484C1384.45 687.765 1384.83 687.924 1385.23 687.924V687.924Z" fill="#FFF"/>
<path d="M1565.6 687.924C1566 687.924 1566.38 687.765 1566.66 687.484C1566.94 687.203 1567.1 686.821 1567.1 686.424C1567.1 686.026 1566.94 685.644 1566.66 685.363C1566.38 685.082 1566 684.924 1565.6 684.924C1565.2 684.924 1564.82 685.082 1564.54 685.363C1564.26 685.644 1564.1 686.026 1564.1 686.424C1564.1 686.821 1564.26 687.203 1564.54 687.484C1564.82 687.765 1565.2 687.924 1565.6 687.924V687.924Z" fill="#FFF"/>
<path d="M663.754 687.924C664.152 687.924 664.533 687.765 664.815 687.484C665.096 687.203 665.254 686.821 665.254 686.424C665.254 686.026 665.096 685.644 664.815 685.363C664.533 685.082 664.152 684.924 663.754 684.924C663.356 684.924 662.975 685.082 662.693 685.363C662.412 685.644 662.254 686.026 662.254 686.424C662.254 686.821 662.412 687.203 662.693 687.484C662.975 687.765 663.356 687.924 663.754 687.924V687.924Z" fill="#FFF"/>
<path d="M1385.23 231.924C1385.63 231.924 1386.01 231.765 1386.29 231.484C1386.57 231.203 1386.73 230.821 1386.73 230.424C1386.73 230.026 1386.57 229.644 1386.29 229.363C1386.01 229.082 1385.63 228.924 1385.23 228.924C1384.83 228.924 1384.45 229.082 1384.17 229.363C1383.89 229.644 1383.73 230.026 1383.73 230.424C1383.73 230.821 1383.89 231.203 1384.17 231.484C1384.45 231.765 1384.83 231.924 1385.23 231.924V231.924Z" fill="#FFF"/>
<path d="M1565.6 231.924C1566 231.924 1566.38 231.765 1566.66 231.484C1566.94 231.203 1567.1 230.821 1567.1 230.424C1567.1 230.026 1566.94 229.644 1566.66 229.363C1566.38 229.082 1566 228.924 1565.6 228.924C1565.2 228.924 1564.82 229.082 1564.54 229.363C1564.26 229.644 1564.1 230.026 1564.1 230.424C1564.1 230.821 1564.26 231.203 1564.54 231.484C1564.82 231.765 1565.2 231.924 1565.6 231.924V231.924Z" fill="#FFF"/>
<path d="M663.754 231.924C664.152 231.924 664.533 231.765 664.815 231.484C665.096 231.203 665.254 230.821 665.254 230.424C665.254 230.026 665.096 229.644 664.815 229.363C664.533 229.082 664.152 228.924 663.754 228.924C663.356 228.924 662.975 229.082 662.693 229.363C662.412 229.644 662.254 230.026 662.254 230.424C662.254 230.821 662.412 231.203 662.693 231.484C662.975 231.765 663.356 231.924 663.754 231.924V231.924Z" fill="#FFF"/>
<path d="M1024.49 687.924C1024.89 687.924 1025.27 687.765 1025.55 687.484C1025.83 687.203 1025.99 686.821 1025.99 686.424C1025.99 686.026 1025.83 685.644 1025.55 685.363C1025.27 685.082 1024.89 684.924 1024.49 684.924C1024.09 684.924 1023.71 685.082 1023.43 685.363C1023.15 685.644 1022.99 686.026 1022.99 686.424C1022.99 686.821 1023.15 687.203 1023.43 687.484C1023.71 687.765 1024.09 687.924 1024.49 687.924V687.924Z" fill="#FFF"/>
<path d="M303.016 687.924C303.414 687.924 303.795 687.765 304.077 687.484C304.358 687.203 304.516 686.821 304.516 686.424C304.516 686.026 304.358 685.644 304.077 685.363C303.795 685.082 303.414 684.924 303.016 684.924C302.618 684.924 302.237 685.082 301.955 685.363C301.674 685.644 301.516 686.026 301.516 686.424C301.516 686.821 301.674 687.203 301.955 687.484C302.237 687.765 302.618 687.924 303.016 687.924V687.924Z" fill="#FFF"/>
<path d="M1024.49 231.924C1024.89 231.924 1025.27 231.765 1025.55 231.484C1025.83 231.203 1025.99 230.821 1025.99 230.424C1025.99 230.026 1025.83 229.644 1025.55 229.363C1025.27 229.082 1024.89 228.924 1024.49 228.924C1024.09 228.924 1023.71 229.082 1023.43 229.363C1023.15 229.644 1022.99 230.026 1022.99 230.424C1022.99 230.821 1023.15 231.203 1023.43 231.484C1023.71 231.765 1024.09 231.924 1024.49 231.924V231.924Z" fill="#FFF"/>
<path d="M303.016 231.924C303.414 231.924 303.795 231.765 304.077 231.484C304.358 231.203 304.516 230.821 304.516 230.424C304.516 230.026 304.358 229.644 304.077 229.363C303.795 229.082 303.414 228.924 303.016 228.924C302.618 228.924 302.237 229.082 301.955 229.363C301.674 229.644 301.516 230.026 301.516 230.424C301.516 230.821 301.674 231.203 301.955 231.484C302.237 231.765 302.618 231.924 303.016 231.924V231.924Z" fill="#FFF"/>
<path d="M1204.86 459.924C1205.26 459.924 1205.64 459.765 1205.92 459.484C1206.2 459.203 1206.36 458.821 1206.36 458.424C1206.36 458.026 1206.2 457.644 1205.92 457.363C1205.64 457.082 1205.26 456.924 1204.86 456.924C1204.46 456.924 1204.08 457.082 1203.8 457.363C1203.52 457.644 1203.36 458.026 1203.36 458.424C1203.36 458.821 1203.52 459.203 1203.8 459.484C1204.08 459.765 1204.46 459.924 1204.86 459.924V459.924Z" fill="#FFF"/>
<path d="M483.385 459.924C483.783 459.924 484.164 459.765 484.446 459.484C484.727 459.203 484.885 458.821 484.885 458.424C484.885 458.026 484.727 457.644 484.446 457.363C484.164 457.082 483.783 456.924 483.385 456.924C482.987 456.924 482.606 457.082 482.324 457.363C482.043 457.644 481.885 458.026 481.885 458.424C481.885 458.821 482.043 459.203 482.324 459.484C482.606 459.765 482.987 459.924 483.385 459.924V459.924Z" fill="#FFF"/>
<path d="M1204.86 3.92365C1205.26 3.92365 1205.64 3.76561 1205.92 3.48431C1206.2 3.203 1206.36 2.82147 1206.36 2.42365C1206.36 2.02582 1206.2 1.64429 1205.92 1.36298C1205.64 1.08168 1205.26 0.923645 1204.86 0.923645C1204.46 0.923645 1204.08 1.08168 1203.8 1.36298C1203.52 1.64429 1203.36 2.02582 1203.36 2.42365C1203.36 2.82147 1203.52 3.203 1203.8 3.48431C1204.08 3.76561 1204.46 3.92365 1204.86 3.92365V3.92365Z" fill="#FFF"/>
<path d="M483.385 3.92365C483.783 3.92365 484.164 3.76561 484.446 3.48431C484.727 3.203 484.885 2.82147 484.885 2.42365C484.885 2.02582 484.727 1.64429 484.446 1.36298C484.164 1.08168 483.783 0.923645 483.385 0.923645C482.987 0.923645 482.606 1.08168 482.324 1.36298C482.043 1.64429 481.885 2.02582 481.885 2.42365C481.885 2.82147 482.043 3.203 482.324 3.48431C482.606 3.76561 482.987 3.92365 483.385 3.92365V3.92365Z" fill="#FFF"/>
<path d="M844.123 459.924C844.521 459.924 844.902 459.765 845.184 459.484C845.465 459.203 845.623 458.821 845.623 458.424C845.623 458.026 845.465 457.644 845.184 457.363C844.902 457.082 844.521 456.924 844.123 456.924C843.725 456.924 843.344 457.082 843.062 457.363C842.781 457.644 842.623 458.026 842.623 458.424C842.623 458.821 842.781 459.203 843.062 459.484C843.344 459.765 843.725 459.924 844.123 459.924V459.924Z" fill="#FFF"/>
<path d="M122.647 459.924C123.045 459.924 123.426 459.765 123.708 459.484C123.989 459.203 124.147 458.821 124.147 458.424C124.147 458.026 123.989 457.644 123.708 457.363C123.426 457.082 123.045 456.924 122.647 456.924C122.249 456.924 121.868 457.082 121.586 457.363C121.305 457.644 121.147 458.026 121.147 458.424C121.147 458.821 121.305 459.203 121.586 459.484C121.868 459.765 122.249 459.924 122.647 459.924V459.924Z" fill="#FFF"/>
<path d="M844.123 3.92365C844.521 3.92365 844.902 3.76561 845.184 3.48431C845.465 3.203 845.623 2.82147 845.623 2.42365C845.623 2.02582 845.465 1.64429 845.184 1.36298C844.902 1.08168 844.521 0.923645 844.123 0.923645C843.725 0.923645 843.344 1.08168 843.062 1.36298C842.781 1.64429 842.623 2.02582 842.623 2.42365C842.623 2.82147 842.781 3.203 843.062 3.48431C843.344 3.76561 843.725 3.92365 844.123 3.92365V3.92365Z" fill="#FFF"/>
<path d="M122.647 3.92365C123.045 3.92365 123.426 3.76561 123.708 3.48431C123.989 3.203 124.147 2.82147 124.147 2.42365C124.147 2.02582 123.989 1.64429 123.708 1.36298C123.426 1.08168 123.045 0.923645 122.647 0.923645C122.249 0.923645 121.868 1.08168 121.586 1.36298C121.305 1.64429 121.147 2.02582 121.147 2.42365C121.147 2.82147 121.305 3.203 121.586 3.48431C121.868 3.76561 122.249 3.92365 122.647 3.92365V3.92365Z" fill="#FFF"/>
<path d="M1264.98 687.924C1265.38 687.924 1265.76 687.765 1266.04 687.484C1266.33 687.203 1266.48 686.821 1266.48 686.424C1266.48 686.026 1266.33 685.644 1266.04 685.363C1265.76 685.082 1265.38 684.924 1264.98 684.924C1264.59 684.924 1264.2 685.082 1263.92 685.363C1263.64 685.644 1263.48 686.026 1263.48 686.424C1263.48 686.821 1263.64 687.203 1263.92 687.484C1264.2 687.765 1264.59 687.924 1264.98 687.924V687.924Z" fill="#FFF"/>

</g>
</svg>
